<?xml version="1.0" encoding="UTF-8" standalone="no"?>
<!DOCTYPE svg PUBLIC "-//W3C//DTD SVG 1.1//EN"
 "http://www.w3.org/Graphics/SVG/1.1/DTD/svg11.dtd">
<!-- Generated by graphviz version 2.40.1 (20161225.0304)
 -->
<!-- Title: dependencies Pages: 1 -->
<svg width="729pt" height="211pt"
 viewBox="0.00 0.00 729.00 211.00" xmlns="http://www.w3.org/2000/svg" xmlns:xlink="http://www.w3.org/1999/xlink">
<g id="graph0" class="graph" transform="scale(1 1) rotate(0) translate(4 207)">
<title>dependencies</title>
<polygon fill="#ffffff" stroke="transparent" points="-4,4 -4,-207 725,-207 725,4 -4,4"/>
<text text-anchor="start" x="339.5091" y="-42.4" font-family="sans-serif" font-weight="bold" font-size="14.00" fill="#000000">Legend</text>
<polygon fill="#ffffb3" stroke="transparent" points="126.5,-10 126.5,-30 146.5,-30 146.5,-10 126.5,-10"/>
<text text-anchor="start" x="150.129" y="-15.4" font-family="sans-serif" font-size="14.00" fill="#000000"> &#160;Declarations</text>
<polygon fill="#8dd3c7" stroke="transparent" points="239.5,-10 239.5,-30 259.5,-30 259.5,-10 239.5,-10"/>
<text text-anchor="start" x="263.2251" y="-15.4" font-family="sans-serif" font-size="14.00" fill="#000000"> &#160;Module</text>
<polygon fill="#80b1d3" stroke="transparent" points="325.5,-10 325.5,-30 345.5,-30 345.5,-10 325.5,-10"/>
<text text-anchor="start" x="349.2812" y="-15.4" font-family="sans-serif" font-size="14.00" fill="#000000"> &#160;Bootstrap</text>
<polygon fill="#fdb462" stroke="transparent" points="422.5,-10 422.5,-30 442.5,-30 442.5,-10 422.5,-10"/>
<text text-anchor="start" x="446.1732" y="-15.4" font-family="sans-serif" font-size="14.00" fill="#000000"> &#160;Providers</text>
<polygon fill="#fb8072" stroke="transparent" points="518.5,-10 518.5,-30 538.5,-30 538.5,-10 518.5,-10"/>
<text text-anchor="start" x="542.2258" y="-15.4" font-family="sans-serif" font-size="14.00" fill="#000000"> &#160;Exports</text>
<g id="clust1" class="cluster">
<title>cluster_AuthModule</title>
<polygon fill="none" stroke="#000000" stroke-dasharray="1,5" points="8,-70 8,-195 713,-195 713,-70 8,-70"/>
</g>
<g id="clust6" class="cluster">
<title>cluster_AuthModule_providers</title>
<polygon fill="none" stroke="#000000" points="16,-78 16,-130 705,-130 705,-78 16,-78"/>
</g>
<!-- AuthGuardService -->
<g id="node1" class="node">
<title>AuthGuardService</title>
<ellipse fill="#fdb462" stroke="#000000" cx="614" cy="-104" rx="83.3674" ry="18"/>
<text text-anchor="middle" x="614" y="-99.8" font-family="Times,serif" font-size="14.00" fill="#000000">AuthGuardService</text>
</g>
<!-- AuthModule -->
<g id="node5" class="node">
<title>AuthModule</title>
<polygon fill="#8dd3c7" stroke="#000000" points="393.5482,-187 390.5482,-191 369.5482,-191 366.5482,-187 306.4518,-187 306.4518,-151 393.5482,-151 393.5482,-187"/>
<text text-anchor="middle" x="350" y="-164.8" font-family="Times,serif" font-size="14.00" fill="#000000">AuthModule</text>
</g>
<!-- AuthGuardService&#45;&gt;AuthModule -->
<g id="edge1" class="edge">
<title>AuthGuardService&#45;&gt;AuthModule</title>
<path fill="none" stroke="#000000" d="M614,-122.1061C614,-141.3391 614,-169 614,-169 614,-169 403.5942,-169 403.5942,-169"/>
<polygon fill="#000000" stroke="#000000" points="403.5943,-165.5001 393.5942,-169 403.5942,-172.5001 403.5943,-165.5001"/>
</g>
<!-- AuthInteceptor -->
<g id="node2" class="node">
<title>AuthInteceptor</title>
<ellipse fill="#fdb462" stroke="#000000" cx="443" cy="-104" rx="69.4819" ry="18"/>
<text text-anchor="middle" x="443" y="-99.8" font-family="Times,serif" font-size="14.00" fill="#000000">AuthInteceptor</text>
</g>
<!-- AuthInteceptor&#45;&gt;AuthModule -->
<g id="edge2" class="edge">
<title>AuthInteceptor&#45;&gt;AuthModule</title>
<path fill="none" stroke="#000000" d="M383.6413,-113.591C383.6413,-113.591 383.6413,-140.748 383.6413,-140.748"/>
<polygon fill="#000000" stroke="#000000" points="380.1414,-140.7479 383.6413,-150.748 387.1414,-140.748 380.1414,-140.7479"/>
</g>
<!-- AuthIntercepterServer -->
<g id="node3" class="node">
<title>AuthIntercepterServer</title>
<ellipse fill="#fdb462" stroke="#000000" cx="258" cy="-104" rx="97.2278" ry="18"/>
<text text-anchor="middle" x="258" y="-99.8" font-family="Times,serif" font-size="14.00" fill="#000000">AuthIntercepterServer</text>
</g>
<!-- AuthIntercepterServer&#45;&gt;AuthModule -->
<g id="edge3" class="edge">
<title>AuthIntercepterServer&#45;&gt;AuthModule</title>
<path fill="none" stroke="#000000" d="M330.7951,-116.226C330.7951,-116.226 330.7951,-140.683 330.7951,-140.683"/>
<polygon fill="#000000" stroke="#000000" points="327.2952,-140.683 330.7951,-150.683 334.2952,-140.683 327.2952,-140.683"/>
</g>
<!-- AuthService -->
<g id="node4" class="node">
<title>AuthService</title>
<ellipse fill="#fdb462" stroke="#000000" cx="83" cy="-104" rx="59.1083" ry="18"/>
<text text-anchor="middle" x="83" y="-99.8" font-family="Times,serif" font-size="14.00" fill="#000000">AuthService</text>
</g>
<!-- AuthService&#45;&gt;AuthModule -->
<g id="edge4" class="edge">
<title>AuthService&#45;&gt;AuthModule</title>
<path fill="none" stroke="#000000" d="M83,-122.1061C83,-141.3391 83,-169 83,-169 83,-169 296.2094,-169 296.2094,-169"/>
<polygon fill="#000000" stroke="#000000" points="296.2094,-172.5001 306.2094,-169 296.2093,-165.5001 296.2094,-172.5001"/>
</g>
</g>
</svg>
