<?xml version="1.0" encoding="UTF-8" standalone="no"?>
<!DOCTYPE svg PUBLIC "-//W3C//DTD SVG 1.1//EN"
 "http://www.w3.org/Graphics/SVG/1.1/DTD/svg11.dtd">
<!-- Generated by graphviz version 2.40.1 (20161225.0304)
 -->
<!-- Title: dependencies Pages: 1 -->
<svg width="1584pt" height="284pt"
 viewBox="0.00 0.00 1584.00 284.00" xmlns="http://www.w3.org/2000/svg" xmlns:xlink="http://www.w3.org/1999/xlink">
<g id="graph0" class="graph" transform="scale(1 1) rotate(0) translate(4 280)">
<title>dependencies</title>
<polygon fill="#ffffff" stroke="transparent" points="-4,4 -4,-280 1580,-280 1580,4 -4,4"/>
<text text-anchor="start" x="767.0091" y="-42.4" font-family="sans-serif" font-weight="bold" font-size="14.00" fill="#000000">Legend</text>
<polygon fill="#ffffb3" stroke="transparent" points="554,-10 554,-30 574,-30 574,-10 554,-10"/>
<text text-anchor="start" x="577.629" y="-15.4" font-family="sans-serif" font-size="14.00" fill="#000000"> &#160;Declarations</text>
<polygon fill="#8dd3c7" stroke="transparent" points="667,-10 667,-30 687,-30 687,-10 667,-10"/>
<text text-anchor="start" x="690.7251" y="-15.4" font-family="sans-serif" font-size="14.00" fill="#000000"> &#160;Module</text>
<polygon fill="#80b1d3" stroke="transparent" points="753,-10 753,-30 773,-30 773,-10 753,-10"/>
<text text-anchor="start" x="776.7812" y="-15.4" font-family="sans-serif" font-size="14.00" fill="#000000"> &#160;Bootstrap</text>
<polygon fill="#fdb462" stroke="transparent" points="850,-10 850,-30 870,-30 870,-10 850,-10"/>
<text text-anchor="start" x="873.6732" y="-15.4" font-family="sans-serif" font-size="14.00" fill="#000000"> &#160;Providers</text>
<polygon fill="#fb8072" stroke="transparent" points="946,-10 946,-30 966,-30 966,-10 946,-10"/>
<text text-anchor="start" x="969.7258" y="-15.4" font-family="sans-serif" font-size="14.00" fill="#000000"> &#160;Exports</text>
<g id="clust1" class="cluster">
<title>cluster_HmctsAnnotationUiModule</title>
<polygon fill="none" stroke="#000000" stroke-dasharray="1,5" points="8,-70 8,-268 1568,-268 1568,-70 8,-70"/>
</g>
<g id="clust2" class="cluster">
<title>cluster_HmctsAnnotationUiModule_declarations</title>
<polygon fill="none" stroke="#000000" points="793,-78 793,-130 1560,-130 1560,-78 793,-78"/>
</g>
<g id="clust8" class="cluster">
<title>cluster_HmctsAnnotationUiModule_exports</title>
<polygon fill="none" stroke="#000000" points="297,-208 297,-260 1077,-260 1077,-208 297,-208"/>
</g>
<g id="clust10" class="cluster">
<title>cluster_HmctsAnnotationUiModule_providers</title>
<polygon fill="none" stroke="#000000" points="16,-78 16,-130 785,-130 785,-78 16,-78"/>
</g>
<!-- AnnotationPdfViewerComponent -->
<g id="node1" class="node">
<title>AnnotationPdfViewerComponent</title>
<polygon fill="#ffffb3" stroke="#000000" points="1552.4622,-122 1347.5378,-122 1347.5378,-86 1552.4622,-86 1552.4622,-122"/>
<text text-anchor="middle" x="1450" y="-99.8" font-family="Times,serif" font-size="14.00" fill="#000000">AnnotationPdfViewerComponent</text>
</g>
<!-- HmctsAnnotationUiModule -->
<g id="node5" class="node">
<title>HmctsAnnotationUiModule</title>
<polygon fill="#8dd3c7" stroke="#000000" points="759.587,-187 756.587,-191 735.587,-191 732.587,-187 586.413,-187 586.413,-151 759.587,-151 759.587,-187"/>
<text text-anchor="middle" x="673" y="-164.8" font-family="Times,serif" font-size="14.00" fill="#000000">HmctsAnnotationUiModule</text>
</g>
<!-- AnnotationPdfViewerComponent&#45;&gt;HmctsAnnotationUiModule -->
<g id="edge1" class="edge">
<title>AnnotationPdfViewerComponent&#45;&gt;HmctsAnnotationUiModule</title>
<path fill="none" stroke="#000000" d="M1450,-122.2843C1450,-143.3211 1450,-175 1450,-175 1450,-175 769.8701,-175 769.8701,-175"/>
<polygon fill="#000000" stroke="#000000" points="769.8701,-171.5001 759.8701,-175 769.87,-178.5001 769.8701,-171.5001"/>
</g>
<!-- CommentItemComponent -->
<g id="node2" class="node">
<title>CommentItemComponent</title>
<polygon fill="#ffffb3" stroke="#000000" points="1329.2119,-122 1166.7881,-122 1166.7881,-86 1329.2119,-86 1329.2119,-122"/>
<text text-anchor="middle" x="1248" y="-99.8" font-family="Times,serif" font-size="14.00" fill="#000000">CommentItemComponent</text>
</g>
<!-- CommentItemComponent&#45;&gt;HmctsAnnotationUiModule -->
<g id="edge2" class="edge">
<title>CommentItemComponent&#45;&gt;HmctsAnnotationUiModule</title>
<path fill="none" stroke="#000000" d="M1248,-122.1061C1248,-141.3391 1248,-169 1248,-169 1248,-169 769.7059,-169 769.7059,-169"/>
<polygon fill="#000000" stroke="#000000" points="769.7059,-165.5001 759.7059,-169 769.7058,-172.5001 769.7059,-165.5001"/>
</g>
<!-- CommentsComponent -->
<g id="node3" class="node">
<title>CommentsComponent</title>
<polygon fill="#ffffb3" stroke="#000000" points="1149,-122 1007,-122 1007,-86 1149,-86 1149,-122"/>
<text text-anchor="middle" x="1078" y="-99.8" font-family="Times,serif" font-size="14.00" fill="#000000">CommentsComponent</text>
</g>
<!-- CommentsComponent&#45;&gt;HmctsAnnotationUiModule -->
<g id="edge3" class="edge">
<title>CommentsComponent&#45;&gt;HmctsAnnotationUiModule</title>
<path fill="none" stroke="#000000" d="M1038.1156,-122.0225C1038.1156,-139.3734 1038.1156,-163 1038.1156,-163 1038.1156,-163 769.9904,-163 769.9904,-163"/>
<polygon fill="#000000" stroke="#000000" points="769.9904,-159.5001 759.9904,-163 769.9904,-166.5001 769.9904,-159.5001"/>
</g>
<!-- ContextualToolbarComponent -->
<g id="node4" class="node">
<title>ContextualToolbarComponent</title>
<polygon fill="#ffffb3" stroke="#000000" points="988.5884,-122 801.4116,-122 801.4116,-86 988.5884,-86 988.5884,-122"/>
<text text-anchor="middle" x="895" y="-99.8" font-family="Times,serif" font-size="14.00" fill="#000000">ContextualToolbarComponent</text>
</g>
<!-- ContextualToolbarComponent&#45;&gt;HmctsAnnotationUiModule -->
<g id="edge4" class="edge">
<title>ContextualToolbarComponent&#45;&gt;HmctsAnnotationUiModule</title>
<path fill="none" stroke="#000000" d="M822.1559,-122.2396C822.1559,-137.5706 822.1559,-157 822.1559,-157 822.1559,-157 769.7646,-157 769.7646,-157"/>
<polygon fill="#000000" stroke="#000000" points="769.7646,-153.5001 759.7646,-157 769.7645,-160.5001 769.7646,-153.5001"/>
</g>
<!-- AnnotationPdfViewerComponent  -->
<g id="node6" class="node">
<title>AnnotationPdfViewerComponent </title>
<polygon fill="#fb8072" stroke="#000000" points="1069.4627,-252 860.5373,-252 860.5373,-216 1069.4627,-216 1069.4627,-252"/>
<text text-anchor="middle" x="965" y="-229.8" font-family="Times,serif" font-size="14.00" fill="#000000">AnnotationPdfViewerComponent </text>
</g>
<!-- HmctsAnnotationUiModule&#45;&gt;AnnotationPdfViewerComponent  -->
<g id="edge5" class="edge">
<title>HmctsAnnotationUiModule&#45;&gt;AnnotationPdfViewerComponent </title>
<path fill="none" stroke="#000000" stroke-dasharray="5,2" d="M759.6059,-181C832.4012,-181 924.6566,-181 924.6566,-181 924.6566,-181 924.6566,-205.7604 924.6566,-205.7604"/>
<polygon fill="#000000" stroke="#000000" points="921.1566,-205.7604 924.6566,-215.7604 928.1566,-205.7604 921.1566,-205.7604"/>
</g>
<!-- CommentItemComponent  -->
<g id="node7" class="node">
<title>CommentItemComponent </title>
<polygon fill="#fb8072" stroke="#000000" points="842.7121,-252 677.2879,-252 677.2879,-216 842.7121,-216 842.7121,-252"/>
<text text-anchor="middle" x="760" y="-229.8" font-family="Times,serif" font-size="14.00" fill="#000000">CommentItemComponent </text>
</g>
<!-- HmctsAnnotationUiModule&#45;&gt;CommentItemComponent  -->
<g id="edge6" class="edge">
<title>HmctsAnnotationUiModule&#45;&gt;CommentItemComponent </title>
<path fill="none" stroke="#000000" stroke-dasharray="5,2" d="M718.3438,-187.1061C718.3438,-187.1061 718.3438,-205.991 718.3438,-205.991"/>
<polygon fill="#000000" stroke="#000000" points="714.8439,-205.9909 718.3438,-215.991 721.8439,-205.991 714.8439,-205.9909"/>
</g>
<!-- CommentsComponent  -->
<g id="node8" class="node">
<title>CommentsComponent </title>
<polygon fill="#fb8072" stroke="#000000" points="659.0009,-252 512.9991,-252 512.9991,-216 659.0009,-216 659.0009,-252"/>
<text text-anchor="middle" x="586" y="-229.8" font-family="Times,serif" font-size="14.00" fill="#000000">CommentsComponent </text>
</g>
<!-- HmctsAnnotationUiModule&#45;&gt;CommentsComponent  -->
<g id="edge7" class="edge">
<title>HmctsAnnotationUiModule&#45;&gt;CommentsComponent </title>
<path fill="none" stroke="#000000" stroke-dasharray="5,2" d="M622.6033,-187.1061C622.6033,-187.1061 622.6033,-205.991 622.6033,-205.991"/>
<polygon fill="#000000" stroke="#000000" points="619.1033,-205.9909 622.6033,-215.991 626.1033,-205.991 619.1033,-205.9909"/>
</g>
<!-- ContextualToolbarComponent  -->
<g id="node9" class="node">
<title>ContextualToolbarComponent </title>
<polygon fill="#fb8072" stroke="#000000" points="495.0888,-252 304.9112,-252 304.9112,-216 495.0888,-216 495.0888,-252"/>
<text text-anchor="middle" x="400" y="-229.8" font-family="Times,serif" font-size="14.00" fill="#000000">ContextualToolbarComponent </text>
</g>
<!-- HmctsAnnotationUiModule&#45;&gt;ContextualToolbarComponent  -->
<g id="edge8" class="edge">
<title>HmctsAnnotationUiModule&#45;&gt;ContextualToolbarComponent </title>
<path fill="none" stroke="#000000" stroke-dasharray="5,2" d="M586.2209,-181C524.2577,-181 451.8258,-181 451.8258,-181 451.8258,-181 451.8258,-205.7604 451.8258,-205.7604"/>
<polygon fill="#000000" stroke="#000000" points="448.3259,-205.7604 451.8258,-215.7604 455.3259,-205.7604 448.3259,-205.7604"/>
</g>
<!-- AnnotationStoreService -->
<g id="node10" class="node">
<title>AnnotationStoreService</title>
<ellipse fill="#fdb462" stroke="#000000" cx="673" cy="-104" rx="103.6508" ry="18"/>
<text text-anchor="middle" x="673" y="-99.8" font-family="Times,serif" font-size="14.00" fill="#000000">AnnotationStoreService</text>
</g>
<!-- AnnotationStoreService&#45;&gt;HmctsAnnotationUiModule -->
<g id="edge9" class="edge">
<title>AnnotationStoreService&#45;&gt;HmctsAnnotationUiModule</title>
<path fill="none" stroke="#000000" d="M673,-122.1061C673,-122.1061 673,-140.991 673,-140.991"/>
<polygon fill="#000000" stroke="#000000" points="669.5001,-140.9909 673,-150.991 676.5001,-140.991 669.5001,-140.9909"/>
</g>
<!-- ApiHttpService -->
<g id="node11" class="node">
<title>ApiHttpService</title>
<ellipse fill="#fdb462" stroke="#000000" cx="480" cy="-104" rx="71.7853" ry="18"/>
<text text-anchor="middle" x="480" y="-99.8" font-family="Times,serif" font-size="14.00" fill="#000000">ApiHttpService</text>
</g>
<!-- ApiHttpService&#45;&gt;HmctsAnnotationUiModule -->
<g id="edge10" class="edge">
<title>ApiHttpService&#45;&gt;HmctsAnnotationUiModule</title>
<path fill="none" stroke="#000000" d="M532.4463,-116.2925C532.4463,-131.9492 532.4463,-157 532.4463,-157 532.4463,-157 576.386,-157 576.386,-157"/>
<polygon fill="#000000" stroke="#000000" points="576.3861,-160.5001 586.386,-157 576.386,-153.5001 576.3861,-160.5001"/>
</g>
<!-- NpaService -->
<g id="node12" class="node">
<title>NpaService</title>
<ellipse fill="#fdb462" stroke="#000000" cx="334" cy="-104" rx="56.157" ry="18"/>
<text text-anchor="middle" x="334" y="-99.8" font-family="Times,serif" font-size="14.00" fill="#000000">NpaService</text>
</g>
<!-- NpaService&#45;&gt;HmctsAnnotationUiModule -->
<g id="edge11" class="edge">
<title>NpaService&#45;&gt;HmctsAnnotationUiModule</title>
<path fill="none" stroke="#000000" d="M347.3921,-121.7019C347.3921,-139.0808 347.3921,-163 347.3921,-163 347.3921,-163 576.1708,-163 576.1708,-163"/>
<polygon fill="#000000" stroke="#000000" points="576.1708,-166.5001 586.1708,-163 576.1708,-159.5001 576.1708,-166.5001"/>
</g>
<!-- PdfAdapter -->
<g id="node13" class="node">
<title>PdfAdapter</title>
<ellipse fill="#fdb462" stroke="#000000" cx="204" cy="-104" rx="55.5966" ry="18"/>
<text text-anchor="middle" x="204" y="-99.8" font-family="Times,serif" font-size="14.00" fill="#000000">PdfAdapter</text>
</g>
<!-- PdfAdapter&#45;&gt;HmctsAnnotationUiModule -->
<g id="edge12" class="edge">
<title>PdfAdapter&#45;&gt;HmctsAnnotationUiModule</title>
<path fill="none" stroke="#000000" d="M204,-122.1061C204,-141.3391 204,-169 204,-169 204,-169 576.4316,-169 576.4316,-169"/>
<polygon fill="#000000" stroke="#000000" points="576.4316,-172.5001 586.4316,-169 576.4316,-165.5001 576.4316,-172.5001"/>
</g>
<!-- PdfService -->
<g id="node14" class="node">
<title>PdfService</title>
<ellipse fill="#fdb462" stroke="#000000" cx="77" cy="-104" rx="53.3071" ry="18"/>
<text text-anchor="middle" x="77" y="-99.8" font-family="Times,serif" font-size="14.00" fill="#000000">PdfService</text>
</g>
<!-- PdfService&#45;&gt;HmctsAnnotationUiModule -->
<g id="edge13" class="edge">
<title>PdfService&#45;&gt;HmctsAnnotationUiModule</title>
<path fill="none" stroke="#000000" d="M77,-122.2843C77,-143.3211 77,-175 77,-175 77,-175 576.3365,-175 576.3365,-175"/>
<polygon fill="#000000" stroke="#000000" points="576.3365,-178.5001 586.3365,-175 576.3364,-171.5001 576.3365,-178.5001"/>
</g>
</g>
</svg>
