<?xml version="1.0" encoding="UTF-8" standalone="no"?>
<!DOCTYPE svg PUBLIC "-//W3C//DTD SVG 1.1//EN"
 "http://www.w3.org/Graphics/SVG/1.1/DTD/svg11.dtd">
<!-- Generated by graphviz version 2.40.1 (20161225.0304)
 -->
<!-- Title: dependencies Pages: 1 -->
<svg width="5375pt" height="211pt"
 viewBox="0.00 0.00 5375.00 211.00" xmlns="http://www.w3.org/2000/svg" xmlns:xlink="http://www.w3.org/1999/xlink">
<g id="graph0" class="graph" transform="scale(1 1) rotate(0) translate(4 207)">
<title>dependencies</title>
<polygon fill="#ffffff" stroke="transparent" points="-4,4 -4,-207 5371,-207 5371,4 -4,4"/>
<text text-anchor="start" x="2662.5091" y="-42.4" font-family="sans-serif" font-weight="bold" font-size="14.00" fill="#000000">Legend</text>
<polygon fill="#ffffb3" stroke="transparent" points="2449.5,-10 2449.5,-30 2469.5,-30 2469.5,-10 2449.5,-10"/>
<text text-anchor="start" x="2473.129" y="-15.4" font-family="sans-serif" font-size="14.00" fill="#000000"> &#160;Declarations</text>
<polygon fill="#8dd3c7" stroke="transparent" points="2562.5,-10 2562.5,-30 2582.5,-30 2582.5,-10 2562.5,-10"/>
<text text-anchor="start" x="2586.2251" y="-15.4" font-family="sans-serif" font-size="14.00" fill="#000000"> &#160;Module</text>
<polygon fill="#80b1d3" stroke="transparent" points="2648.5,-10 2648.5,-30 2668.5,-30 2668.5,-10 2648.5,-10"/>
<text text-anchor="start" x="2672.2812" y="-15.4" font-family="sans-serif" font-size="14.00" fill="#000000"> &#160;Bootstrap</text>
<polygon fill="#fdb462" stroke="transparent" points="2745.5,-10 2745.5,-30 2765.5,-30 2765.5,-10 2745.5,-10"/>
<text text-anchor="start" x="2769.1732" y="-15.4" font-family="sans-serif" font-size="14.00" fill="#000000"> &#160;Providers</text>
<polygon fill="#fb8072" stroke="transparent" points="2841.5,-10 2841.5,-30 2861.5,-30 2861.5,-10 2841.5,-10"/>
<text text-anchor="start" x="2865.2258" y="-15.4" font-family="sans-serif" font-size="14.00" fill="#000000"> &#160;Exports</text>
<g id="clust1" class="cluster">
<title>cluster_RoutingModule</title>
<polygon fill="none" stroke="#000000" stroke-dasharray="1,5" points="8,-70 8,-195 5359,-195 5359,-70 8,-70"/>
</g>
<g id="clust2" class="cluster">
<title>cluster_RoutingModule_declarations</title>
<polygon fill="none" stroke="#000000" points="818,-78 818,-130 5351,-130 5351,-78 818,-78"/>
</g>
<g id="clust27" class="cluster">
<title>cluster_RoutingModule_imports</title>
<polygon fill="none" stroke="#000000" points="210,-78 210,-130 810,-130 810,-78 210,-78"/>
</g>
<g id="clust30" class="cluster">
<title>cluster_RoutingModule_providers</title>
<polygon fill="none" stroke="#000000" points="16,-78 16,-130 202,-130 202,-78 16,-78"/>
</g>
<!-- CheckDecisionComponent -->
<g id="node1" class="node">
<title>CheckDecisionComponent</title>
<polygon fill="#ffffb3" stroke="#000000" points="5343.3599,-122 5176.6401,-122 5176.6401,-86 5343.3599,-86 5343.3599,-122"/>
<text text-anchor="middle" x="5260" y="-99.8" font-family="Times,serif" font-size="14.00" fill="#000000">CheckDecisionComponent</text>
</g>
<!-- RoutingModule -->
<g id="node25" class="node">
<title>RoutingModule</title>
<polygon fill="#8dd3c7" stroke="#000000" points="2619.1681,-187 2616.1681,-191 2595.1681,-191 2592.1681,-187 2514.8319,-187 2514.8319,-151 2619.1681,-151 2619.1681,-187"/>
<text text-anchor="middle" x="2567" y="-164.8" font-family="Times,serif" font-size="14.00" fill="#000000">RoutingModule</text>
</g>
<!-- CheckDecisionComponent&#45;&gt;RoutingModule -->
<g id="edge1" class="edge">
<title>CheckDecisionComponent&#45;&gt;RoutingModule</title>
<path fill="none" stroke="#000000" d="M5260,-122.3802C5260,-146.2785 5260,-185 5260,-185 5260,-185 2629.2863,-185 2629.2863,-185"/>
<polygon fill="#000000" stroke="#000000" points="2629.2864,-181.5001 2619.2863,-185 2629.2863,-188.5001 2629.2864,-181.5001"/>
</g>
<!-- CheckHearingComponent -->
<g id="node2" class="node">
<title>CheckHearingComponent</title>
<polygon fill="#ffffb3" stroke="#000000" points="5158.1853,-122 4995.8147,-122 4995.8147,-86 5158.1853,-86 5158.1853,-122"/>
<text text-anchor="middle" x="5077" y="-99.8" font-family="Times,serif" font-size="14.00" fill="#000000">CheckHearingComponent</text>
</g>
<!-- CheckHearingComponent&#45;&gt;RoutingModule -->
<g id="edge2" class="edge">
<title>CheckHearingComponent&#45;&gt;RoutingModule</title>
<path fill="none" stroke="#000000" d="M5077,-122.3228C5077,-145.6602 5077,-183 5077,-183 5077,-183 2629.4249,-183 2629.4249,-183"/>
<polygon fill="#000000" stroke="#000000" points="2629.425,-179.5001 2619.4249,-183 2629.4249,-186.5001 2629.425,-179.5001"/>
</g>
<!-- CheckYourAnswersComponent -->
<g id="node3" class="node">
<title>CheckYourAnswersComponent</title>
<polygon fill="#ffffb3" stroke="#000000" points="4977.3431,-122 4782.6569,-122 4782.6569,-86 4977.3431,-86 4977.3431,-122"/>
<text text-anchor="middle" x="4880" y="-99.8" font-family="Times,serif" font-size="14.00" fill="#000000">CheckYourAnswersComponent</text>
</g>
<!-- CheckYourAnswersComponent&#45;&gt;RoutingModule -->
<g id="edge3" class="edge">
<title>CheckYourAnswersComponent&#45;&gt;RoutingModule</title>
<path fill="none" stroke="#000000" d="M4880,-122.0109C4880,-144.4852 4880,-180 4880,-180 4880,-180 2629.3794,-180 2629.3794,-180"/>
<polygon fill="#000000" stroke="#000000" points="2629.3794,-176.5001 2619.3794,-180 2629.3793,-183.5001 2629.3794,-176.5001"/>
</g>
<!-- ConfirmationComponent -->
<g id="node4" class="node">
<title>ConfirmationComponent</title>
<polygon fill="#ffffb3" stroke="#000000" points="4764.2674,-122 4607.7326,-122 4607.7326,-86 4764.2674,-86 4764.2674,-122"/>
<text text-anchor="middle" x="4686" y="-99.8" font-family="Times,serif" font-size="14.00" fill="#000000">ConfirmationComponent</text>
</g>
<!-- ConfirmationComponent&#45;&gt;RoutingModule -->
<g id="edge4" class="edge">
<title>ConfirmationComponent&#45;&gt;RoutingModule</title>
<path fill="none" stroke="#000000" d="M4686,-122.2921C4686,-144.2057 4686,-178 4686,-178 4686,-178 2629.3801,-178 2629.3801,-178"/>
<polygon fill="#000000" stroke="#000000" points="2629.3801,-174.5001 2619.3801,-178 2629.38,-181.5001 2629.3801,-174.5001"/>
</g>
<!-- CookiesComponent -->
<g id="node5" class="node">
<title>CookiesComponent</title>
<polygon fill="#ffffb3" stroke="#000000" points="4589.719,-122 4462.281,-122 4462.281,-86 4589.719,-86 4589.719,-122"/>
<text text-anchor="middle" x="4526" y="-99.8" font-family="Times,serif" font-size="14.00" fill="#000000">CookiesComponent</text>
</g>
<!-- CookiesComponent&#45;&gt;RoutingModule -->
<g id="edge5" class="edge">
<title>CookiesComponent&#45;&gt;RoutingModule</title>
<path fill="none" stroke="#000000" d="M4526,-122.2843C4526,-143.3211 4526,-175 4526,-175 4526,-175 2629.3985,-175 2629.3985,-175"/>
<polygon fill="#000000" stroke="#000000" points="2629.3986,-171.5001 2619.3985,-175 2629.3985,-178.5001 2629.3986,-171.5001"/>
</g>
<!-- CreateDecisionComponent -->
<g id="node6" class="node">
<title>CreateDecisionComponent</title>
<polygon fill="#ffffb3" stroke="#000000" points="4444.626,-122 4277.374,-122 4277.374,-86 4444.626,-86 4444.626,-122"/>
<text text-anchor="middle" x="4361" y="-99.8" font-family="Times,serif" font-size="14.00" fill="#000000">CreateDecisionComponent</text>
</g>
<!-- CreateDecisionComponent&#45;&gt;RoutingModule -->
<g id="edge6" class="edge">
<title>CreateDecisionComponent&#45;&gt;RoutingModule</title>
<path fill="none" stroke="#000000" d="M4361,-122.1289C4361,-142.5724 4361,-173 4361,-173 4361,-173 2629.2368,-173 2629.2368,-173"/>
<polygon fill="#000000" stroke="#000000" points="2629.2368,-169.5001 2619.2368,-173 2629.2368,-176.5001 2629.2368,-169.5001"/>
</g>
<!-- CreateHearingComponent -->
<g id="node7" class="node">
<title>CreateHearingComponent</title>
<polygon fill="#ffffb3" stroke="#000000" points="4259.451,-122 4096.549,-122 4096.549,-86 4259.451,-86 4259.451,-122"/>
<text text-anchor="middle" x="4178" y="-99.8" font-family="Times,serif" font-size="14.00" fill="#000000">CreateHearingComponent</text>
</g>
<!-- CreateHearingComponent&#45;&gt;RoutingModule -->
<g id="edge7" class="edge">
<title>CreateHearingComponent&#45;&gt;RoutingModule</title>
<path fill="none" stroke="#000000" d="M4178,-122.308C4178,-142.1455 4178,-171 4178,-171 4178,-171 2629.2297,-171 2629.2297,-171"/>
<polygon fill="#000000" stroke="#000000" points="2629.2297,-167.5001 2619.2297,-171 2629.2297,-174.5001 2629.2297,-167.5001"/>
</g>
<!-- DashboardComponent -->
<g id="node8" class="node">
<title>DashboardComponent</title>
<polygon fill="#ffffb3" stroke="#000000" points="4078.9734,-122 3937.0266,-122 3937.0266,-86 4078.9734,-86 4078.9734,-122"/>
<text text-anchor="middle" x="4008" y="-99.8" font-family="Times,serif" font-size="14.00" fill="#000000">DashboardComponent</text>
</g>
<!-- DashboardComponent&#45;&gt;RoutingModule -->
<g id="edge8" class="edge">
<title>DashboardComponent&#45;&gt;RoutingModule</title>
<path fill="none" stroke="#000000" d="M4008,-122.1686C4008,-141.0898 4008,-168 4008,-168 4008,-168 2629.5653,-168 2629.5653,-168"/>
<polygon fill="#000000" stroke="#000000" points="2629.5653,-164.5001 2619.5653,-168 2629.5653,-171.5001 2629.5653,-164.5001"/>
</g>
<!-- DecisionConfirmationComponent -->
<g id="node9" class="node">
<title>DecisionConfirmationComponent</title>
<polygon fill="#ffffb3" stroke="#000000" points="3919.0293,-122 3712.9707,-122 3712.9707,-86 3919.0293,-86 3919.0293,-122"/>
<text text-anchor="middle" x="3816" y="-99.8" font-family="Times,serif" font-size="14.00" fill="#000000">DecisionConfirmationComponent</text>
</g>
<!-- DecisionConfirmationComponent&#45;&gt;RoutingModule -->
<g id="edge9" class="edge">
<title>DecisionConfirmationComponent&#45;&gt;RoutingModule</title>
<path fill="none" stroke="#000000" d="M3816,-122.2667C3816,-140.5552 3816,-166 3816,-166 3816,-166 2629.4733,-166 2629.4733,-166"/>
<polygon fill="#000000" stroke="#000000" points="2629.4734,-162.5001 2619.4733,-166 2629.4733,-169.5001 2629.4734,-162.5001"/>
</g>
<!-- DecisionRootComponent -->
<g id="node10" class="node">
<title>DecisionRootComponent</title>
<polygon fill="#ffffb3" stroke="#000000" points="3695.3215,-122 3536.6785,-122 3536.6785,-86 3695.3215,-86 3695.3215,-122"/>
<text text-anchor="middle" x="3616" y="-99.8" font-family="Times,serif" font-size="14.00" fill="#000000">DecisionRootComponent</text>
</g>
<!-- DecisionRootComponent&#45;&gt;RoutingModule -->
<g id="edge10" class="edge">
<title>DecisionRootComponent&#45;&gt;RoutingModule</title>
<path fill="none" stroke="#000000" d="M3616,-122.0225C3616,-139.3734 3616,-163 3616,-163 3616,-163 2629.379,-163 2629.379,-163"/>
<polygon fill="#000000" stroke="#000000" points="2629.379,-159.5001 2619.379,-163 2629.3789,-166.5001 2629.379,-159.5001"/>
</g>
<!-- DemoComponent -->
<g id="node11" class="node">
<title>DemoComponent</title>
<polygon fill="#ffffb3" stroke="#000000" points="3518.5451,-122 3403.4549,-122 3403.4549,-86 3518.5451,-86 3518.5451,-122"/>
<text text-anchor="middle" x="3461" y="-99.8" font-family="Times,serif" font-size="14.00" fill="#000000">DemoComponent</text>
</g>
<!-- DemoComponent&#45;&gt;RoutingModule -->
<g id="edge11" class="edge">
<title>DemoComponent&#45;&gt;RoutingModule</title>
<path fill="none" stroke="#000000" d="M3461,-122.0352C3461,-138.7344 3461,-161 3461,-161 3461,-161 2629.2573,-161 2629.2573,-161"/>
<polygon fill="#000000" stroke="#000000" points="2629.2574,-157.5001 2619.2573,-161 2629.2573,-164.5001 2629.2574,-157.5001"/>
</g>
<!-- DraftConsentOrderComponent -->
<g id="node12" class="node">
<title>DraftConsentOrderComponent</title>
<polygon fill="#ffffb3" stroke="#000000" points="3385.8946,-122 3196.1054,-122 3196.1054,-86 3385.8946,-86 3385.8946,-122"/>
<text text-anchor="middle" x="3291" y="-99.8" font-family="Times,serif" font-size="14.00" fill="#000000">DraftConsentOrderComponent</text>
</g>
<!-- DraftConsentOrderComponent&#45;&gt;RoutingModule -->
<g id="edge12" class="edge">
<title>DraftConsentOrderComponent&#45;&gt;RoutingModule</title>
<path fill="none" stroke="#000000" d="M3291,-122.0091C3291,-138.0494 3291,-159 3291,-159 3291,-159 2629.3595,-159 2629.3595,-159"/>
<polygon fill="#000000" stroke="#000000" points="2629.3596,-155.5001 2619.3595,-159 2629.3595,-162.5001 2629.3596,-155.5001"/>
</g>
<!-- ErrorServiceUnavailableComponent -->
<g id="node13" class="node">
<title>ErrorServiceUnavailableComponent</title>
<polygon fill="#ffffb3" stroke="#000000" points="3178.4817,-122 2957.5183,-122 2957.5183,-86 3178.4817,-86 3178.4817,-122"/>
<text text-anchor="middle" x="3068" y="-99.8" font-family="Times,serif" font-size="14.00" fill="#000000">ErrorServiceUnavailableComponent</text>
</g>
<!-- ErrorServiceUnavailableComponent&#45;&gt;RoutingModule -->
<g id="edge13" class="edge">
<title>ErrorServiceUnavailableComponent&#45;&gt;RoutingModule</title>
<path fill="none" stroke="#000000" d="M3068,-122.1871C3068,-137.1824 3068,-156 3068,-156 3068,-156 2629.198,-156 2629.198,-156"/>
<polygon fill="#000000" stroke="#000000" points="2629.198,-152.5001 2619.198,-156 2629.1979,-159.5001 2629.198,-152.5001"/>
</g>
<!-- GenericPageComponent -->
<g id="node14" class="node">
<title>GenericPageComponent</title>
<polygon fill="#ffffb3" stroke="#000000" points="2939.3459,-122 2786.6541,-122 2786.6541,-86 2939.3459,-86 2939.3459,-122"/>
<text text-anchor="middle" x="2863" y="-99.8" font-family="Times,serif" font-size="14.00" fill="#000000">GenericPageComponent</text>
</g>
<!-- GenericPageComponent&#45;&gt;RoutingModule -->
<g id="edge14" class="edge">
<title>GenericPageComponent&#45;&gt;RoutingModule</title>
<path fill="none" stroke="#000000" d="M2863,-122.0511C2863,-136.373 2863,-154 2863,-154 2863,-154 2629.2375,-154 2629.2375,-154"/>
<polygon fill="#000000" stroke="#000000" points="2629.2375,-150.5001 2619.2375,-154 2629.2375,-157.5001 2629.2375,-150.5001"/>
</g>
<!-- HearingConfirmationComponent -->
<g id="node15" class="node">
<title>HearingConfirmationComponent</title>
<polygon fill="#ffffb3" stroke="#000000" points="2768.8543,-122 2567.1457,-122 2567.1457,-86 2768.8543,-86 2768.8543,-122"/>
<text text-anchor="middle" x="2668" y="-99.8" font-family="Times,serif" font-size="14.00" fill="#000000">HearingConfirmationComponent</text>
</g>
<!-- HearingConfirmationComponent&#45;&gt;RoutingModule -->
<g id="edge15" class="edge">
<title>HearingConfirmationComponent&#45;&gt;RoutingModule</title>
<path fill="none" stroke="#000000" d="M2593.2033,-122.1061C2593.2033,-122.1061 2593.2033,-140.991 2593.2033,-140.991"/>
<polygon fill="#000000" stroke="#000000" points="2589.7034,-140.9909 2593.2033,-150.991 2596.7034,-140.991 2589.7034,-140.9909"/>
</g>
<!-- HearingDetailsComponent -->
<g id="node16" class="node">
<title>HearingDetailsComponent</title>
<polygon fill="#ffffb3" stroke="#000000" points="2549.0716,-122 2382.9284,-122 2382.9284,-86 2549.0716,-86 2549.0716,-122"/>
<text text-anchor="middle" x="2466" y="-99.8" font-family="Times,serif" font-size="14.00" fill="#000000">HearingDetailsComponent</text>
</g>
<!-- HearingDetailsComponent&#45;&gt;RoutingModule -->
<g id="edge16" class="edge">
<title>HearingDetailsComponent&#45;&gt;RoutingModule</title>
<path fill="none" stroke="#000000" d="M2531.851,-122.1061C2531.851,-122.1061 2531.851,-140.991 2531.851,-140.991"/>
<polygon fill="#000000" stroke="#000000" points="2528.3511,-140.9909 2531.851,-150.991 2535.3511,-140.991 2528.3511,-140.9909"/>
</g>
<!-- HearingRootComponent -->
<g id="node17" class="node">
<title>HearingRootComponent</title>
<polygon fill="#ffffb3" stroke="#000000" points="2364.647,-122 2211.353,-122 2211.353,-86 2364.647,-86 2364.647,-122"/>
<text text-anchor="middle" x="2288" y="-99.8" font-family="Times,serif" font-size="14.00" fill="#000000">HearingRootComponent</text>
</g>
<!-- HearingRootComponent&#45;&gt;RoutingModule -->
<g id="edge17" class="edge">
<title>HearingRootComponent&#45;&gt;RoutingModule</title>
<path fill="none" stroke="#000000" d="M2288,-122.0511C2288,-136.373 2288,-154 2288,-154 2288,-154 2504.5222,-154 2504.5222,-154"/>
<polygon fill="#000000" stroke="#000000" points="2504.5223,-157.5001 2514.5222,-154 2504.5222,-150.5001 2504.5223,-157.5001"/>
</g>
<!-- MakeDecisionComponent -->
<g id="node18" class="node">
<title>MakeDecisionComponent</title>
<polygon fill="#ffffb3" stroke="#000000" points="2193.4678,-122 2030.5322,-122 2030.5322,-86 2193.4678,-86 2193.4678,-122"/>
<text text-anchor="middle" x="2112" y="-99.8" font-family="Times,serif" font-size="14.00" fill="#000000">MakeDecisionComponent</text>
</g>
<!-- MakeDecisionComponent&#45;&gt;RoutingModule -->
<g id="edge18" class="edge">
<title>MakeDecisionComponent&#45;&gt;RoutingModule</title>
<path fill="none" stroke="#000000" d="M2112,-122.1871C2112,-137.1824 2112,-156 2112,-156 2112,-156 2504.8057,-156 2504.8057,-156"/>
<polygon fill="#000000" stroke="#000000" points="2504.8057,-159.5001 2514.8057,-156 2504.8057,-152.5001 2504.8057,-159.5001"/>
</g>
<!-- NotesForCourtAdministratorComponent -->
<g id="node19" class="node">
<title>NotesForCourtAdministratorComponent</title>
<polygon fill="#ffffb3" stroke="#000000" points="2012.8598,-122 1769.1402,-122 1769.1402,-86 2012.8598,-86 2012.8598,-122"/>
<text text-anchor="middle" x="1891" y="-99.8" font-family="Times,serif" font-size="14.00" fill="#000000">NotesForCourtAdministratorComponent</text>
</g>
<!-- NotesForCourtAdministratorComponent&#45;&gt;RoutingModule -->
<g id="edge19" class="edge">
<title>NotesForCourtAdministratorComponent&#45;&gt;RoutingModule</title>
<path fill="none" stroke="#000000" d="M1891,-122.0091C1891,-138.0494 1891,-159 1891,-159 1891,-159 2504.7982,-159 2504.7982,-159"/>
<polygon fill="#000000" stroke="#000000" points="2504.7983,-162.5001 2514.7982,-159 2504.7982,-155.5001 2504.7983,-162.5001"/>
</g>
<!-- PrivacyPolicyComponent -->
<g id="node20" class="node">
<title>PrivacyPolicyComponent</title>
<polygon fill="#ffffb3" stroke="#000000" points="1750.8738,-122 1591.1262,-122 1591.1262,-86 1750.8738,-86 1750.8738,-122"/>
<text text-anchor="middle" x="1671" y="-99.8" font-family="Times,serif" font-size="14.00" fill="#000000">PrivacyPolicyComponent</text>
</g>
<!-- PrivacyPolicyComponent&#45;&gt;RoutingModule -->
<g id="edge20" class="edge">
<title>PrivacyPolicyComponent&#45;&gt;RoutingModule</title>
<path fill="none" stroke="#000000" d="M1671,-122.0352C1671,-138.7344 1671,-161 1671,-161 1671,-161 2504.6258,-161 2504.6258,-161"/>
<polygon fill="#000000" stroke="#000000" points="2504.6258,-164.5001 2514.6258,-161 2504.6257,-157.5001 2504.6258,-164.5001"/>
</g>
<!-- ReasonsCoNotApprovedComponent -->
<g id="node21" class="node">
<title>ReasonsCoNotApprovedComponent</title>
<polygon fill="#ffffb3" stroke="#000000" points="1572.8032,-122 1351.1968,-122 1351.1968,-86 1572.8032,-86 1572.8032,-122"/>
<text text-anchor="middle" x="1462" y="-99.8" font-family="Times,serif" font-size="14.00" fill="#000000">ReasonsCoNotApprovedComponent</text>
</g>
<!-- ReasonsCoNotApprovedComponent&#45;&gt;RoutingModule -->
<g id="edge21" class="edge">
<title>ReasonsCoNotApprovedComponent&#45;&gt;RoutingModule</title>
<path fill="none" stroke="#000000" d="M1462,-122.0225C1462,-139.3734 1462,-163 1462,-163 1462,-163 2504.8169,-163 2504.8169,-163"/>
<polygon fill="#000000" stroke="#000000" points="2504.8169,-166.5001 2514.8169,-163 2504.8168,-159.5001 2504.8169,-166.5001"/>
</g>
<!-- TaskListComponent -->
<g id="node22" class="node">
<title>TaskListComponent</title>
<polygon fill="#ffffb3" stroke="#000000" points="1333.323,-122 1202.677,-122 1202.677,-86 1333.323,-86 1333.323,-122"/>
<text text-anchor="middle" x="1268" y="-99.8" font-family="Times,serif" font-size="14.00" fill="#000000">TaskListComponent</text>
</g>
<!-- TaskListComponent&#45;&gt;RoutingModule -->
<g id="edge22" class="edge">
<title>TaskListComponent&#45;&gt;RoutingModule</title>
<path fill="none" stroke="#000000" d="M1268,-122.2667C1268,-140.5552 1268,-166 1268,-166 1268,-166 2504.4688,-166 2504.4688,-166"/>
<polygon fill="#000000" stroke="#000000" points="2504.4688,-169.5001 2514.4688,-166 2504.4688,-162.5001 2504.4688,-169.5001"/>
</g>
<!-- TermsAndConditionsComponent -->
<g id="node23" class="node">
<title>TermsAndConditionsComponent</title>
<polygon fill="#ffffb3" stroke="#000000" points="1185.1553,-122 982.8447,-122 982.8447,-86 1185.1553,-86 1185.1553,-122"/>
<text text-anchor="middle" x="1084" y="-99.8" font-family="Times,serif" font-size="14.00" fill="#000000">TermsAndConditionsComponent</text>
</g>
<!-- TermsAndConditionsComponent&#45;&gt;RoutingModule -->
<g id="edge23" class="edge">
<title>TermsAndConditionsComponent&#45;&gt;RoutingModule</title>
<path fill="none" stroke="#000000" d="M1084,-122.1686C1084,-141.0898 1084,-168 1084,-168 1084,-168 2504.6548,-168 2504.6548,-168"/>
<polygon fill="#000000" stroke="#000000" points="2504.6549,-171.5001 2514.6548,-168 2504.6548,-164.5001 2504.6549,-171.5001"/>
</g>
<!-- ViewCaseComponent -->
<g id="node24" class="node">
<title>ViewCaseComponent</title>
<polygon fill="#ffffb3" stroke="#000000" points="964.3613,-122 825.6387,-122 825.6387,-86 964.3613,-86 964.3613,-122"/>
<text text-anchor="middle" x="895" y="-99.8" font-family="Times,serif" font-size="14.00" fill="#000000">ViewCaseComponent</text>
</g>
<!-- ViewCaseComponent&#45;&gt;RoutingModule -->
<g id="edge24" class="edge">
<title>ViewCaseComponent&#45;&gt;RoutingModule</title>
<path fill="none" stroke="#000000" d="M895,-122.308C895,-142.1455 895,-171 895,-171 895,-171 2504.6638,-171 2504.6638,-171"/>
<polygon fill="#000000" stroke="#000000" points="2504.6639,-174.5001 2514.6638,-171 2504.6638,-167.5001 2504.6639,-174.5001"/>
</g>
<!-- DomainModule -->
<g id="node26" class="node">
<title>DomainModule</title>
<polygon fill="#8dd3c7" stroke="#000000" points="802.1528,-122 799.1528,-126 778.1528,-126 775.1528,-122 697.8472,-122 697.8472,-86 802.1528,-86 802.1528,-122"/>
<text text-anchor="middle" x="750" y="-99.8" font-family="Times,serif" font-size="14.00" fill="#000000">DomainModule</text>
</g>
<!-- DomainModule&#45;&gt;RoutingModule -->
<g id="edge25" class="edge">
<title>DomainModule&#45;&gt;RoutingModule</title>
<path fill="none" stroke="#000000" d="M750,-122.1289C750,-142.5724 750,-173 750,-173 750,-173 2504.5803,-173 2504.5803,-173"/>
<polygon fill="#000000" stroke="#000000" points="2504.5803,-176.5001 2514.5803,-173 2504.5802,-169.5001 2504.5803,-176.5001"/>
</g>
<!-- GovukModule -->
<g id="node27" class="node">
<title>GovukModule</title>
<polygon fill="#8dd3c7" stroke="#000000" points="679.657,-122 676.657,-126 655.657,-126 652.657,-122 582.343,-122 582.343,-86 679.657,-86 679.657,-122"/>
<text text-anchor="middle" x="631" y="-99.8" font-family="Times,serif" font-size="14.00" fill="#000000">GovukModule</text>
</g>
<!-- GovukModule&#45;&gt;RoutingModule -->
<g id="edge26" class="edge">
<title>GovukModule&#45;&gt;RoutingModule</title>
<path fill="none" stroke="#000000" d="M631,-122.2843C631,-143.3211 631,-175 631,-175 631,-175 2504.7158,-175 2504.7158,-175"/>
<polygon fill="#000000" stroke="#000000" points="2504.7158,-178.5001 2514.7158,-175 2504.7157,-171.5001 2504.7158,-178.5001"/>
</g>
<!-- HmctsModule -->
<g id="node28" class="node">
<title>HmctsModule</title>
<polygon fill="#8dd3c7" stroke="#000000" points="564.0968,-122 561.0968,-126 540.0968,-126 537.0968,-122 467.9032,-122 467.9032,-86 564.0968,-86 564.0968,-122"/>
<text text-anchor="middle" x="516" y="-99.8" font-family="Times,serif" font-size="14.00" fill="#000000">HmctsModule</text>
</g>
<!-- HmctsModule&#45;&gt;RoutingModule -->
<g id="edge27" class="edge">
<title>HmctsModule&#45;&gt;RoutingModule</title>
<path fill="none" stroke="#000000" d="M516,-122.2921C516,-144.2057 516,-178 516,-178 516,-178 2504.7586,-178 2504.7586,-178"/>
<polygon fill="#000000" stroke="#000000" points="2504.7586,-181.5001 2514.7586,-178 2504.7586,-174.5001 2504.7586,-181.5001"/>
</g>
<!-- JUIFormsModule -->
<g id="node29" class="node">
<title>JUIFormsModule</title>
<polygon fill="#8dd3c7" stroke="#000000" points="449.5409,-122 446.5409,-126 425.5409,-126 422.5409,-122 334.4591,-122 334.4591,-86 449.5409,-86 449.5409,-122"/>
<text text-anchor="middle" x="392" y="-99.8" font-family="Times,serif" font-size="14.00" fill="#000000">JUIFormsModule</text>
</g>
<!-- JUIFormsModule&#45;&gt;RoutingModule -->
<g id="edge28" class="edge">
<title>JUIFormsModule&#45;&gt;RoutingModule</title>
<path fill="none" stroke="#000000" d="M392,-122.0109C392,-144.4852 392,-180 392,-180 392,-180 2504.5812,-180 2504.5812,-180"/>
<polygon fill="#000000" stroke="#000000" points="2504.5812,-183.5001 2514.5812,-180 2504.5812,-176.5001 2504.5812,-183.5001"/>
</g>
<!-- SharedModule -->
<g id="node30" class="node">
<title>SharedModule</title>
<polygon fill="#8dd3c7" stroke="#000000" points="316.4231,-122 313.4231,-126 292.4231,-126 289.4231,-122 217.5769,-122 217.5769,-86 316.4231,-86 316.4231,-122"/>
<text text-anchor="middle" x="267" y="-99.8" font-family="Times,serif" font-size="14.00" fill="#000000">SharedModule</text>
</g>
<!-- SharedModule&#45;&gt;RoutingModule -->
<g id="edge29" class="edge">
<title>SharedModule&#45;&gt;RoutingModule</title>
<path fill="none" stroke="#000000" d="M267,-122.3228C267,-145.6602 267,-183 267,-183 267,-183 2504.6399,-183 2504.6399,-183"/>
<polygon fill="#000000" stroke="#000000" points="2504.6399,-186.5001 2514.6399,-183 2504.6398,-179.5001 2504.6399,-186.5001"/>
</g>
<!-- RedirectionService -->
<g id="node31" class="node">
<title>RedirectionService</title>
<ellipse fill="#fdb462" stroke="#000000" cx="109" cy="-104" rx="85.087" ry="18"/>
<text text-anchor="middle" x="109" y="-99.8" font-family="Times,serif" font-size="14.00" fill="#000000">RedirectionService</text>
</g>
<!-- RedirectionService&#45;&gt;RoutingModule -->
<g id="edge30" class="edge">
<title>RedirectionService&#45;&gt;RoutingModule</title>
<path fill="none" stroke="#000000" d="M109,-122.3802C109,-146.2785 109,-185 109,-185 109,-185 2504.8094,-185 2504.8094,-185"/>
<polygon fill="#000000" stroke="#000000" points="2504.8094,-188.5001 2514.8094,-185 2504.8094,-181.5001 2504.8094,-188.5001"/>
</g>
</g>
</svg>
