<?xml version="1.0" encoding="UTF-8" standalone="no"?>
<!DOCTYPE svg PUBLIC "-//W3C//DTD SVG 1.1//EN"
 "http://www.w3.org/Graphics/SVG/1.1/DTD/svg11.dtd">
<!-- Generated by graphviz version 2.40.1 (20161225.0304)
 -->
<!-- Title: dependencies Pages: 1 -->
<svg width="4395pt" height="284pt"
 viewBox="0.00 0.00 4395.00 284.00" xmlns="http://www.w3.org/2000/svg" xmlns:xlink="http://www.w3.org/1999/xlink">
<g id="graph0" class="graph" transform="scale(1 1) rotate(0) translate(4 280)">
<title>dependencies</title>
<polygon fill="#ffffff" stroke="transparent" points="-4,4 -4,-280 4391,-280 4391,4 -4,4"/>
<text text-anchor="start" x="2172.5091" y="-42.4" font-family="sans-serif" font-weight="bold" font-size="14.00" fill="#000000">Legend</text>
<polygon fill="#ffffb3" stroke="transparent" points="1959.5,-10 1959.5,-30 1979.5,-30 1979.5,-10 1959.5,-10"/>
<text text-anchor="start" x="1983.129" y="-15.4" font-family="sans-serif" font-size="14.00" fill="#000000"> &#160;Declarations</text>
<polygon fill="#8dd3c7" stroke="transparent" points="2072.5,-10 2072.5,-30 2092.5,-30 2092.5,-10 2072.5,-10"/>
<text text-anchor="start" x="2096.2251" y="-15.4" font-family="sans-serif" font-size="14.00" fill="#000000"> &#160;Module</text>
<polygon fill="#80b1d3" stroke="transparent" points="2158.5,-10 2158.5,-30 2178.5,-30 2178.5,-10 2158.5,-10"/>
<text text-anchor="start" x="2182.2812" y="-15.4" font-family="sans-serif" font-size="14.00" fill="#000000"> &#160;Bootstrap</text>
<polygon fill="#fdb462" stroke="transparent" points="2255.5,-10 2255.5,-30 2275.5,-30 2275.5,-10 2255.5,-10"/>
<text text-anchor="start" x="2279.1732" y="-15.4" font-family="sans-serif" font-size="14.00" fill="#000000"> &#160;Providers</text>
<polygon fill="#fb8072" stroke="transparent" points="2351.5,-10 2351.5,-30 2371.5,-30 2371.5,-10 2351.5,-10"/>
<text text-anchor="start" x="2375.2258" y="-15.4" font-family="sans-serif" font-size="14.00" fill="#000000"> &#160;Exports</text>
<g id="clust1" class="cluster">
<title>cluster_GovukModule</title>
<polygon fill="none" stroke="#000000" stroke-dasharray="1,5" points="8,-70 8,-268 4379,-268 4379,-70 8,-70"/>
</g>
<g id="clust2" class="cluster">
<title>cluster_GovukModule_declarations</title>
<polygon fill="none" stroke="#000000" points="55,-78 55,-130 4330,-130 4330,-78 55,-78"/>
</g>
<g id="clust27" class="cluster">
<title>cluster_GovukModule_exports</title>
<polygon fill="none" stroke="#000000" points="16,-208 16,-260 4371,-260 4371,-208 16,-208"/>
</g>
<!-- GovukBackLinkComponent -->
<g id="node1" class="node">
<title>GovukBackLinkComponent</title>
<polygon fill="#ffffb3" stroke="#000000" points="4322.1484,-122 4147.8516,-122 4147.8516,-86 4322.1484,-86 4322.1484,-122"/>
<text text-anchor="middle" x="4235" y="-99.8" font-family="Times,serif" font-size="14.00" fill="#000000">GovukBackLinkComponent</text>
</g>
<!-- GovukModule -->
<g id="node24" class="node">
<title>GovukModule</title>
<polygon fill="#8dd3c7" stroke="#000000" points="2184.657,-187 2181.657,-191 2160.657,-191 2157.657,-187 2087.343,-187 2087.343,-151 2184.657,-151 2184.657,-187"/>
<text text-anchor="middle" x="2136" y="-164.8" font-family="Times,serif" font-size="14.00" fill="#000000">GovukModule</text>
</g>
<!-- GovukBackLinkComponent&#45;&gt;GovukModule -->
<g id="edge1" class="edge">
<title>GovukBackLinkComponent&#45;&gt;GovukModule</title>
<path fill="none" stroke="#000000" d="M4157.232,-122.1061C4157.232,-141.3391 4157.232,-169 4157.232,-169 4157.232,-169 2194.9618,-169 2194.9618,-169"/>
<polygon fill="#000000" stroke="#000000" points="2194.9618,-165.5001 2184.9618,-169 2194.9618,-172.5001 2194.9618,-165.5001"/>
</g>
<!-- GovukBreadcrumbsComponent -->
<g id="node2" class="node">
<title>GovukBreadcrumbsComponent</title>
<polygon fill="#ffffb3" stroke="#000000" points="4130.0758,-122 3935.9242,-122 3935.9242,-86 4130.0758,-86 4130.0758,-122"/>
<text text-anchor="middle" x="4033" y="-99.8" font-family="Times,serif" font-size="14.00" fill="#000000">GovukBreadcrumbsComponent</text>
</g>
<!-- GovukBreadcrumbsComponent&#45;&gt;GovukModule -->
<g id="edge2" class="edge">
<title>GovukBreadcrumbsComponent&#45;&gt;GovukModule</title>
<path fill="none" stroke="#000000" d="M3943.7453,-122.2222C3943.7453,-140.8285 3943.7453,-167 3943.7453,-167 3943.7453,-167 2194.8206,-167 2194.8206,-167"/>
<polygon fill="#000000" stroke="#000000" points="2194.8206,-163.5001 2184.8206,-167 2194.8205,-170.5001 2194.8206,-163.5001"/>
</g>
<!-- GovukButtonComponent -->
<g id="node3" class="node">
<title>GovukButtonComponent</title>
<polygon fill="#ffffb3" stroke="#000000" points="3917.5574,-122 3760.4426,-122 3760.4426,-86 3917.5574,-86 3917.5574,-122"/>
<text text-anchor="middle" x="3839" y="-99.8" font-family="Times,serif" font-size="14.00" fill="#000000">GovukButtonComponent</text>
</g>
<!-- GovukButtonComponent&#45;&gt;GovukModule -->
<g id="edge3" class="edge">
<title>GovukButtonComponent&#45;&gt;GovukModule</title>
<path fill="none" stroke="#000000" d="M3766.4518,-122.2667C3766.4518,-140.5552 3766.4518,-166 3766.4518,-166 3766.4518,-166 2194.7962,-166 2194.7962,-166"/>
<polygon fill="#000000" stroke="#000000" points="2194.7962,-162.5001 2184.7962,-166 2194.7961,-169.5001 2194.7962,-162.5001"/>
</g>
<!-- GovukCheckboxesComponent -->
<g id="node4" class="node">
<title>GovukCheckboxesComponent</title>
<polygon fill="#ffffb3" stroke="#000000" points="3741.864,-122 3554.136,-122 3554.136,-86 3741.864,-86 3741.864,-122"/>
<text text-anchor="middle" x="3648" y="-99.8" font-family="Times,serif" font-size="14.00" fill="#000000">GovukCheckboxesComponent</text>
</g>
<!-- GovukCheckboxesComponent&#45;&gt;GovukModule -->
<g id="edge4" class="edge">
<title>GovukCheckboxesComponent&#45;&gt;GovukModule</title>
<path fill="none" stroke="#000000" d="M3558.7632,-122.002C3558.7632,-139.6754 3558.7632,-164 3558.7632,-164 3558.7632,-164 2194.9747,-164 2194.9747,-164"/>
<polygon fill="#000000" stroke="#000000" points="2194.9748,-160.5001 2184.9747,-164 2194.9747,-167.5001 2194.9748,-160.5001"/>
</g>
<!-- GovukDateInputComponent -->
<g id="node5" class="node">
<title>GovukDateInputComponent</title>
<polygon fill="#ffffb3" stroke="#000000" points="3535.9171,-122 3360.0829,-122 3360.0829,-86 3535.9171,-86 3535.9171,-122"/>
<text text-anchor="middle" x="3448" y="-99.8" font-family="Times,serif" font-size="14.00" fill="#000000">GovukDateInputComponent</text>
</g>
<!-- GovukDateInputComponent&#45;&gt;GovukModule -->
<g id="edge5" class="edge">
<title>GovukDateInputComponent&#45;&gt;GovukModule</title>
<path fill="none" stroke="#000000" d="M3375.4187,-122.0336C3375.4187,-139.0597 3375.4187,-162 3375.4187,-162 3375.4187,-162 2194.9684,-162 2194.9684,-162"/>
<polygon fill="#000000" stroke="#000000" points="2194.9685,-158.5001 2184.9684,-162 2194.9684,-165.5001 2194.9685,-158.5001"/>
</g>
<!-- GovukDetailsComponent -->
<g id="node6" class="node">
<title>GovukDetailsComponent</title>
<polygon fill="#ffffb3" stroke="#000000" points="3342.5912,-122 3183.4088,-122 3183.4088,-86 3342.5912,-86 3342.5912,-122"/>
<text text-anchor="middle" x="3263" y="-99.8" font-family="Times,serif" font-size="14.00" fill="#000000">GovukDetailsComponent</text>
</g>
<!-- GovukDetailsComponent&#45;&gt;GovukModule -->
<g id="edge6" class="edge">
<title>GovukDetailsComponent&#45;&gt;GovukModule</title>
<path fill="none" stroke="#000000" d="M3194.5803,-122.0352C3194.5803,-138.7344 3194.5803,-161 3194.5803,-161 3194.5803,-161 2194.9345,-161 2194.9345,-161"/>
<polygon fill="#000000" stroke="#000000" points="2194.9345,-157.5001 2184.9345,-161 2194.9344,-164.5001 2194.9345,-157.5001"/>
</g>
<!-- GovukErrorSummaryComponent -->
<g id="node7" class="node">
<title>GovukErrorSummaryComponent</title>
<polygon fill="#ffffb3" stroke="#000000" points="3165.9128,-122 2962.0872,-122 2962.0872,-86 3165.9128,-86 3165.9128,-122"/>
<text text-anchor="middle" x="3064" y="-99.8" font-family="Times,serif" font-size="14.00" fill="#000000">GovukErrorSummaryComponent</text>
</g>
<!-- GovukErrorSummaryComponent&#45;&gt;GovukModule -->
<g id="edge7" class="edge">
<title>GovukErrorSummaryComponent&#45;&gt;GovukModule</title>
<path fill="none" stroke="#000000" d="M2970.4188,-122.0091C2970.4188,-138.0494 2970.4188,-159 2970.4188,-159 2970.4188,-159 2194.7746,-159 2194.7746,-159"/>
<polygon fill="#000000" stroke="#000000" points="2194.7746,-155.5001 2184.7746,-159 2194.7746,-162.5001 2194.7746,-155.5001"/>
</g>
<!-- GovukFieldsetComponent -->
<g id="node8" class="node">
<title>GovukFieldsetComponent</title>
<polygon fill="#ffffb3" stroke="#000000" points="2943.7674,-122 2780.2326,-122 2780.2326,-86 2943.7674,-86 2943.7674,-122"/>
<text text-anchor="middle" x="2862" y="-99.8" font-family="Times,serif" font-size="14.00" fill="#000000">GovukFieldsetComponent</text>
</g>
<!-- GovukFieldsetComponent&#45;&gt;GovukModule -->
<g id="edge8" class="edge">
<title>GovukFieldsetComponent&#45;&gt;GovukModule</title>
<path fill="none" stroke="#000000" d="M2786.7414,-122.2819C2786.7414,-137.9478 2786.7414,-158 2786.7414,-158 2786.7414,-158 2194.9114,-158 2194.9114,-158"/>
<polygon fill="#000000" stroke="#000000" points="2194.9114,-154.5001 2184.9114,-158 2194.9113,-161.5001 2194.9114,-154.5001"/>
</g>
<!-- GovukFileUploadComponent -->
<g id="node9" class="node">
<title>GovukFileUploadComponent</title>
<polygon fill="#ffffb3" stroke="#000000" points="2762.4297,-122 2579.5703,-122 2579.5703,-86 2762.4297,-86 2762.4297,-122"/>
<text text-anchor="middle" x="2671" y="-99.8" font-family="Times,serif" font-size="14.00" fill="#000000">GovukFileUploadComponent</text>
</g>
<!-- GovukFileUploadComponent&#45;&gt;GovukModule -->
<g id="edge9" class="edge">
<title>GovukFileUploadComponent&#45;&gt;GovukModule</title>
<path fill="none" stroke="#000000" d="M2584.4104,-122.1871C2584.4104,-137.1824 2584.4104,-156 2584.4104,-156 2584.4104,-156 2194.8414,-156 2194.8414,-156"/>
<polygon fill="#000000" stroke="#000000" points="2194.8414,-152.5001 2184.8414,-156 2194.8413,-159.5001 2194.8414,-152.5001"/>
</g>
<!-- GovukFooterComponent -->
<g id="node10" class="node">
<title>GovukFooterComponent</title>
<polygon fill="#ffffb3" stroke="#000000" points="2561.9874,-122 2406.0126,-122 2406.0126,-86 2561.9874,-86 2561.9874,-122"/>
<text text-anchor="middle" x="2484" y="-99.8" font-family="Times,serif" font-size="14.00" fill="#000000">GovukFooterComponent</text>
</g>
<!-- GovukFooterComponent&#45;&gt;GovukModule -->
<g id="edge10" class="edge">
<title>GovukFooterComponent&#45;&gt;GovukModule</title>
<path fill="none" stroke="#000000" d="M2511.7479,-122.1243C2511.7479,-136.7832 2511.7479,-155 2511.7479,-155 2511.7479,-155 2194.7373,-155 2194.7373,-155"/>
<polygon fill="#000000" stroke="#000000" points="2194.7373,-151.5001 2184.7373,-155 2194.7372,-158.5001 2194.7373,-151.5001"/>
</g>
<!-- GovukHeaderComponent -->
<g id="node11" class="node">
<title>GovukHeaderComponent</title>
<polygon fill="#ffffb3" stroke="#000000" points="2387.8501,-122 2228.1499,-122 2228.1499,-86 2387.8501,-86 2387.8501,-122"/>
<text text-anchor="middle" x="2308" y="-99.8" font-family="Times,serif" font-size="14.00" fill="#000000">GovukHeaderComponent</text>
</g>
<!-- GovukHeaderComponent&#45;&gt;GovukModule -->
<g id="edge11" class="edge">
<title>GovukHeaderComponent&#45;&gt;GovukModule</title>
<path fill="none" stroke="#000000" d="M2335.3917,-122.2458C2335.3917,-136.1772 2335.3917,-153 2335.3917,-153 2335.3917,-153 2194.7767,-153 2194.7767,-153"/>
<polygon fill="#000000" stroke="#000000" points="2194.7767,-149.5001 2184.7767,-153 2194.7767,-156.5001 2194.7767,-149.5001"/>
</g>
<!-- GovukInputComponent -->
<g id="node12" class="node">
<title>GovukInputComponent</title>
<polygon fill="#ffffb3" stroke="#000000" points="2210.4902,-122 2061.5098,-122 2061.5098,-86 2210.4902,-86 2210.4902,-122"/>
<text text-anchor="middle" x="2136" y="-99.8" font-family="Times,serif" font-size="14.00" fill="#000000">GovukInputComponent</text>
</g>
<!-- GovukInputComponent&#45;&gt;GovukModule -->
<g id="edge12" class="edge">
<title>GovukInputComponent&#45;&gt;GovukModule</title>
<path fill="none" stroke="#000000" d="M2136,-122.1061C2136,-122.1061 2136,-140.991 2136,-140.991"/>
<polygon fill="#000000" stroke="#000000" points="2132.5001,-140.9909 2136,-150.991 2139.5001,-140.991 2132.5001,-140.9909"/>
</g>
<!-- GovukInsetTextComponent -->
<g id="node13" class="node">
<title>GovukInsetTextComponent</title>
<polygon fill="#ffffb3" stroke="#000000" points="2043.3075,-122 1870.6925,-122 1870.6925,-86 2043.3075,-86 2043.3075,-122"/>
<text text-anchor="middle" x="1957" y="-99.8" font-family="Times,serif" font-size="14.00" fill="#000000">GovukInsetTextComponent</text>
</g>
<!-- GovukInsetTextComponent&#45;&gt;GovukModule -->
<g id="edge13" class="edge">
<title>GovukInsetTextComponent&#45;&gt;GovukModule</title>
<path fill="none" stroke="#000000" d="M1984.8845,-122.2458C1984.8845,-136.1772 1984.8845,-153 1984.8845,-153 1984.8845,-153 2076.9371,-153 2076.9371,-153"/>
<polygon fill="#000000" stroke="#000000" points="2076.9372,-156.5001 2086.9371,-153 2076.9371,-149.5001 2076.9372,-156.5001"/>
</g>
<!-- GovukPanelComponent -->
<g id="node14" class="node">
<title>GovukPanelComponent</title>
<polygon fill="#ffffb3" stroke="#000000" points="1853.0421,-122 1702.9579,-122 1702.9579,-86 1853.0421,-86 1853.0421,-122"/>
<text text-anchor="middle" x="1778" y="-99.8" font-family="Times,serif" font-size="14.00" fill="#000000">GovukPanelComponent</text>
</g>
<!-- GovukPanelComponent&#45;&gt;GovukModule -->
<g id="edge14" class="edge">
<title>GovukPanelComponent&#45;&gt;GovukModule</title>
<path fill="none" stroke="#000000" d="M1799.5902,-122.1243C1799.5902,-136.7832 1799.5902,-155 1799.5902,-155 1799.5902,-155 2077.0831,-155 2077.0831,-155"/>
<polygon fill="#000000" stroke="#000000" points="2077.0832,-158.5001 2087.0831,-155 2077.0831,-151.5001 2077.0832,-158.5001"/>
</g>
<!-- GovukPhaseBannerComponent -->
<g id="node15" class="node">
<title>GovukPhaseBannerComponent</title>
<polygon fill="#ffffb3" stroke="#000000" points="1684.0224,-122 1491.9776,-122 1491.9776,-86 1684.0224,-86 1684.0224,-122"/>
<text text-anchor="middle" x="1588" y="-99.8" font-family="Times,serif" font-size="14.00" fill="#000000">GovukPhaseBannerComponent</text>
</g>
<!-- GovukPhaseBannerComponent&#45;&gt;GovukModule -->
<g id="edge15" class="edge">
<title>GovukPhaseBannerComponent&#45;&gt;GovukModule</title>
<path fill="none" stroke="#000000" d="M1680.1359,-122.1871C1680.1359,-137.1824 1680.1359,-156 1680.1359,-156 1680.1359,-156 2077.2146,-156 2077.2146,-156"/>
<polygon fill="#000000" stroke="#000000" points="2077.2146,-159.5001 2087.2146,-156 2077.2145,-152.5001 2077.2146,-159.5001"/>
</g>
<!-- GovukRadiosComponent -->
<g id="node16" class="node">
<title>GovukRadiosComponent</title>
<polygon fill="#ffffb3" stroke="#000000" points="1474.3257,-122 1315.6743,-122 1315.6743,-86 1474.3257,-86 1474.3257,-122"/>
<text text-anchor="middle" x="1395" y="-99.8" font-family="Times,serif" font-size="14.00" fill="#000000">GovukRadiosComponent</text>
</g>
<!-- GovukRadiosComponent&#45;&gt;GovukModule -->
<g id="edge16" class="edge">
<title>GovukRadiosComponent&#45;&gt;GovukModule</title>
<path fill="none" stroke="#000000" d="M1468.0377,-122.2819C1468.0377,-137.9478 1468.0377,-158 1468.0377,-158 1468.0377,-158 2077.1538,-158 2077.1538,-158"/>
<polygon fill="#000000" stroke="#000000" points="2077.1538,-161.5001 2087.1538,-158 2077.1537,-154.5001 2077.1538,-161.5001"/>
</g>
<!-- GovukSelectComponent -->
<g id="node17" class="node">
<title>GovukSelectComponent</title>
<polygon fill="#ffffb3" stroke="#000000" points="1297.647,-122 1144.353,-122 1144.353,-86 1297.647,-86 1297.647,-122"/>
<text text-anchor="middle" x="1221" y="-99.8" font-family="Times,serif" font-size="14.00" fill="#000000">GovukSelectComponent</text>
</g>
<!-- GovukSelectComponent&#45;&gt;GovukModule -->
<g id="edge17" class="edge">
<title>GovukSelectComponent&#45;&gt;GovukModule</title>
<path fill="none" stroke="#000000" d="M1290.1983,-122.0091C1290.1983,-138.0494 1290.1983,-159 1290.1983,-159 1290.1983,-159 2077.1796,-159 2077.1796,-159"/>
<polygon fill="#000000" stroke="#000000" points="2077.1797,-162.5001 2087.1796,-159 2077.1796,-155.5001 2077.1797,-162.5001"/>
</g>
<!-- GovukSkipLinkComponent -->
<g id="node18" class="node">
<title>GovukSkipLinkComponent</title>
<polygon fill="#ffffb3" stroke="#000000" points="1125.556,-122 954.444,-122 954.444,-86 1125.556,-86 1125.556,-122"/>
<text text-anchor="middle" x="1040" y="-99.8" font-family="Times,serif" font-size="14.00" fill="#000000">GovukSkipLinkComponent</text>
</g>
<!-- GovukSkipLinkComponent&#45;&gt;GovukModule -->
<g id="edge18" class="edge">
<title>GovukSkipLinkComponent&#45;&gt;GovukModule</title>
<path fill="none" stroke="#000000" d="M1116.4772,-122.0352C1116.4772,-138.7344 1116.4772,-161 1116.4772,-161 1116.4772,-161 2077.1698,-161 2077.1698,-161"/>
<polygon fill="#000000" stroke="#000000" points="2077.1698,-164.5001 2087.1698,-161 2077.1697,-157.5001 2077.1698,-164.5001"/>
</g>
<!-- GovukTableComponent -->
<g id="node19" class="node">
<title>GovukTableComponent</title>
<polygon fill="#ffffb3" stroke="#000000" points="936.8117,-122 785.1883,-122 785.1883,-86 936.8117,-86 936.8117,-122"/>
<text text-anchor="middle" x="861" y="-99.8" font-family="Times,serif" font-size="14.00" fill="#000000">GovukTableComponent</text>
</g>
<!-- GovukTableComponent&#45;&gt;GovukModule -->
<g id="edge19" class="edge">
<title>GovukTableComponent&#45;&gt;GovukModule</title>
<path fill="none" stroke="#000000" d="M923.439,-122.0336C923.439,-139.0597 923.439,-162 923.439,-162 923.439,-162 2077.3418,-162 2077.3418,-162"/>
<polygon fill="#000000" stroke="#000000" points="2077.3418,-165.5001 2087.3418,-162 2077.3418,-158.5001 2077.3418,-165.5001"/>
</g>
<!-- GovukTabsComponent -->
<g id="node20" class="node">
<title>GovukTabsComponent</title>
<polygon fill="#ffffb3" stroke="#000000" points="767.1512,-122 620.8488,-122 620.8488,-86 767.1512,-86 767.1512,-122"/>
<text text-anchor="middle" x="694" y="-99.8" font-family="Times,serif" font-size="14.00" fill="#000000">GovukTabsComponent</text>
</g>
<!-- GovukTabsComponent&#45;&gt;GovukModule -->
<g id="edge20" class="edge">
<title>GovukTabsComponent&#45;&gt;GovukModule</title>
<path fill="none" stroke="#000000" d="M763.4599,-122.002C763.4599,-139.6754 763.4599,-164 763.4599,-164 763.4599,-164 2077.1506,-164 2077.1506,-164"/>
<polygon fill="#000000" stroke="#000000" points="2077.1506,-167.5001 2087.1506,-164 2077.1505,-160.5001 2077.1506,-167.5001"/>
</g>
<!-- GovukTagComponent -->
<g id="node21" class="node">
<title>GovukTagComponent</title>
<polygon fill="#ffffb3" stroke="#000000" points="602.7064,-122 461.2936,-122 461.2936,-86 602.7064,-86 602.7064,-122"/>
<text text-anchor="middle" x="532" y="-99.8" font-family="Times,serif" font-size="14.00" fill="#000000">GovukTagComponent</text>
</g>
<!-- GovukTagComponent&#45;&gt;GovukModule -->
<g id="edge21" class="edge">
<title>GovukTagComponent&#45;&gt;GovukModule</title>
<path fill="none" stroke="#000000" d="M597.2639,-122.2667C597.2639,-140.5552 597.2639,-166 597.2639,-166 597.2639,-166 2076.9776,-166 2076.9776,-166"/>
<polygon fill="#000000" stroke="#000000" points="2076.9777,-169.5001 2086.9776,-166 2076.9776,-162.5001 2076.9777,-169.5001"/>
</g>
<!-- GovukTextareaComponent -->
<g id="node22" class="node">
<title>GovukTextareaComponent</title>
<polygon fill="#ffffb3" stroke="#000000" points="443.4017,-122 274.5983,-122 274.5983,-86 443.4017,-86 443.4017,-122"/>
<text text-anchor="middle" x="359" y="-99.8" font-family="Times,serif" font-size="14.00" fill="#000000">GovukTextareaComponent</text>
</g>
<!-- GovukTextareaComponent&#45;&gt;GovukModule -->
<g id="edge22" class="edge">
<title>GovukTextareaComponent&#45;&gt;GovukModule</title>
<path fill="none" stroke="#000000" d="M436.4238,-122.2222C436.4238,-140.8285 436.4238,-167 436.4237,-167 436.4237,-167 2076.9679,-167 2076.9679,-167"/>
<polygon fill="#000000" stroke="#000000" points="2076.9679,-170.5001 2086.9679,-167 2076.9679,-163.5001 2076.9679,-170.5001"/>
</g>
<!-- GovukWarningTextComponent -->
<g id="node23" class="node">
<title>GovukWarningTextComponent</title>
<polygon fill="#ffffb3" stroke="#000000" points="257.0772,-122 62.9228,-122 62.9228,-86 257.0772,-86 257.0772,-122"/>
<text text-anchor="middle" x="160" y="-99.8" font-family="Times,serif" font-size="14.00" fill="#000000">GovukWarningTextComponent</text>
</g>
<!-- GovukWarningTextComponent&#45;&gt;GovukModule -->
<g id="edge23" class="edge">
<title>GovukWarningTextComponent&#45;&gt;GovukModule</title>
<path fill="none" stroke="#000000" d="M248.544,-122.1061C248.544,-141.3391 248.544,-169 248.544,-169 248.544,-169 2076.9671,-169 2076.9671,-169"/>
<polygon fill="#000000" stroke="#000000" points="2076.9672,-172.5001 2086.9671,-169 2076.9671,-165.5001 2076.9672,-172.5001"/>
</g>
<!-- GovukBackLinkComponent  -->
<g id="node25" class="node">
<title>GovukBackLinkComponent </title>
<polygon fill="#fb8072" stroke="#000000" points="4363.1481,-252 4184.8519,-252 4184.8519,-216 4363.1481,-216 4363.1481,-252"/>
<text text-anchor="middle" x="4274" y="-229.8" font-family="Times,serif" font-size="14.00" fill="#000000">GovukBackLinkComponent </text>
</g>
<!-- GovukModule&#45;&gt;GovukBackLinkComponent  -->
<g id="edge24" class="edge">
<title>GovukModule&#45;&gt;GovukBackLinkComponent </title>
<path fill="none" stroke="#000000" stroke-dasharray="5,2" d="M2184.7169,-170C2501.2992,-170 4253.625,-170 4253.625,-170 4253.625,-170 4253.625,-205.8314 4253.625,-205.8314"/>
<polygon fill="#000000" stroke="#000000" points="4250.1251,-205.8313 4253.625,-215.8314 4257.1251,-205.8314 4250.1251,-205.8313"/>
</g>
<!-- GovukBreadcrumbsComponent  -->
<g id="node26" class="node">
<title>GovukBreadcrumbsComponent </title>
<polygon fill="#fb8072" stroke="#000000" points="4166.5763,-252 3969.4237,-252 3969.4237,-216 4166.5763,-216 4166.5763,-252"/>
<text text-anchor="middle" x="4068" y="-229.8" font-family="Times,serif" font-size="14.00" fill="#000000">GovukBreadcrumbsComponent </text>
</g>
<!-- GovukModule&#45;&gt;GovukBreadcrumbsComponent  -->
<g id="edge25" class="edge">
<title>GovukModule&#45;&gt;GovukBreadcrumbsComponent </title>
<path fill="none" stroke="#000000" stroke-dasharray="5,2" d="M2184.7423,-172C2483.0623,-172 4049.625,-172 4049.625,-172 4049.625,-172 4049.625,-205.7333 4049.625,-205.7333"/>
<polygon fill="#000000" stroke="#000000" points="4046.1251,-205.7333 4049.625,-215.7333 4053.1251,-205.7333 4046.1251,-205.7333"/>
</g>
<!-- GovukButtonComponent  -->
<g id="node27" class="node">
<title>GovukButtonComponent </title>
<polygon fill="#fb8072" stroke="#000000" points="3951.5568,-252 3790.4432,-252 3790.4432,-216 3951.5568,-216 3951.5568,-252"/>
<text text-anchor="middle" x="3871" y="-229.8" font-family="Times,serif" font-size="14.00" fill="#000000">GovukButtonComponent </text>
</g>
<!-- GovukModule&#45;&gt;GovukButtonComponent  -->
<g id="edge26" class="edge">
<title>GovukModule&#45;&gt;GovukButtonComponent </title>
<path fill="none" stroke="#000000" stroke-dasharray="5,2" d="M2185.1089,-173C2465.7639,-173 3854.125,-173 3854.125,-173 3854.125,-173 3854.125,-205.698 3854.125,-205.698"/>
<polygon fill="#000000" stroke="#000000" points="3850.6251,-205.698 3854.125,-215.698 3857.6251,-205.698 3850.6251,-205.698"/>
</g>
<!-- GovukCheckboxesComponent  -->
<g id="node28" class="node">
<title>GovukCheckboxesComponent </title>
<polygon fill="#fb8072" stroke="#000000" points="3772.8643,-252 3581.1357,-252 3581.1357,-216 3772.8643,-216 3772.8643,-252"/>
<text text-anchor="middle" x="3677" y="-229.8" font-family="Times,serif" font-size="14.00" fill="#000000">GovukCheckboxesComponent </text>
</g>
<!-- GovukModule&#45;&gt;GovukCheckboxesComponent  -->
<g id="edge27" class="edge">
<title>GovukModule&#45;&gt;GovukCheckboxesComponent </title>
<path fill="none" stroke="#000000" stroke-dasharray="5,2" d="M2185.0324,-175C2446.1661,-175 3661.625,-175 3661.625,-175 3661.625,-175 3661.625,-205.9775 3661.625,-205.9775"/>
<polygon fill="#000000" stroke="#000000" points="3658.1251,-205.9774 3661.625,-215.9775 3665.1251,-205.9775 3658.1251,-205.9774"/>
</g>
<!-- GovukDateInputComponent  -->
<g id="node29" class="node">
<title>GovukDateInputComponent </title>
<polygon fill="#fb8072" stroke="#000000" points="3563.4166,-252 3384.5834,-252 3384.5834,-216 3563.4166,-216 3563.4166,-252"/>
<text text-anchor="middle" x="3474" y="-229.8" font-family="Times,serif" font-size="14.00" fill="#000000">GovukDateInputComponent </text>
</g>
<!-- GovukModule&#45;&gt;GovukDateInputComponent  -->
<g id="edge28" class="edge">
<title>GovukModule&#45;&gt;GovukDateInputComponent </title>
<path fill="none" stroke="#000000" stroke-dasharray="5,2" d="M2184.6967,-177C2423.5864,-177 3460.125,-177 3460.125,-177 3460.125,-177 3460.125,-205.9648 3460.125,-205.9648"/>
<polygon fill="#000000" stroke="#000000" points="3456.6251,-205.9648 3460.125,-215.9648 3463.6251,-205.9649 3456.6251,-205.9648"/>
</g>
<!-- GovukDetailsComponent  -->
<g id="node30" class="node">
<title>GovukDetailsComponent </title>
<polygon fill="#fb8072" stroke="#000000" points="3366.0917,-252 3203.9083,-252 3203.9083,-216 3366.0917,-216 3366.0917,-252"/>
<text text-anchor="middle" x="3285" y="-229.8" font-family="Times,serif" font-size="14.00" fill="#000000">GovukDetailsComponent </text>
</g>
<!-- GovukModule&#45;&gt;GovukDetailsComponent  -->
<g id="edge29" class="edge">
<title>GovukModule&#45;&gt;GovukDetailsComponent </title>
<path fill="none" stroke="#000000" stroke-dasharray="5,2" d="M2184.8608,-178C2402.5137,-178 3273.125,-178 3273.125,-178 3273.125,-178 3273.125,-205.973 3273.125,-205.973"/>
<polygon fill="#000000" stroke="#000000" points="3269.6251,-205.973 3273.125,-215.973 3276.6251,-205.973 3269.6251,-205.973"/>
</g>
<!-- GovukErrorSummaryComponent  -->
<g id="node31" class="node">
<title>GovukErrorSummaryComponent </title>
<polygon fill="#fb8072" stroke="#000000" points="3185.4124,-252 2978.5876,-252 2978.5876,-216 3185.4124,-216 3185.4124,-252"/>
<text text-anchor="middle" x="3082" y="-229.8" font-family="Times,serif" font-size="14.00" fill="#000000">GovukErrorSummaryComponent </text>
</g>
<!-- GovukModule&#45;&gt;GovukErrorSummaryComponent  -->
<g id="edge30" class="edge">
<title>GovukModule&#45;&gt;GovukErrorSummaryComponent </title>
<path fill="none" stroke="#000000" stroke-dasharray="5,2" d="M2184.685,-180C2376.8392,-180 3072.125,-180 3072.125,-180 3072.125,-180 3072.125,-205.7181 3072.125,-205.7181"/>
<polygon fill="#000000" stroke="#000000" points="3068.6251,-205.718 3072.125,-215.7181 3075.6251,-205.7181 3068.6251,-205.718"/>
</g>
<!-- GovukFieldsetComponent  -->
<g id="node32" class="node">
<title>GovukFieldsetComponent </title>
<polygon fill="#fb8072" stroke="#000000" points="2960.7674,-252 2793.2326,-252 2793.2326,-216 2960.7674,-216 2960.7674,-252"/>
<text text-anchor="middle" x="2877" y="-229.8" font-family="Times,serif" font-size="14.00" fill="#000000">GovukFieldsetComponent </text>
</g>
<!-- GovukModule&#45;&gt;GovukFieldsetComponent  -->
<g id="edge31" class="edge">
<title>GovukModule&#45;&gt;GovukFieldsetComponent </title>
<path fill="none" stroke="#000000" stroke-dasharray="5,2" d="M2184.9217,-181C2348.8684,-181 2868.625,-181 2868.625,-181 2868.625,-181 2868.625,-205.7604 2868.625,-205.7604"/>
<polygon fill="#000000" stroke="#000000" points="2865.1251,-205.7604 2868.625,-215.7604 2872.1251,-205.7604 2865.1251,-205.7604"/>
</g>
<!-- GovukFileUploadComponent  -->
<g id="node33" class="node">
<title>GovukFileUploadComponent </title>
<polygon fill="#fb8072" stroke="#000000" points="2774.9292,-252 2589.0708,-252 2589.0708,-216 2774.9292,-216 2774.9292,-252"/>
<text text-anchor="middle" x="2682" y="-229.8" font-family="Times,serif" font-size="14.00" fill="#000000">GovukFileUploadComponent </text>
</g>
<!-- GovukModule&#45;&gt;GovukFileUploadComponent  -->
<g id="edge32" class="edge">
<title>GovukModule&#45;&gt;GovukFileUploadComponent </title>
<path fill="none" stroke="#000000" stroke-dasharray="5,2" d="M2184.8399,-183C2317.6734,-183 2675.625,-183 2675.625,-183 2675.625,-183 2675.625,-205.8757 2675.625,-205.8757"/>
<polygon fill="#000000" stroke="#000000" points="2672.1251,-205.8757 2675.625,-215.8757 2679.1251,-205.8757 2672.1251,-205.8757"/>
</g>
<!-- GovukFooterComponent  -->
<g id="node34" class="node">
<title>GovukFooterComponent </title>
<polygon fill="#fb8072" stroke="#000000" points="2570.9881,-252 2411.0119,-252 2411.0119,-216 2570.9881,-216 2570.9881,-252"/>
<text text-anchor="middle" x="2491" y="-229.8" font-family="Times,serif" font-size="14.00" fill="#000000">GovukFooterComponent </text>
</g>
<!-- GovukModule&#45;&gt;GovukFooterComponent  -->
<g id="edge33" class="edge">
<title>GovukModule&#45;&gt;GovukFooterComponent </title>
<path fill="none" stroke="#000000" stroke-dasharray="5,2" d="M2184.731,-184C2275.5351,-184 2461.5021,-184 2461.5021,-184 2461.5021,-184 2461.5021,-205.9489 2461.5021,-205.9489"/>
<polygon fill="#000000" stroke="#000000" points="2458.0022,-205.9488 2461.5021,-215.9489 2465.0022,-205.9489 2458.0022,-205.9488"/>
</g>
<!-- GovukHeaderComponent  -->
<g id="node35" class="node">
<title>GovukHeaderComponent </title>
<polygon fill="#fb8072" stroke="#000000" points="2393.8504,-252 2230.1496,-252 2230.1496,-216 2393.8504,-216 2393.8504,-252"/>
<text text-anchor="middle" x="2312" y="-229.8" font-family="Times,serif" font-size="14.00" fill="#000000">GovukHeaderComponent </text>
</g>
<!-- GovukModule&#45;&gt;GovukHeaderComponent  -->
<g id="edge34" class="edge">
<title>GovukModule&#45;&gt;GovukHeaderComponent </title>
<path fill="none" stroke="#000000" stroke-dasharray="5,2" d="M2184.9017,-186C2227.6229,-186 2282.8583,-186 2282.8583,-186 2282.8583,-186 2282.8583,-205.8533 2282.8583,-205.8533"/>
<polygon fill="#000000" stroke="#000000" points="2279.3584,-205.8532 2282.8583,-215.8533 2286.3584,-205.8533 2279.3584,-205.8532"/>
</g>
<!-- GovukInputComponent  -->
<g id="node36" class="node">
<title>GovukInputComponent </title>
<polygon fill="#fb8072" stroke="#000000" points="2212.491,-252 2059.509,-252 2059.509,-216 2212.491,-216 2212.491,-252"/>
<text text-anchor="middle" x="2136" y="-229.8" font-family="Times,serif" font-size="14.00" fill="#000000">GovukInputComponent </text>
</g>
<!-- GovukModule&#45;&gt;GovukInputComponent  -->
<g id="edge35" class="edge">
<title>GovukModule&#45;&gt;GovukInputComponent </title>
<path fill="none" stroke="#000000" stroke-dasharray="5,2" d="M2136,-187.1061C2136,-187.1061 2136,-205.991 2136,-205.991"/>
<polygon fill="#000000" stroke="#000000" points="2132.5001,-205.9909 2136,-215.991 2139.5001,-205.991 2132.5001,-205.9909"/>
</g>
<!-- GovukInsetTextComponent  -->
<g id="node37" class="node">
<title>GovukInsetTextComponent </title>
<polygon fill="#fb8072" stroke="#000000" points="2041.8073,-252 1866.1927,-252 1866.1927,-216 2041.8073,-216 2041.8073,-252"/>
<text text-anchor="middle" x="1954" y="-229.8" font-family="Times,serif" font-size="14.00" fill="#000000">GovukInsetTextComponent </text>
</g>
<!-- GovukModule&#45;&gt;GovukInsetTextComponent  -->
<g id="edge36" class="edge">
<title>GovukModule&#45;&gt;GovukInsetTextComponent </title>
<path fill="none" stroke="#000000" stroke-dasharray="5,2" d="M2087.2017,-186C2025.6834,-186 1927.8655,-186 1927.8655,-186 1927.8655,-186 1927.8655,-205.8533 1927.8655,-205.8533"/>
<polygon fill="#000000" stroke="#000000" points="1924.3656,-205.8532 1927.8655,-215.8533 1931.3656,-205.8533 1924.3656,-205.8532"/>
</g>
<!-- GovukPanelComponent  -->
<g id="node38" class="node">
<title>GovukPanelComponent </title>
<polygon fill="#fb8072" stroke="#000000" points="1848.0414,-252 1693.9586,-252 1693.9586,-216 1848.0414,-216 1848.0414,-252"/>
<text text-anchor="middle" x="1771" y="-229.8" font-family="Times,serif" font-size="14.00" fill="#000000">GovukPanelComponent </text>
</g>
<!-- GovukModule&#45;&gt;GovukPanelComponent  -->
<g id="edge37" class="edge">
<title>GovukModule&#45;&gt;GovukPanelComponent </title>
<path fill="none" stroke="#000000" stroke-dasharray="5,2" d="M2087.2597,-184C1983.7046,-184 1751.1598,-184 1751.1598,-184 1751.1598,-184 1751.1598,-205.9489 1751.1598,-205.9489"/>
<polygon fill="#000000" stroke="#000000" points="1747.6599,-205.9488 1751.1598,-215.9489 1754.6599,-205.9489 1747.6599,-205.9488"/>
</g>
<!-- GovukPhaseBannerComponent  -->
<g id="node39" class="node">
<title>GovukPhaseBannerComponent </title>
<polygon fill="#fb8072" stroke="#000000" points="1676.0218,-252 1479.9782,-252 1479.9782,-216 1676.0218,-216 1676.0218,-252"/>
<text text-anchor="middle" x="1578" y="-229.8" font-family="Times,serif" font-size="14.00" fill="#000000">GovukPhaseBannerComponent </text>
</g>
<!-- GovukModule&#45;&gt;GovukPhaseBannerComponent  -->
<g id="edge38" class="edge">
<title>GovukModule&#45;&gt;GovukPhaseBannerComponent </title>
<path fill="none" stroke="#000000" stroke-dasharray="5,2" d="M2087.0026,-183C1951.8769,-183 1583.875,-183 1583.875,-183 1583.875,-183 1583.875,-205.8757 1583.875,-205.8757"/>
<polygon fill="#000000" stroke="#000000" points="1580.3751,-205.8757 1583.875,-215.8757 1587.3751,-205.8757 1580.3751,-205.8757"/>
</g>
<!-- GovukRadiosComponent  -->
<g id="node40" class="node">
<title>GovukRadiosComponent </title>
<polygon fill="#fb8072" stroke="#000000" points="1461.8255,-252 1300.1745,-252 1300.1745,-216 1461.8255,-216 1461.8255,-252"/>
<text text-anchor="middle" x="1381" y="-229.8" font-family="Times,serif" font-size="14.00" fill="#000000">GovukRadiosComponent </text>
</g>
<!-- GovukModule&#45;&gt;GovukRadiosComponent  -->
<g id="edge39" class="edge">
<title>GovukModule&#45;&gt;GovukRadiosComponent </title>
<path fill="none" stroke="#000000" stroke-dasharray="5,2" d="M2087.2672,-181C1921.3796,-181 1388.875,-181 1388.875,-181 1388.875,-181 1388.875,-205.7604 1388.875,-205.7604"/>
<polygon fill="#000000" stroke="#000000" points="1385.3751,-205.7604 1388.875,-215.7604 1392.3751,-205.7604 1385.3751,-205.7604"/>
</g>
<!-- GovukSelectComponent  -->
<g id="node41" class="node">
<title>GovukSelectComponent </title>
<polygon fill="#fb8072" stroke="#000000" points="1282.6467,-252 1125.3533,-252 1125.3533,-216 1282.6467,-216 1282.6467,-252"/>
<text text-anchor="middle" x="1204" y="-229.8" font-family="Times,serif" font-size="14.00" fill="#000000">GovukSelectComponent </text>
</g>
<!-- GovukModule&#45;&gt;GovukSelectComponent  -->
<g id="edge40" class="edge">
<title>GovukModule&#45;&gt;GovukSelectComponent </title>
<path fill="none" stroke="#000000" stroke-dasharray="5,2" d="M2087.0471,-180C1896.3065,-180 1213.375,-180 1213.375,-180 1213.375,-180 1213.375,-205.7181 1213.375,-205.7181"/>
<polygon fill="#000000" stroke="#000000" points="1209.8751,-205.718 1213.375,-215.7181 1216.8751,-205.7181 1209.8751,-205.718"/>
</g>
<!-- GovukSkipLinkComponent  -->
<g id="node42" class="node">
<title>GovukSkipLinkComponent </title>
<polygon fill="#fb8072" stroke="#000000" points="1107.5554,-252 932.4446,-252 932.4446,-216 1107.5554,-216 1107.5554,-252"/>
<text text-anchor="middle" x="1020" y="-229.8" font-family="Times,serif" font-size="14.00" fill="#000000">GovukSkipLinkComponent </text>
</g>
<!-- GovukModule&#45;&gt;GovukSkipLinkComponent  -->
<g id="edge41" class="edge">
<title>GovukModule&#45;&gt;GovukSkipLinkComponent </title>
<path fill="none" stroke="#000000" stroke-dasharray="5,2" d="M2087.0882,-178C1873.2133,-178 1030.875,-178 1030.875,-178 1030.875,-178 1030.875,-205.973 1030.875,-205.973"/>
<polygon fill="#000000" stroke="#000000" points="1027.3751,-205.973 1030.875,-215.973 1034.3751,-205.973 1027.3751,-205.973"/>
</g>
<!-- GovukTableComponent  -->
<g id="node43" class="node">
<title>GovukTableComponent </title>
<polygon fill="#fb8072" stroke="#000000" points="914.3115,-252 759.6885,-252 759.6885,-216 914.3115,-216 914.3115,-252"/>
<text text-anchor="middle" x="837" y="-229.8" font-family="Times,serif" font-size="14.00" fill="#000000">GovukTableComponent </text>
</g>
<!-- GovukModule&#45;&gt;GovukTableComponent  -->
<g id="edge42" class="edge">
<title>GovukModule&#45;&gt;GovukTableComponent </title>
<path fill="none" stroke="#000000" stroke-dasharray="5,2" d="M2087.1529,-177C1852.2267,-177 849.875,-177 849.875,-177 849.875,-177 849.875,-205.9648 849.875,-205.9648"/>
<polygon fill="#000000" stroke="#000000" points="846.3751,-205.9648 849.875,-215.9648 853.3751,-205.9649 846.3751,-205.9648"/>
</g>
<!-- GovukTabsComponent  -->
<g id="node44" class="node">
<title>GovukTabsComponent </title>
<polygon fill="#fb8072" stroke="#000000" points="742.1509,-252 591.8491,-252 591.8491,-216 742.1509,-216 742.1509,-252"/>
<text text-anchor="middle" x="667" y="-229.8" font-family="Times,serif" font-size="14.00" fill="#000000">GovukTabsComponent </text>
</g>
<!-- GovukModule&#45;&gt;GovukTabsComponent  -->
<g id="edge43" class="edge">
<title>GovukModule&#45;&gt;GovukTabsComponent </title>
<path fill="none" stroke="#000000" stroke-dasharray="5,2" d="M2087.1861,-175C1833.9375,-175 681.375,-175 681.375,-175 681.375,-175 681.375,-205.9775 681.375,-205.9775"/>
<polygon fill="#000000" stroke="#000000" points="677.8751,-205.9774 681.375,-215.9775 684.8751,-205.9775 677.8751,-205.9774"/>
</g>
<!-- GovukTagComponent  -->
<g id="node45" class="node">
<title>GovukTagComponent </title>
<polygon fill="#fb8072" stroke="#000000" points="574.2065,-252 429.7935,-252 429.7935,-216 574.2065,-216 574.2065,-252"/>
<text text-anchor="middle" x="502" y="-229.8" font-family="Times,serif" font-size="14.00" fill="#000000">GovukTagComponent </text>
</g>
<!-- GovukModule&#45;&gt;GovukTagComponent  -->
<g id="edge44" class="edge">
<title>GovukModule&#45;&gt;GovukTagComponent </title>
<path fill="none" stroke="#000000" stroke-dasharray="5,2" d="M2087.1319,-173C1816.9203,-173 517.875,-173 517.875,-173 517.875,-173 517.875,-205.698 517.875,-205.698"/>
<polygon fill="#000000" stroke="#000000" points="514.3751,-205.698 517.875,-215.698 521.3751,-205.698 514.3751,-205.698"/>
</g>
<!-- GovukTextareaComponent  -->
<g id="node46" class="node">
<title>GovukTextareaComponent </title>
<polygon fill="#fb8072" stroke="#000000" points="411.9012,-252 240.0988,-252 240.0988,-216 411.9012,-216 411.9012,-252"/>
<text text-anchor="middle" x="326" y="-229.8" font-family="Times,serif" font-size="14.00" fill="#000000">GovukTextareaComponent </text>
</g>
<!-- GovukModule&#45;&gt;GovukTextareaComponent  -->
<g id="edge45" class="edge">
<title>GovukModule&#45;&gt;GovukTextareaComponent </title>
<path fill="none" stroke="#000000" stroke-dasharray="5,2" d="M2087.1219,-172C1799.8161,-172 343.375,-172 343.375,-172 343.375,-172 343.375,-205.7333 343.375,-205.7333"/>
<polygon fill="#000000" stroke="#000000" points="339.8751,-205.7333 343.375,-215.7333 346.8751,-205.7333 339.8751,-205.7333"/>
</g>
<!-- GovukWarningTextComponent  -->
<g id="node47" class="node">
<title>GovukWarningTextComponent </title>
<polygon fill="#fb8072" stroke="#000000" points="221.5777,-252 24.4223,-252 24.4223,-216 221.5777,-216 221.5777,-252"/>
<text text-anchor="middle" x="123" y="-229.8" font-family="Times,serif" font-size="14.00" fill="#000000">GovukWarningTextComponent </text>
</g>
<!-- GovukModule&#45;&gt;GovukWarningTextComponent  -->
<g id="edge46" class="edge">
<title>GovukModule&#45;&gt;GovukWarningTextComponent </title>
<path fill="none" stroke="#000000" stroke-dasharray="5,2" d="M2087.2142,-170C1781.4823,-170 142.375,-170 142.375,-170 142.375,-170 142.375,-205.8314 142.375,-205.8314"/>
<polygon fill="#000000" stroke="#000000" points="138.8751,-205.8313 142.375,-215.8314 145.8751,-205.8314 138.8751,-205.8313"/>
</g>
</g>
</svg>
