<?xml version="1.0" encoding="UTF-8" standalone="no"?>
<!DOCTYPE svg PUBLIC "-//W3C//DTD SVG 1.1//EN"
 "http://www.w3.org/Graphics/SVG/1.1/DTD/svg11.dtd">
<!-- Generated by graphviz version 2.40.1 (20161225.0304)
 -->
<!-- Title: dependencies Pages: 1 -->
<svg width="1644pt" height="284pt"
 viewBox="0.00 0.00 1644.00 284.00" xmlns="http://www.w3.org/2000/svg" xmlns:xlink="http://www.w3.org/1999/xlink">
<g id="graph0" class="graph" transform="scale(1 1) rotate(0) translate(4 280)">
<title>dependencies</title>
<polygon fill="#ffffff" stroke="transparent" points="-4,4 -4,-280 1640,-280 1640,4 -4,4"/>
<text text-anchor="start" x="797.0091" y="-42.4" font-family="sans-serif" font-weight="bold" font-size="14.00" fill="#000000">Legend</text>
<polygon fill="#ffffb3" stroke="transparent" points="584,-10 584,-30 604,-30 604,-10 584,-10"/>
<text text-anchor="start" x="607.629" y="-15.4" font-family="sans-serif" font-size="14.00" fill="#000000"> &#160;Declarations</text>
<polygon fill="#8dd3c7" stroke="transparent" points="697,-10 697,-30 717,-30 717,-10 697,-10"/>
<text text-anchor="start" x="720.7251" y="-15.4" font-family="sans-serif" font-size="14.00" fill="#000000"> &#160;Module</text>
<polygon fill="#80b1d3" stroke="transparent" points="783,-10 783,-30 803,-30 803,-10 783,-10"/>
<text text-anchor="start" x="806.7812" y="-15.4" font-family="sans-serif" font-size="14.00" fill="#000000"> &#160;Bootstrap</text>
<polygon fill="#fdb462" stroke="transparent" points="880,-10 880,-30 900,-30 900,-10 880,-10"/>
<text text-anchor="start" x="903.6732" y="-15.4" font-family="sans-serif" font-size="14.00" fill="#000000"> &#160;Providers</text>
<polygon fill="#fb8072" stroke="transparent" points="976,-10 976,-30 996,-30 996,-10 976,-10"/>
<text text-anchor="start" x="999.7258" y="-15.4" font-family="sans-serif" font-size="14.00" fill="#000000"> &#160;Exports</text>
<g id="clust1" class="cluster">
<title>cluster_CaseViewerModule</title>
<polygon fill="none" stroke="#000000" stroke-dasharray="1,5" points="8,-70 8,-268 1628,-268 1628,-70 8,-70"/>
</g>
<g id="clust2" class="cluster">
<title>cluster_CaseViewerModule_declarations</title>
<polygon fill="none" stroke="#000000" points="545,-78 545,-130 1620,-130 1620,-78 545,-78"/>
</g>
<g id="clust9" class="cluster">
<title>cluster_CaseViewerModule_imports</title>
<polygon fill="none" stroke="#000000" points="16,-78 16,-130 537,-130 537,-78 16,-78"/>
</g>
<g id="clust10" class="cluster">
<title>cluster_CaseViewerModule_exports</title>
<polygon fill="none" stroke="#000000" points="539,-208 539,-260 901,-260 901,-208 539,-208"/>
</g>
<!-- CaseViewerComponent -->
<g id="node1" class="node">
<title>CaseViewerComponent</title>
<polygon fill="#ffffb3" stroke="#000000" points="1611.7366,-122 1462.2634,-122 1462.2634,-86 1611.7366,-86 1611.7366,-122"/>
<text text-anchor="middle" x="1537" y="-99.8" font-family="Times,serif" font-size="14.00" fill="#000000">CaseViewerComponent</text>
</g>
<!-- CaseViewerModule -->
<g id="node7" class="node">
<title>CaseViewerModule</title>
<polygon fill="#8dd3c7" stroke="#000000" points="788.9538,-187 785.9538,-191 764.9538,-191 761.9538,-187 661.0462,-187 661.0462,-151 788.9538,-151 788.9538,-187"/>
<text text-anchor="middle" x="725" y="-164.8" font-family="Times,serif" font-size="14.00" fill="#000000">CaseViewerModule</text>
</g>
<!-- CaseViewerComponent&#45;&gt;CaseViewerModule -->
<g id="edge1" class="edge">
<title>CaseViewerComponent&#45;&gt;CaseViewerModule</title>
<path fill="none" stroke="#000000" d="M1537,-122.0109C1537,-144.4852 1537,-180 1537,-180 1537,-180 799.0553,-180 799.0553,-180"/>
<polygon fill="#000000" stroke="#000000" points="799.0553,-176.5001 789.0553,-180 799.0552,-183.5001 799.0553,-176.5001"/>
</g>
<!-- DocumentPanelComponent -->
<g id="node2" class="node">
<title>DocumentPanelComponent</title>
<polygon fill="#ffffb3" stroke="#000000" points="1444.252,-122 1273.748,-122 1273.748,-86 1444.252,-86 1444.252,-122"/>
<text text-anchor="middle" x="1359" y="-99.8" font-family="Times,serif" font-size="14.00" fill="#000000">DocumentPanelComponent</text>
</g>
<!-- DocumentPanelComponent&#45;&gt;CaseViewerModule -->
<g id="edge2" class="edge">
<title>DocumentPanelComponent&#45;&gt;CaseViewerModule</title>
<path fill="none" stroke="#000000" d="M1359,-122.1289C1359,-142.5724 1359,-173 1359,-173 1359,-173 798.9865,-173 798.9865,-173"/>
<polygon fill="#000000" stroke="#000000" points="798.9865,-169.5001 788.9865,-173 798.9864,-176.5001 798.9865,-169.5001"/>
</g>
<!-- PartiesPanelComponent -->
<g id="node3" class="node">
<title>PartiesPanelComponent</title>
<polygon fill="#ffffb3" stroke="#000000" points="1255.0337,-122 1104.9663,-122 1104.9663,-86 1255.0337,-86 1255.0337,-122"/>
<text text-anchor="middle" x="1180" y="-99.8" font-family="Times,serif" font-size="14.00" fill="#000000">PartiesPanelComponent</text>
</g>
<!-- PartiesPanelComponent&#45;&gt;CaseViewerModule -->
<g id="edge3" class="edge">
<title>PartiesPanelComponent&#45;&gt;CaseViewerModule</title>
<path fill="none" stroke="#000000" d="M1180,-122.2667C1180,-140.5552 1180,-166 1180,-166 1180,-166 799.2254,-166 799.2254,-166"/>
<polygon fill="#000000" stroke="#000000" points="799.2254,-162.5001 789.2254,-166 799.2253,-169.5001 799.2254,-162.5001"/>
</g>
<!-- QuestionsPanelComponent -->
<g id="node4" class="node">
<title>QuestionsPanelComponent</title>
<polygon fill="#ffffb3" stroke="#000000" points="1087.4269,-122 918.5731,-122 918.5731,-86 1087.4269,-86 1087.4269,-122"/>
<text text-anchor="middle" x="1003" y="-99.8" font-family="Times,serif" font-size="14.00" fill="#000000">QuestionsPanelComponent</text>
</g>
<!-- QuestionsPanelComponent&#45;&gt;CaseViewerModule -->
<g id="edge4" class="edge">
<title>QuestionsPanelComponent&#45;&gt;CaseViewerModule</title>
<path fill="none" stroke="#000000" d="M1003,-122.0091C1003,-138.0494 1003,-159 1003,-159 1003,-159 799.1279,-159 799.1279,-159"/>
<polygon fill="#000000" stroke="#000000" points="799.1279,-155.5001 789.1279,-159 799.1278,-162.5001 799.1279,-155.5001"/>
</g>
<!-- SummaryPanelComponent -->
<g id="node5" class="node">
<title>SummaryPanelComponent</title>
<polygon fill="#ffffb3" stroke="#000000" points="900.3738,-122 733.6262,-122 733.6262,-86 900.3738,-86 900.3738,-122"/>
<text text-anchor="middle" x="817" y="-99.8" font-family="Times,serif" font-size="14.00" fill="#000000">SummaryPanelComponent</text>
</g>
<!-- SummaryPanelComponent&#45;&gt;CaseViewerModule -->
<g id="edge5" class="edge">
<title>SummaryPanelComponent&#45;&gt;CaseViewerModule</title>
<path fill="none" stroke="#000000" d="M761.27,-122.1061C761.27,-122.1061 761.27,-140.991 761.27,-140.991"/>
<polygon fill="#000000" stroke="#000000" points="757.7701,-140.9909 761.27,-150.991 764.7701,-140.991 757.7701,-140.9909"/>
</g>
<!-- TimelinePanelComponent -->
<g id="node6" class="node">
<title>TimelinePanelComponent</title>
<polygon fill="#ffffb3" stroke="#000000" points="715.479,-122 552.521,-122 552.521,-86 715.479,-86 715.479,-122"/>
<text text-anchor="middle" x="634" y="-99.8" font-family="Times,serif" font-size="14.00" fill="#000000">TimelinePanelComponent</text>
</g>
<!-- TimelinePanelComponent&#45;&gt;CaseViewerModule -->
<g id="edge6" class="edge">
<title>TimelinePanelComponent&#45;&gt;CaseViewerModule</title>
<path fill="none" stroke="#000000" d="M688.2563,-122.1061C688.2563,-122.1061 688.2563,-140.991 688.2563,-140.991"/>
<polygon fill="#000000" stroke="#000000" points="684.7564,-140.9909 688.2563,-150.991 691.7564,-140.991 684.7564,-140.9909"/>
</g>
<!-- CaseViewerComponent  -->
<g id="node12" class="node">
<title>CaseViewerComponent </title>
<polygon fill="#fb8072" stroke="#000000" points="892.7366,-252 739.2634,-252 739.2634,-216 892.7366,-216 892.7366,-252"/>
<text text-anchor="middle" x="816" y="-229.8" font-family="Times,serif" font-size="14.00" fill="#000000">CaseViewerComponent </text>
</g>
<!-- CaseViewerModule&#45;&gt;CaseViewerComponent  -->
<g id="edge11" class="edge">
<title>CaseViewerModule&#45;&gt;CaseViewerComponent </title>
<path fill="none" stroke="#000000" stroke-dasharray="5,2" d="M764.1794,-187.1061C764.1794,-187.1061 764.1794,-205.991 764.1794,-205.991"/>
<polygon fill="#000000" stroke="#000000" points="760.6794,-205.9909 764.1794,-215.991 767.6794,-205.991 760.6794,-205.9909"/>
</g>
<!-- DocumentPanelComponent  -->
<g id="node13" class="node">
<title>DocumentPanelComponent </title>
<polygon fill="#fb8072" stroke="#000000" points="721.252,-252 546.748,-252 546.748,-216 721.252,-216 721.252,-252"/>
<text text-anchor="middle" x="634" y="-229.8" font-family="Times,serif" font-size="14.00" fill="#000000">DocumentPanelComponent </text>
</g>
<!-- CaseViewerModule&#45;&gt;DocumentPanelComponent  -->
<g id="edge12" class="edge">
<title>CaseViewerModule&#45;&gt;DocumentPanelComponent </title>
<path fill="none" stroke="#000000" stroke-dasharray="5,2" d="M691.0745,-187.1061C691.0745,-187.1061 691.0745,-205.991 691.0745,-205.991"/>
<polygon fill="#000000" stroke="#000000" points="687.5746,-205.9909 691.0745,-215.991 694.5746,-205.991 687.5746,-205.9909"/>
</g>
<!-- DocumentViewerModule -->
<g id="node8" class="node">
<title>DocumentViewerModule</title>
<polygon fill="#8dd3c7" stroke="#000000" points="528.5604,-122 525.5604,-126 504.5604,-126 501.5604,-122 369.4396,-122 369.4396,-86 528.5604,-86 528.5604,-122"/>
<text text-anchor="middle" x="449" y="-99.8" font-family="Times,serif" font-size="14.00" fill="#000000">DocumentViewerModule</text>
</g>
<!-- DocumentViewerModule&#45;&gt;CaseViewerModule -->
<g id="edge7" class="edge">
<title>DocumentViewerModule&#45;&gt;CaseViewerModule</title>
<path fill="none" stroke="#000000" d="M449,-122.0091C449,-138.0494 449,-159 449,-159 449,-159 650.9863,-159 650.9863,-159"/>
<polygon fill="#000000" stroke="#000000" points="650.9864,-162.5001 660.9863,-159 650.9863,-155.5001 650.9864,-162.5001"/>
</g>
<!-- GovukModule -->
<g id="node9" class="node">
<title>GovukModule</title>
<polygon fill="#8dd3c7" stroke="#000000" points="351.657,-122 348.657,-126 327.657,-126 324.657,-122 254.343,-122 254.343,-86 351.657,-86 351.657,-122"/>
<text text-anchor="middle" x="303" y="-99.8" font-family="Times,serif" font-size="14.00" fill="#000000">GovukModule</text>
</g>
<!-- GovukModule&#45;&gt;CaseViewerModule -->
<g id="edge8" class="edge">
<title>GovukModule&#45;&gt;CaseViewerModule</title>
<path fill="none" stroke="#000000" d="M303,-122.2667C303,-140.5552 303,-166 303,-166 303,-166 650.9073,-166 650.9073,-166"/>
<polygon fill="#000000" stroke="#000000" points="650.9073,-169.5001 660.9073,-166 650.9072,-162.5001 650.9073,-169.5001"/>
</g>
<!-- HmctsModule -->
<g id="node10" class="node">
<title>HmctsModule</title>
<polygon fill="#8dd3c7" stroke="#000000" points="236.0968,-122 233.0968,-126 212.0968,-126 209.0968,-122 139.9032,-122 139.9032,-86 236.0968,-86 236.0968,-122"/>
<text text-anchor="middle" x="188" y="-99.8" font-family="Times,serif" font-size="14.00" fill="#000000">HmctsModule</text>
</g>
<!-- HmctsModule&#45;&gt;CaseViewerModule -->
<g id="edge9" class="edge">
<title>HmctsModule&#45;&gt;CaseViewerModule</title>
<path fill="none" stroke="#000000" d="M188,-122.1289C188,-142.5724 188,-173 188,-173 188,-173 651.0247,-173 651.0247,-173"/>
<polygon fill="#000000" stroke="#000000" points="651.0247,-176.5001 661.0247,-173 651.0246,-169.5001 651.0247,-176.5001"/>
</g>
<!-- SharedModule -->
<g id="node11" class="node">
<title>SharedModule</title>
<polygon fill="#8dd3c7" stroke="#000000" points="122.4231,-122 119.4231,-126 98.4231,-126 95.4231,-122 23.5769,-122 23.5769,-86 122.4231,-86 122.4231,-122"/>
<text text-anchor="middle" x="73" y="-99.8" font-family="Times,serif" font-size="14.00" fill="#000000">SharedModule</text>
</g>
<!-- SharedModule&#45;&gt;CaseViewerModule -->
<g id="edge10" class="edge">
<title>SharedModule&#45;&gt;CaseViewerModule</title>
<path fill="none" stroke="#000000" d="M73,-122.0109C73,-144.4852 73,-180 73,-180 73,-180 650.9981,-180 650.9981,-180"/>
<polygon fill="#000000" stroke="#000000" points="650.9982,-183.5001 660.9981,-180 650.9981,-176.5001 650.9982,-183.5001"/>
</g>
</g>
</svg>
