<?xml version="1.0" encoding="UTF-8" standalone="no"?>
<!DOCTYPE svg PUBLIC "-//W3C//DTD SVG 1.1//EN"
 "http://www.w3.org/Graphics/SVG/1.1/DTD/svg11.dtd">
<!-- Generated by graphviz version 2.40.1 (20161225.0304)
 -->
<!-- Title: dependencies Pages: 1 -->
<svg width="1846pt" height="284pt"
 viewBox="0.00 0.00 1846.00 284.00" xmlns="http://www.w3.org/2000/svg" xmlns:xlink="http://www.w3.org/1999/xlink">
<g id="graph0" class="graph" transform="scale(1 1) rotate(0) translate(4 280)">
<title>dependencies</title>
<polygon fill="#ffffff" stroke="transparent" points="-4,4 -4,-280 1842,-280 1842,4 -4,4"/>
<text text-anchor="start" x="898.0091" y="-42.4" font-family="sans-serif" font-weight="bold" font-size="14.00" fill="#000000">Legend</text>
<polygon fill="#ffffb3" stroke="transparent" points="685,-10 685,-30 705,-30 705,-10 685,-10"/>
<text text-anchor="start" x="708.629" y="-15.4" font-family="sans-serif" font-size="14.00" fill="#000000"> &#160;Declarations</text>
<polygon fill="#8dd3c7" stroke="transparent" points="798,-10 798,-30 818,-30 818,-10 798,-10"/>
<text text-anchor="start" x="821.7251" y="-15.4" font-family="sans-serif" font-size="14.00" fill="#000000"> &#160;Module</text>
<polygon fill="#80b1d3" stroke="transparent" points="884,-10 884,-30 904,-30 904,-10 884,-10"/>
<text text-anchor="start" x="907.7812" y="-15.4" font-family="sans-serif" font-size="14.00" fill="#000000"> &#160;Bootstrap</text>
<polygon fill="#fdb462" stroke="transparent" points="981,-10 981,-30 1001,-30 1001,-10 981,-10"/>
<text text-anchor="start" x="1004.6732" y="-15.4" font-family="sans-serif" font-size="14.00" fill="#000000"> &#160;Providers</text>
<polygon fill="#fb8072" stroke="transparent" points="1077,-10 1077,-30 1097,-30 1097,-10 1077,-10"/>
<text text-anchor="start" x="1100.7258" y="-15.4" font-family="sans-serif" font-size="14.00" fill="#000000"> &#160;Exports</text>
<g id="clust1" class="cluster">
<title>cluster_HmctsModule</title>
<polygon fill="none" stroke="#000000" stroke-dasharray="1,5" points="8,-70 8,-268 1830,-268 1830,-70 8,-70"/>
</g>
<g id="clust2" class="cluster">
<title>cluster_HmctsModule_declarations</title>
<polygon fill="none" stroke="#000000" points="32,-78 32,-130 1805,-130 1805,-78 32,-78"/>
</g>
<g id="clust13" class="cluster">
<title>cluster_HmctsModule_exports</title>
<polygon fill="none" stroke="#000000" points="16,-208 16,-260 1822,-260 1822,-208 16,-208"/>
</g>
<!-- HmctsAlertComponent -->
<g id="node1" class="node">
<title>HmctsAlertComponent</title>
<polygon fill="#ffffb3" stroke="#000000" points="1797.1428,-122 1650.8572,-122 1650.8572,-86 1797.1428,-86 1797.1428,-122"/>
<text text-anchor="middle" x="1724" y="-99.8" font-family="Times,serif" font-size="14.00" fill="#000000">HmctsAlertComponent</text>
</g>
<!-- HmctsModule -->
<g id="node10" class="node">
<title>HmctsModule</title>
<polygon fill="#8dd3c7" stroke="#000000" points="948.0968,-187 945.0968,-191 924.0968,-191 921.0968,-187 851.9032,-187 851.9032,-151 948.0968,-151 948.0968,-187"/>
<text text-anchor="middle" x="900" y="-164.8" font-family="Times,serif" font-size="14.00" fill="#000000">HmctsModule</text>
</g>
<!-- HmctsAlertComponent&#45;&gt;HmctsModule -->
<g id="edge1" class="edge">
<title>HmctsAlertComponent&#45;&gt;HmctsModule</title>
<path fill="none" stroke="#000000" d="M1657.3038,-122.2222C1657.3038,-140.8285 1657.3038,-167 1657.3038,-167 1657.3038,-167 958.2357,-167 958.2357,-167"/>
<polygon fill="#000000" stroke="#000000" points="958.2357,-163.5001 948.2357,-167 958.2356,-170.5001 958.2357,-163.5001"/>
</g>
<!-- HmctsDetailsBarComponent -->
<g id="node2" class="node">
<title>HmctsDetailsBarComponent</title>
<polygon fill="#ffffb3" stroke="#000000" points="1632.7436,-122 1455.2564,-122 1455.2564,-86 1632.7436,-86 1632.7436,-122"/>
<text text-anchor="middle" x="1544" y="-99.8" font-family="Times,serif" font-size="14.00" fill="#000000">HmctsDetailsBarComponent</text>
</g>
<!-- HmctsDetailsBarComponent&#45;&gt;HmctsModule -->
<g id="edge2" class="edge">
<title>HmctsDetailsBarComponent&#45;&gt;HmctsModule</title>
<path fill="none" stroke="#000000" d="M1459.7533,-122.0225C1459.7533,-139.3734 1459.7533,-163 1459.7533,-163 1459.7533,-163 958.2087,-163 958.2087,-163"/>
<polygon fill="#000000" stroke="#000000" points="958.2088,-159.5001 948.2087,-163 958.2087,-166.5001 958.2088,-159.5001"/>
</g>
<!-- HmctsGlobalFooterComponent -->
<g id="node3" class="node">
<title>HmctsGlobalFooterComponent</title>
<polygon fill="#ffffb3" stroke="#000000" points="1437.0308,-122 1244.9692,-122 1244.9692,-86 1437.0308,-86 1437.0308,-122"/>
<text text-anchor="middle" x="1341" y="-99.8" font-family="Times,serif" font-size="14.00" fill="#000000">HmctsGlobalFooterComponent</text>
</g>
<!-- HmctsGlobalFooterComponent&#45;&gt;HmctsModule -->
<g id="edge3" class="edge">
<title>HmctsGlobalFooterComponent&#45;&gt;HmctsModule</title>
<path fill="none" stroke="#000000" d="M1374.8384,-122.0091C1374.8384,-138.0494 1374.8384,-159 1374.8384,-159 1374.8384,-159 958.1431,-159 958.1431,-159"/>
<polygon fill="#000000" stroke="#000000" points="958.1432,-155.5001 948.1431,-159 958.1431,-162.5001 958.1432,-155.5001"/>
</g>
<!-- HmctsGlobalHeaderComponent -->
<g id="node4" class="node">
<title>HmctsGlobalHeaderComponent</title>
<polygon fill="#ffffb3" stroke="#000000" points="1227.3932,-122 1030.6068,-122 1030.6068,-86 1227.3932,-86 1227.3932,-122"/>
<text text-anchor="middle" x="1129" y="-99.8" font-family="Times,serif" font-size="14.00" fill="#000000">HmctsGlobalHeaderComponent</text>
</g>
<!-- HmctsGlobalHeaderComponent&#45;&gt;HmctsModule -->
<g id="edge4" class="edge">
<title>HmctsGlobalHeaderComponent&#45;&gt;HmctsModule</title>
<path fill="none" stroke="#000000" d="M1162.1488,-122.1243C1162.1488,-136.7832 1162.1488,-155 1162.1488,-155 1162.1488,-155 958.0821,-155 958.0821,-155"/>
<polygon fill="#000000" stroke="#000000" points="958.0822,-151.5001 948.0821,-155 958.0821,-158.5001 958.0822,-151.5001"/>
</g>
<!-- HmctsPrimaryNavigationComponent -->
<g id="node5" class="node">
<title>HmctsPrimaryNavigationComponent</title>
<polygon fill="#ffffb3" stroke="#000000" points="1012.6867,-122 787.3133,-122 787.3133,-86 1012.6867,-86 1012.6867,-122"/>
<text text-anchor="middle" x="900" y="-99.8" font-family="Times,serif" font-size="14.00" fill="#000000">HmctsPrimaryNavigationComponent</text>
</g>
<!-- HmctsPrimaryNavigationComponent&#45;&gt;HmctsModule -->
<g id="edge5" class="edge">
<title>HmctsPrimaryNavigationComponent&#45;&gt;HmctsModule</title>
<path fill="none" stroke="#000000" d="M900,-122.1061C900,-122.1061 900,-140.991 900,-140.991"/>
<polygon fill="#000000" stroke="#000000" points="896.5001,-140.9909 900,-150.991 903.5001,-140.991 896.5001,-140.9909"/>
</g>
<!-- HmctsProgressBarComponent -->
<g id="node6" class="node">
<title>HmctsProgressBarComponent</title>
<polygon fill="#ffffb3" stroke="#000000" points="769.299,-122 582.701,-122 582.701,-86 769.299,-86 769.299,-122"/>
<text text-anchor="middle" x="676" y="-99.8" font-family="Times,serif" font-size="14.00" fill="#000000">HmctsProgressBarComponent</text>
</g>
<!-- HmctsProgressBarComponent&#45;&gt;HmctsModule -->
<g id="edge6" class="edge">
<title>HmctsProgressBarComponent&#45;&gt;HmctsModule</title>
<path fill="none" stroke="#000000" d="M706.2165,-122.1243C706.2165,-136.7832 706.2165,-155 706.2165,-155 706.2165,-155 841.6001,-155 841.6001,-155"/>
<polygon fill="#000000" stroke="#000000" points="841.6001,-158.5001 851.6001,-155 841.6001,-151.5001 841.6001,-158.5001"/>
</g>
<!-- HmctsSubNavigationComponent -->
<g id="node7" class="node">
<title>HmctsSubNavigationComponent</title>
<polygon fill="#ffffb3" stroke="#000000" points="564.8696,-122 363.1304,-122 363.1304,-86 564.8696,-86 564.8696,-122"/>
<text text-anchor="middle" x="464" y="-99.8" font-family="Times,serif" font-size="14.00" fill="#000000">HmctsSubNavigationComponent</text>
</g>
<!-- HmctsSubNavigationComponent&#45;&gt;HmctsModule -->
<g id="edge7" class="edge">
<title>HmctsSubNavigationComponent&#45;&gt;HmctsModule</title>
<path fill="none" stroke="#000000" d="M494.1449,-122.0091C494.1449,-138.0494 494.1449,-159 494.1449,-159 494.1449,-159 841.8493,-159 841.8493,-159"/>
<polygon fill="#000000" stroke="#000000" points="841.8494,-162.5001 851.8493,-159 841.8493,-155.5001 841.8494,-162.5001"/>
</g>
<!-- HmctsTimelineComponent -->
<g id="node8" class="node">
<title>HmctsTimelineComponent</title>
<polygon fill="#ffffb3" stroke="#000000" points="345.4241,-122 176.5759,-122 176.5759,-86 345.4241,-86 345.4241,-122"/>
<text text-anchor="middle" x="261" y="-99.8" font-family="Times,serif" font-size="14.00" fill="#000000">HmctsTimelineComponent</text>
</g>
<!-- HmctsTimelineComponent&#45;&gt;HmctsModule -->
<g id="edge8" class="edge">
<title>HmctsTimelineComponent&#45;&gt;HmctsModule</title>
<path fill="none" stroke="#000000" d="M340.5868,-122.0225C340.5868,-139.3734 340.5868,-163 340.5868,-163 340.5868,-163 841.8206,-163 841.8206,-163"/>
<polygon fill="#000000" stroke="#000000" points="841.8206,-166.5001 851.8206,-163 841.8205,-159.5001 841.8206,-166.5001"/>
</g>
<!-- SentenceCasePipe -->
<g id="node9" class="node">
<title>SentenceCasePipe</title>
<polygon fill="#ffffb3" stroke="#000000" points="158.1304,-122 39.8696,-122 39.8696,-86 158.1304,-86 158.1304,-122"/>
<text text-anchor="middle" x="99" y="-99.8" font-family="Times,serif" font-size="14.00" fill="#000000">SentenceCasePipe</text>
</g>
<!-- SentenceCasePipe&#45;&gt;HmctsModule -->
<g id="edge9" class="edge">
<title>SentenceCasePipe&#45;&gt;HmctsModule</title>
<path fill="none" stroke="#000000" d="M152.1899,-122.2222C152.1899,-140.8285 152.1899,-167 152.1899,-167 152.1899,-167 841.7973,-167 841.7973,-167"/>
<polygon fill="#000000" stroke="#000000" points="841.7973,-170.5001 851.7973,-167 841.7972,-163.5001 841.7973,-170.5001"/>
</g>
<!-- HmctsAlertComponent  -->
<g id="node11" class="node">
<title>HmctsAlertComponent </title>
<polygon fill="#fb8072" stroke="#000000" points="1814.1425,-252 1663.8575,-252 1663.8575,-216 1814.1425,-216 1814.1425,-252"/>
<text text-anchor="middle" x="1739" y="-229.8" font-family="Times,serif" font-size="14.00" fill="#000000">HmctsAlertComponent </text>
</g>
<!-- HmctsModule&#45;&gt;HmctsAlertComponent  -->
<g id="edge10" class="edge">
<title>HmctsModule&#45;&gt;HmctsAlertComponent </title>
<path fill="none" stroke="#000000" stroke-dasharray="5,2" d="M948.2482,-171C1125.5239,-171 1730.625,-171 1730.625,-171 1730.625,-171 1730.625,-205.7778 1730.625,-205.7778"/>
<polygon fill="#000000" stroke="#000000" points="1727.1251,-205.7778 1730.625,-215.7778 1734.1251,-205.7778 1727.1251,-205.7778"/>
</g>
<!-- HmctsDetailsBarComponent  -->
<g id="node12" class="node">
<title>HmctsDetailsBarComponent </title>
<polygon fill="#fb8072" stroke="#000000" points="1645.7436,-252 1464.2564,-252 1464.2564,-216 1645.7436,-216 1645.7436,-252"/>
<text text-anchor="middle" x="1555" y="-229.8" font-family="Times,serif" font-size="14.00" fill="#000000">HmctsDetailsBarComponent </text>
</g>
<!-- HmctsModule&#45;&gt;HmctsDetailsBarComponent  -->
<g id="edge11" class="edge">
<title>HmctsModule&#45;&gt;HmctsDetailsBarComponent </title>
<path fill="none" stroke="#000000" stroke-dasharray="5,2" d="M948.2224,-175C1098.5428,-175 1548.625,-175 1548.625,-175 1548.625,-175 1548.625,-205.9775 1548.625,-205.9775"/>
<polygon fill="#000000" stroke="#000000" points="1545.1251,-205.9774 1548.625,-215.9775 1552.1251,-205.9775 1545.1251,-205.9774"/>
</g>
<!-- HmctsGlobalFooterComponent  -->
<g id="node13" class="node">
<title>HmctsGlobalFooterComponent </title>
<polygon fill="#fb8072" stroke="#000000" points="1446.0302,-252 1249.9698,-252 1249.9698,-216 1446.0302,-216 1446.0302,-252"/>
<text text-anchor="middle" x="1348" y="-229.8" font-family="Times,serif" font-size="14.00" fill="#000000">HmctsGlobalFooterComponent </text>
</g>
<!-- HmctsModule&#45;&gt;HmctsGlobalFooterComponent  -->
<g id="edge12" class="edge">
<title>HmctsModule&#45;&gt;HmctsGlobalFooterComponent </title>
<path fill="none" stroke="#000000" stroke-dasharray="5,2" d="M948.116,-179C1056.9056,-179 1312.4116,-179 1312.4116,-179 1312.4116,-179 1312.4116,-205.9909 1312.4116,-205.9909"/>
<polygon fill="#000000" stroke="#000000" points="1308.9117,-205.9909 1312.4116,-215.9909 1315.9117,-205.991 1308.9117,-205.9909"/>
</g>
<!-- HmctsGlobalHeaderComponent  -->
<g id="node14" class="node">
<title>HmctsGlobalHeaderComponent </title>
<polygon fill="#fb8072" stroke="#000000" points="1231.8928,-252 1032.1072,-252 1032.1072,-216 1231.8928,-216 1231.8928,-252"/>
<text text-anchor="middle" x="1132" y="-229.8" font-family="Times,serif" font-size="14.00" fill="#000000">HmctsGlobalHeaderComponent </text>
</g>
<!-- HmctsModule&#45;&gt;HmctsGlobalHeaderComponent  -->
<g id="edge13" class="edge">
<title>HmctsModule&#45;&gt;HmctsGlobalHeaderComponent </title>
<path fill="none" stroke="#000000" stroke-dasharray="5,2" d="M948.2164,-183C1006.5679,-183 1097.1012,-183 1097.1012,-183 1097.1012,-183 1097.1012,-205.8757 1097.1012,-205.8757"/>
<polygon fill="#000000" stroke="#000000" points="1093.6013,-205.8757 1097.1012,-215.8757 1100.6013,-205.8757 1093.6013,-205.8757"/>
</g>
<!-- HmctsPrimaryNavigationComponent  -->
<g id="node15" class="node">
<title>HmctsPrimaryNavigationComponent </title>
<polygon fill="#fb8072" stroke="#000000" points="1014.1868,-252 785.8132,-252 785.8132,-216 1014.1868,-216 1014.1868,-252"/>
<text text-anchor="middle" x="900" y="-229.8" font-family="Times,serif" font-size="14.00" fill="#000000">HmctsPrimaryNavigationComponent </text>
</g>
<!-- HmctsModule&#45;&gt;HmctsPrimaryNavigationComponent  -->
<g id="edge14" class="edge">
<title>HmctsModule&#45;&gt;HmctsPrimaryNavigationComponent </title>
<path fill="none" stroke="#000000" stroke-dasharray="5,2" d="M900,-187.1061C900,-187.1061 900,-205.991 900,-205.991"/>
<polygon fill="#000000" stroke="#000000" points="896.5001,-205.9909 900,-215.991 903.5001,-205.991 896.5001,-205.9909"/>
</g>
<!-- HmctsProgressBarComponent  -->
<g id="node16" class="node">
<title>HmctsProgressBarComponent </title>
<polygon fill="#fb8072" stroke="#000000" points="767.7989,-252 578.2011,-252 578.2011,-216 767.7989,-216 767.7989,-252"/>
<text text-anchor="middle" x="673" y="-229.8" font-family="Times,serif" font-size="14.00" fill="#000000">HmctsProgressBarComponent </text>
</g>
<!-- HmctsModule&#45;&gt;HmctsProgressBarComponent  -->
<g id="edge15" class="edge">
<title>HmctsModule&#45;&gt;HmctsProgressBarComponent </title>
<path fill="none" stroke="#000000" stroke-dasharray="5,2" d="M851.9487,-183C777.9463,-183 644.5335,-183 644.5335,-183 644.5335,-183 644.5335,-205.8757 644.5335,-205.8757"/>
<polygon fill="#000000" stroke="#000000" points="641.0336,-205.8757 644.5335,-215.8757 648.0336,-205.8757 641.0336,-205.8757"/>
</g>
<!-- HmctsSubNavigationComponent  -->
<g id="node17" class="node">
<title>HmctsSubNavigationComponent </title>
<polygon fill="#fb8072" stroke="#000000" points="559.8699,-252 354.1301,-252 354.1301,-216 559.8699,-216 559.8699,-252"/>
<text text-anchor="middle" x="457" y="-229.8" font-family="Times,serif" font-size="14.00" fill="#000000">HmctsSubNavigationComponent </text>
</g>
<!-- HmctsModule&#45;&gt;HmctsSubNavigationComponent  -->
<g id="edge16" class="edge">
<title>HmctsModule&#45;&gt;HmctsSubNavigationComponent </title>
<path fill="none" stroke="#000000" stroke-dasharray="5,2" d="M851.7678,-179C731.6251,-179 428.6051,-179 428.6051,-179 428.6051,-179 428.6051,-205.9909 428.6051,-205.9909"/>
<polygon fill="#000000" stroke="#000000" points="425.1052,-205.9909 428.6051,-215.9909 432.1052,-205.991 425.1052,-205.9909"/>
</g>
<!-- HmctsTimelineComponent  -->
<g id="node18" class="node">
<title>HmctsTimelineComponent </title>
<polygon fill="#fb8072" stroke="#000000" points="335.9236,-252 164.0764,-252 164.0764,-216 335.9236,-216 335.9236,-252"/>
<text text-anchor="middle" x="250" y="-229.8" font-family="Times,serif" font-size="14.00" fill="#000000">HmctsTimelineComponent </text>
</g>
<!-- HmctsModule&#45;&gt;HmctsTimelineComponent  -->
<g id="edge17" class="edge">
<title>HmctsModule&#45;&gt;HmctsTimelineComponent </title>
<path fill="none" stroke="#000000" stroke-dasharray="5,2" d="M851.8867,-175C702.4643,-175 256.375,-175 256.375,-175 256.375,-175 256.375,-205.9775 256.375,-205.9775"/>
<polygon fill="#000000" stroke="#000000" points="252.8751,-205.9774 256.375,-215.9775 259.8751,-205.9775 252.8751,-205.9774"/>
</g>
<!-- SentenceCasePipe  -->
<g id="node19" class="node">
<title>SentenceCasePipe </title>
<polygon fill="#fb8072" stroke="#000000" points="146.1299,-252 23.8701,-252 23.8701,-216 146.1299,-216 146.1299,-252"/>
<text text-anchor="middle" x="85" y="-229.8" font-family="Times,serif" font-size="14.00" fill="#000000">SentenceCasePipe </text>
</g>
<!-- HmctsModule&#45;&gt;SentenceCasePipe  -->
<g id="edge18" class="edge">
<title>HmctsModule&#45;&gt;SentenceCasePipe </title>
<path fill="none" stroke="#000000" stroke-dasharray="5,2" d="M851.9278,-171C678.1687,-171 92.875,-171 92.875,-171 92.875,-171 92.875,-205.7778 92.875,-205.7778"/>
<polygon fill="#000000" stroke="#000000" points="89.3751,-205.7778 92.875,-215.7778 96.3751,-205.7778 89.3751,-205.7778"/>
</g>
</g>
</svg>
