<?xml version="1.0" encoding="UTF-8" standalone="no"?>
<!DOCTYPE svg PUBLIC "-//W3C//DTD SVG 1.1//EN"
 "http://www.w3.org/Graphics/SVG/1.1/DTD/svg11.dtd">
<!-- Generated by graphviz version 2.40.1 (20161225.0304)
 -->
<!-- Title: dependencies Pages: 1 -->
<svg width="1023pt" height="284pt"
 viewBox="0.00 0.00 1023.00 284.00" xmlns="http://www.w3.org/2000/svg" xmlns:xlink="http://www.w3.org/1999/xlink">
<g id="graph0" class="graph" transform="scale(1 1) rotate(0) translate(4 280)">
<title>dependencies</title>
<polygon fill="#ffffff" stroke="transparent" points="-4,4 -4,-280 1019,-280 1019,4 -4,4"/>
<text text-anchor="start" x="486.5091" y="-42.4" font-family="sans-serif" font-weight="bold" font-size="14.00" fill="#000000">Legend</text>
<polygon fill="#ffffb3" stroke="transparent" points="273.5,-10 273.5,-30 293.5,-30 293.5,-10 273.5,-10"/>
<text text-anchor="start" x="297.129" y="-15.4" font-family="sans-serif" font-size="14.00" fill="#000000"> &#160;Declarations</text>
<polygon fill="#8dd3c7" stroke="transparent" points="386.5,-10 386.5,-30 406.5,-30 406.5,-10 386.5,-10"/>
<text text-anchor="start" x="410.2251" y="-15.4" font-family="sans-serif" font-size="14.00" fill="#000000"> &#160;Module</text>
<polygon fill="#80b1d3" stroke="transparent" points="472.5,-10 472.5,-30 492.5,-30 492.5,-10 472.5,-10"/>
<text text-anchor="start" x="496.2812" y="-15.4" font-family="sans-serif" font-size="14.00" fill="#000000"> &#160;Bootstrap</text>
<polygon fill="#fdb462" stroke="transparent" points="569.5,-10 569.5,-30 589.5,-30 589.5,-10 569.5,-10"/>
<text text-anchor="start" x="593.1732" y="-15.4" font-family="sans-serif" font-size="14.00" fill="#000000"> &#160;Providers</text>
<polygon fill="#fb8072" stroke="transparent" points="665.5,-10 665.5,-30 685.5,-30 685.5,-10 665.5,-10"/>
<text text-anchor="start" x="689.2258" y="-15.4" font-family="sans-serif" font-size="14.00" fill="#000000"> &#160;Exports</text>
<g id="clust1" class="cluster">
<title>cluster_AppModule</title>
<polygon fill="none" stroke="#000000" stroke-dasharray="1,5" points="8,-70 8,-268 1007,-268 1007,-70 8,-70"/>
</g>
<g id="clust2" class="cluster">
<title>cluster_AppModule_declarations</title>
<polygon fill="none" stroke="#000000" points="877,-78 877,-130 999,-130 999,-78 877,-78"/>
</g>
<g id="clust4" class="cluster">
<title>cluster_AppModule_imports</title>
<polygon fill="none" stroke="#000000" points="174,-78 174,-130 869,-130 869,-78 174,-78"/>
</g>
<g id="clust6" class="cluster">
<title>cluster_AppModule_bootstrap</title>
<polygon fill="none" stroke="#000000" points="464,-208 464,-260 588,-260 588,-208 464,-208"/>
</g>
<g id="clust7" class="cluster">
<title>cluster_AppModule_providers</title>
<polygon fill="none" stroke="#000000" points="16,-78 16,-130 166,-130 166,-78 16,-78"/>
</g>
<!-- AppComponent -->
<g id="node1" class="node">
<title>AppComponent</title>
<polygon fill="#ffffb3" stroke="#000000" points="990.9399,-122 885.0601,-122 885.0601,-86 990.9399,-86 990.9399,-122"/>
<text text-anchor="middle" x="938" y="-99.8" font-family="Times,serif" font-size="14.00" fill="#000000">AppComponent</text>
</g>
<!-- AppModule -->
<g id="node2" class="node">
<title>AppModule</title>
<polygon fill="#8dd3c7" stroke="#000000" points="567.6571,-187 564.6571,-191 543.6571,-191 540.6571,-187 484.3429,-187 484.3429,-151 567.6571,-151 567.6571,-187"/>
<text text-anchor="middle" x="526" y="-164.8" font-family="Times,serif" font-size="14.00" fill="#000000">AppModule</text>
</g>
<!-- AppComponent&#45;&gt;AppModule -->
<g id="edge1" class="edge">
<title>AppComponent&#45;&gt;AppModule</title>
<path fill="none" stroke="#000000" d="M938,-122.2921C938,-144.2057 938,-178 938,-178 938,-178 577.7721,-178 577.7721,-178"/>
<polygon fill="#000000" stroke="#000000" points="577.7721,-174.5001 567.7721,-178 577.772,-181.5001 577.7721,-174.5001"/>
</g>
<!-- AppComponent  -->
<g id="node9" class="node">
<title>AppComponent </title>
<polygon fill="#80b1d3" stroke="#000000" points="580.439,-252 471.561,-252 471.561,-216 580.439,-216 580.439,-252"/>
<text text-anchor="middle" x="526" y="-229.8" font-family="Times,serif" font-size="14.00" fill="#000000">AppComponent </text>
</g>
<!-- AppModule&#45;&gt;AppComponent  -->
<g id="edge8" class="edge">
<title>AppModule&#45;&gt;AppComponent </title>
<path fill="none" stroke="#000000" stroke-dasharray="1,5" d="M526,-187.1061C526,-187.1061 526,-205.991 526,-205.991"/>
<polygon fill="#000000" stroke="#000000" points="522.5001,-205.9909 526,-215.991 529.5001,-205.991 522.5001,-205.9909"/>
</g>
<!-- AuthModule -->
<g id="node3" class="node">
<title>AuthModule</title>
<polygon fill="#8dd3c7" stroke="#000000" points="860.5482,-122 857.5482,-126 836.5482,-126 833.5482,-122 773.4518,-122 773.4518,-86 860.5482,-86 860.5482,-122"/>
<text text-anchor="middle" x="817" y="-99.8" font-family="Times,serif" font-size="14.00" fill="#000000">AuthModule</text>
</g>
<!-- AuthModule&#45;&gt;AppModule -->
<g id="edge2" class="edge">
<title>AuthModule&#45;&gt;AppModule</title>
<path fill="none" stroke="#000000" d="M817,-122.1061C817,-141.3391 817,-169 817,-169 817,-169 577.6932,-169 577.6932,-169"/>
<polygon fill="#000000" stroke="#000000" points="577.6932,-165.5001 567.6932,-169 577.6932,-172.5001 577.6932,-165.5001"/>
</g>
<!-- DomainModule -->
<g id="node4" class="node">
<title>DomainModule</title>
<polygon fill="#8dd3c7" stroke="#000000" points="755.1528,-122 752.1528,-126 731.1528,-126 728.1528,-122 650.8472,-122 650.8472,-86 755.1528,-86 755.1528,-122"/>
<text text-anchor="middle" x="703" y="-99.8" font-family="Times,serif" font-size="14.00" fill="#000000">DomainModule</text>
</g>
<!-- DomainModule&#45;&gt;AppModule -->
<g id="edge3" class="edge">
<title>DomainModule&#45;&gt;AppModule</title>
<path fill="none" stroke="#000000" d="M703,-122.027C703,-138.3976 703,-160 703,-160 703,-160 577.9465,-160 577.9465,-160"/>
<polygon fill="#000000" stroke="#000000" points="577.9466,-156.5001 567.9465,-160 577.9465,-163.5001 577.9466,-156.5001"/>
</g>
<!-- GovukModule -->
<g id="node5" class="node">
<title>GovukModule</title>
<polygon fill="#8dd3c7" stroke="#000000" points="632.657,-122 629.657,-126 608.657,-126 605.657,-122 535.343,-122 535.343,-86 632.657,-86 632.657,-122"/>
<text text-anchor="middle" x="584" y="-99.8" font-family="Times,serif" font-size="14.00" fill="#000000">GovukModule</text>
</g>
<!-- GovukModule&#45;&gt;AppModule -->
<g id="edge4" class="edge">
<title>GovukModule&#45;&gt;AppModule</title>
<path fill="none" stroke="#000000" d="M551.5,-122.1061C551.5,-122.1061 551.5,-140.991 551.5,-140.991"/>
<polygon fill="#000000" stroke="#000000" points="548.0001,-140.9909 551.5,-150.991 555.0001,-140.991 548.0001,-140.9909"/>
</g>
<!-- HmctsModule -->
<g id="node6" class="node">
<title>HmctsModule</title>
<polygon fill="#8dd3c7" stroke="#000000" points="517.0968,-122 514.0968,-126 493.0968,-126 490.0968,-122 420.9032,-122 420.9032,-86 517.0968,-86 517.0968,-122"/>
<text text-anchor="middle" x="469" y="-99.8" font-family="Times,serif" font-size="14.00" fill="#000000">HmctsModule</text>
</g>
<!-- HmctsModule&#45;&gt;AppModule -->
<g id="edge5" class="edge">
<title>HmctsModule&#45;&gt;AppModule</title>
<path fill="none" stroke="#000000" d="M500.6101,-122.1061C500.6101,-122.1061 500.6101,-140.991 500.6101,-140.991"/>
<polygon fill="#000000" stroke="#000000" points="497.1102,-140.9909 500.6101,-150.991 504.1102,-140.991 497.1102,-140.9909"/>
</g>
<!-- RoutingModule -->
<g id="node7" class="node">
<title>RoutingModule</title>
<polygon fill="#8dd3c7" stroke="#000000" points="403.1681,-122 400.1681,-126 379.1681,-126 376.1681,-122 298.8319,-122 298.8319,-86 403.1681,-86 403.1681,-122"/>
<text text-anchor="middle" x="351" y="-99.8" font-family="Times,serif" font-size="14.00" fill="#000000">RoutingModule</text>
</g>
<!-- RoutingModule&#45;&gt;AppModule -->
<g id="edge6" class="edge">
<title>RoutingModule&#45;&gt;AppModule</title>
<path fill="none" stroke="#000000" d="M351,-122.027C351,-138.3976 351,-160 351,-160 351,-160 474.0831,-160 474.0831,-160"/>
<polygon fill="#000000" stroke="#000000" points="474.0832,-163.5001 484.0831,-160 474.0831,-156.5001 474.0832,-163.5001"/>
</g>
<!-- SharedModule -->
<g id="node8" class="node">
<title>SharedModule</title>
<polygon fill="#8dd3c7" stroke="#000000" points="280.4231,-122 277.4231,-126 256.4231,-126 253.4231,-122 181.5769,-122 181.5769,-86 280.4231,-86 280.4231,-122"/>
<text text-anchor="middle" x="231" y="-99.8" font-family="Times,serif" font-size="14.00" fill="#000000">SharedModule</text>
</g>
<!-- SharedModule&#45;&gt;AppModule -->
<g id="edge7" class="edge">
<title>SharedModule&#45;&gt;AppModule</title>
<path fill="none" stroke="#000000" d="M231,-122.1061C231,-141.3391 231,-169 231,-169 231,-169 474.047,-169 474.047,-169"/>
<polygon fill="#000000" stroke="#000000" points="474.047,-172.5001 484.047,-169 474.0469,-165.5001 474.047,-172.5001"/>
</g>
<!-- ConfigService -->
<g id="node10" class="node">
<title>ConfigService</title>
<ellipse fill="#fdb462" stroke="#000000" cx="91" cy="-104" rx="66.6325" ry="18"/>
<text text-anchor="middle" x="91" y="-99.8" font-family="Times,serif" font-size="14.00" fill="#000000">ConfigService</text>
</g>
<!-- ConfigService&#45;&gt;AppModule -->
<g id="edge9" class="edge">
<title>ConfigService&#45;&gt;AppModule</title>
<path fill="none" stroke="#000000" d="M91,-122.2921C91,-144.2057 91,-178 91,-178 91,-178 474.2904,-178 474.2904,-178"/>
<polygon fill="#000000" stroke="#000000" points="474.2904,-181.5001 484.2904,-178 474.2903,-174.5001 474.2904,-181.5001"/>
</g>
</g>
</svg>
