<?xml version="1.0" encoding="UTF-8" standalone="no"?>
<!DOCTYPE svg PUBLIC "-//W3C//DTD SVG 1.1//EN"
 "http://www.w3.org/Graphics/SVG/1.1/DTD/svg11.dtd">
<!-- Generated by graphviz version 2.40.1 (20161225.0304)
 -->
<!-- Title: dependencies Pages: 1 -->
<svg width="2215pt" height="284pt"
 viewBox="0.00 0.00 2215.00 284.00" xmlns="http://www.w3.org/2000/svg" xmlns:xlink="http://www.w3.org/1999/xlink">
<g id="graph0" class="graph" transform="scale(1 1) rotate(0) translate(4 280)">
<title>dependencies</title>
<polygon fill="#ffffff" stroke="transparent" points="-4,4 -4,-280 2211,-280 2211,4 -4,4"/>
<text text-anchor="start" x="1082.5091" y="-42.4" font-family="sans-serif" font-weight="bold" font-size="14.00" fill="#000000">Legend</text>
<polygon fill="#ffffb3" stroke="transparent" points="869.5,-10 869.5,-30 889.5,-30 889.5,-10 869.5,-10"/>
<text text-anchor="start" x="893.129" y="-15.4" font-family="sans-serif" font-size="14.00" fill="#000000"> &#160;Declarations</text>
<polygon fill="#8dd3c7" stroke="transparent" points="982.5,-10 982.5,-30 1002.5,-30 1002.5,-10 982.5,-10"/>
<text text-anchor="start" x="1006.2251" y="-15.4" font-family="sans-serif" font-size="14.00" fill="#000000"> &#160;Module</text>
<polygon fill="#80b1d3" stroke="transparent" points="1068.5,-10 1068.5,-30 1088.5,-30 1088.5,-10 1068.5,-10"/>
<text text-anchor="start" x="1092.2812" y="-15.4" font-family="sans-serif" font-size="14.00" fill="#000000"> &#160;Bootstrap</text>
<polygon fill="#fdb462" stroke="transparent" points="1165.5,-10 1165.5,-30 1185.5,-30 1185.5,-10 1165.5,-10"/>
<text text-anchor="start" x="1189.1732" y="-15.4" font-family="sans-serif" font-size="14.00" fill="#000000"> &#160;Providers</text>
<polygon fill="#fb8072" stroke="transparent" points="1261.5,-10 1261.5,-30 1281.5,-30 1281.5,-10 1261.5,-10"/>
<text text-anchor="start" x="1285.2258" y="-15.4" font-family="sans-serif" font-size="14.00" fill="#000000"> &#160;Exports</text>
<g id="clust1" class="cluster">
<title>cluster_DomainModule</title>
<polygon fill="none" stroke="#000000" stroke-dasharray="1,5" points="8,-70 8,-268 2199,-268 2199,-70 8,-70"/>
</g>
<g id="clust2" class="cluster">
<title>cluster_DomainModule_declarations</title>
<polygon fill="none" stroke="#000000" points="812,-78 812,-130 2191,-130 2191,-78 812,-78"/>
</g>
<g id="clust11" class="cluster">
<title>cluster_DomainModule_imports</title>
<polygon fill="none" stroke="#000000" points="326,-78 326,-130 804,-130 804,-78 326,-78"/>
</g>
<g id="clust12" class="cluster">
<title>cluster_DomainModule_exports</title>
<polygon fill="none" stroke="#000000" points="215,-208 215,-260 1773,-260 1773,-208 215,-208"/>
</g>
<g id="clust14" class="cluster">
<title>cluster_DomainModule_providers</title>
<polygon fill="none" stroke="#000000" points="16,-78 16,-130 318,-130 318,-78 16,-78"/>
</g>
<!-- CaseBarComponent -->
<g id="node1" class="node">
<title>CaseBarComponent</title>
<polygon fill="#ffffb3" stroke="#000000" points="2183.2548,-122 2054.7452,-122 2054.7452,-86 2183.2548,-86 2183.2548,-122"/>
<text text-anchor="middle" x="2119" y="-99.8" font-family="Times,serif" font-size="14.00" fill="#000000">CaseBarComponent</text>
</g>
<!-- DomainModule -->
<g id="node9" class="node">
<title>DomainModule</title>
<polygon fill="#8dd3c7" stroke="#000000" points="1041.1528,-187 1038.1528,-191 1017.1528,-191 1014.1528,-187 936.8472,-187 936.8472,-151 1041.1528,-151 1041.1528,-187"/>
<text text-anchor="middle" x="989" y="-164.8" font-family="Times,serif" font-size="14.00" fill="#000000">DomainModule</text>
</g>
<!-- CaseBarComponent&#45;&gt;DomainModule -->
<g id="edge1" class="edge">
<title>CaseBarComponent&#45;&gt;DomainModule</title>
<path fill="none" stroke="#000000" d="M2119,-122.308C2119,-142.1455 2119,-171 2119,-171 2119,-171 1051.236,-171 1051.236,-171"/>
<polygon fill="#000000" stroke="#000000" points="1051.236,-167.5001 1041.236,-171 1051.2359,-174.5001 1051.236,-167.5001"/>
</g>
<!-- CheckQuestionsComponent -->
<g id="node2" class="node">
<title>CheckQuestionsComponent</title>
<polygon fill="#ffffb3" stroke="#000000" points="2036.5898,-122 1863.4102,-122 1863.4102,-86 2036.5898,-86 2036.5898,-122"/>
<text text-anchor="middle" x="1950" y="-99.8" font-family="Times,serif" font-size="14.00" fill="#000000">CheckQuestionsComponent</text>
</g>
<!-- CheckQuestionsComponent&#45;&gt;DomainModule -->
<g id="edge2" class="edge">
<title>CheckQuestionsComponent&#45;&gt;DomainModule</title>
<path fill="none" stroke="#000000" d="M1950,-122.1686C1950,-141.0898 1950,-168 1950,-168 1950,-168 1051.35,-168 1051.35,-168"/>
<polygon fill="#000000" stroke="#000000" points="1051.35,-164.5001 1041.35,-168 1051.35,-171.5001 1051.35,-164.5001"/>
</g>
<!-- CreateQuestionsComponent -->
<g id="node3" class="node">
<title>CreateQuestionsComponent</title>
<polygon fill="#ffffb3" stroke="#000000" points="1845.8557,-122 1672.1443,-122 1672.1443,-86 1845.8557,-86 1845.8557,-122"/>
<text text-anchor="middle" x="1759" y="-99.8" font-family="Times,serif" font-size="14.00" fill="#000000">CreateQuestionsComponent</text>
</g>
<!-- CreateQuestionsComponent&#45;&gt;DomainModule -->
<g id="edge3" class="edge">
<title>CreateQuestionsComponent&#45;&gt;DomainModule</title>
<path fill="none" stroke="#000000" d="M1718.5998,-122.302C1718.5998,-140.2699 1718.5998,-165 1718.5998,-165 1718.5998,-165 1051.1782,-165 1051.1782,-165"/>
<polygon fill="#000000" stroke="#000000" points="1051.1783,-161.5001 1041.1782,-165 1051.1782,-168.5001 1051.1783,-161.5001"/>
</g>
<!-- DeleteQuestionComponent -->
<g id="node4" class="node">
<title>DeleteQuestionComponent</title>
<polygon fill="#ffffb3" stroke="#000000" points="1654.4115,-122 1485.5885,-122 1485.5885,-86 1654.4115,-86 1654.4115,-122"/>
<text text-anchor="middle" x="1570" y="-99.8" font-family="Times,serif" font-size="14.00" fill="#000000">DeleteQuestionComponent</text>
</g>
<!-- DeleteQuestionComponent&#45;&gt;DomainModule -->
<g id="edge4" class="edge">
<title>DeleteQuestionComponent&#45;&gt;DomainModule</title>
<path fill="none" stroke="#000000" d="M1528.772,-122.0352C1528.772,-138.7344 1528.772,-161 1528.772,-161 1528.772,-161 1051.2461,-161 1051.2461,-161"/>
<polygon fill="#000000" stroke="#000000" points="1051.2461,-157.5001 1041.2461,-161 1051.246,-164.5001 1051.2461,-157.5001"/>
</g>
<!-- EditQuestionComponent -->
<g id="node5" class="node">
<title>EditQuestionComponent</title>
<polygon fill="#ffffb3" stroke="#000000" points="1467.7133,-122 1312.2867,-122 1312.2867,-86 1467.7133,-86 1467.7133,-122"/>
<text text-anchor="middle" x="1390" y="-99.8" font-family="Times,serif" font-size="14.00" fill="#000000">EditQuestionComponent</text>
</g>
<!-- EditQuestionComponent&#45;&gt;DomainModule -->
<g id="edge5" class="edge">
<title>EditQuestionComponent&#45;&gt;DomainModule</title>
<path fill="none" stroke="#000000" d="M1388.8441,-122.2819C1388.8441,-137.9478 1388.8441,-158 1388.8441,-158 1388.8441,-158 1051.2726,-158 1051.2726,-158"/>
<polygon fill="#000000" stroke="#000000" points="1051.2727,-154.5001 1041.2726,-158 1051.2726,-161.5001 1051.2727,-154.5001"/>
</g>
<!-- HeaderComponent -->
<g id="node6" class="node">
<title>HeaderComponent</title>
<polygon fill="#ffffb3" stroke="#000000" points="1294.7437,-122 1173.2563,-122 1173.2563,-86 1294.7437,-86 1294.7437,-122"/>
<text text-anchor="middle" x="1234" y="-99.8" font-family="Times,serif" font-size="14.00" fill="#000000">HeaderComponent</text>
</g>
<!-- HeaderComponent&#45;&gt;DomainModule -->
<g id="edge6" class="edge">
<title>HeaderComponent&#45;&gt;DomainModule</title>
<path fill="none" stroke="#000000" d="M1221.903,-122.1243C1221.903,-136.7832 1221.903,-155 1221.903,-155 1221.903,-155 1051.268,-155 1051.268,-155"/>
<polygon fill="#000000" stroke="#000000" points="1051.268,-151.5001 1041.268,-155 1051.268,-158.5001 1051.268,-151.5001"/>
</g>
<!-- SearchResultComponent -->
<g id="node7" class="node">
<title>SearchResultComponent</title>
<polygon fill="#ffffb3" stroke="#000000" points="1155.6965,-122 1000.3035,-122 1000.3035,-86 1155.6965,-86 1155.6965,-122"/>
<text text-anchor="middle" x="1078" y="-99.8" font-family="Times,serif" font-size="14.00" fill="#000000">SearchResultComponent</text>
</g>
<!-- SearchResultComponent&#45;&gt;DomainModule -->
<g id="edge7" class="edge">
<title>SearchResultComponent&#45;&gt;DomainModule</title>
<path fill="none" stroke="#000000" d="M1020.864,-122.1061C1020.864,-122.1061 1020.864,-140.991 1020.864,-140.991"/>
<polygon fill="#000000" stroke="#000000" points="1017.364,-140.9909 1020.864,-150.991 1024.364,-140.991 1017.364,-140.9909"/>
</g>
<!-- ViewQuestionComponent -->
<g id="node8" class="node">
<title>ViewQuestionComponent</title>
<polygon fill="#ffffb3" stroke="#000000" points="982.1979,-122 819.8021,-122 819.8021,-86 982.1979,-86 982.1979,-122"/>
<text text-anchor="middle" x="901" y="-99.8" font-family="Times,serif" font-size="14.00" fill="#000000">ViewQuestionComponent</text>
</g>
<!-- ViewQuestionComponent&#45;&gt;DomainModule -->
<g id="edge8" class="edge">
<title>ViewQuestionComponent&#45;&gt;DomainModule</title>
<path fill="none" stroke="#000000" d="M959.3864,-122.1061C959.3864,-122.1061 959.3864,-140.991 959.3864,-140.991"/>
<polygon fill="#000000" stroke="#000000" points="955.8865,-140.9909 959.3864,-150.991 962.8865,-140.991 955.8865,-140.9909"/>
</g>
<!-- CaseBarComponent  -->
<g id="node14" class="node">
<title>CaseBarComponent </title>
<polygon fill="#fb8072" stroke="#000000" points="1765.2548,-252 1632.7452,-252 1632.7452,-216 1765.2548,-216 1765.2548,-252"/>
<text text-anchor="middle" x="1699" y="-229.8" font-family="Times,serif" font-size="14.00" fill="#000000">CaseBarComponent </text>
</g>
<!-- DomainModule&#45;&gt;CaseBarComponent  -->
<g id="edge13" class="edge">
<title>DomainModule&#45;&gt;CaseBarComponent </title>
<path fill="none" stroke="#000000" stroke-dasharray="5,2" d="M1041.1822,-174C1196.2487,-174 1643.5391,-174 1643.5391,-174 1643.5391,-174 1643.5391,-205.998 1643.5391,-205.998"/>
<polygon fill="#000000" stroke="#000000" points="1640.0392,-205.998 1643.5391,-215.998 1647.0392,-205.9981 1640.0392,-205.998"/>
</g>
<!-- CaseViewerModule  -->
<g id="node15" class="node">
<title>CaseViewerModule </title>
<polygon fill="#fb8072" stroke="#000000" points="1614.9546,-252 1483.0454,-252 1483.0454,-216 1614.9546,-216 1614.9546,-252"/>
<text text-anchor="middle" x="1549" y="-229.8" font-family="Times,serif" font-size="14.00" fill="#000000">CaseViewerModule </text>
</g>
<!-- DomainModule&#45;&gt;CaseViewerModule  -->
<g id="edge14" class="edge">
<title>DomainModule&#45;&gt;CaseViewerModule </title>
<path fill="none" stroke="#000000" stroke-dasharray="5,2" d="M1041.228,-178C1184.2644,-178 1571.7494,-178 1571.7494,-178 1571.7494,-178 1571.7494,-205.973 1571.7494,-205.973"/>
<polygon fill="#000000" stroke="#000000" points="1568.2495,-205.973 1571.7494,-215.973 1575.2495,-205.973 1568.2495,-205.973"/>
</g>
<!-- CheckQuestionsComponent  -->
<g id="node16" class="node">
<title>CheckQuestionsComponent </title>
<polygon fill="#fb8072" stroke="#000000" points="1465.0903,-252 1288.9097,-252 1288.9097,-216 1465.0903,-216 1465.0903,-252"/>
<text text-anchor="middle" x="1377" y="-229.8" font-family="Times,serif" font-size="14.00" fill="#000000">CheckQuestionsComponent </text>
</g>
<!-- DomainModule&#45;&gt;CheckQuestionsComponent  -->
<g id="edge15" class="edge">
<title>DomainModule&#45;&gt;CheckQuestionsComponent </title>
<path fill="none" stroke="#000000" stroke-dasharray="5,2" d="M1041.3084,-181C1130.7754,-181 1303.6325,-181 1303.6325,-181 1303.6325,-181 1303.6325,-205.7604 1303.6325,-205.7604"/>
<polygon fill="#000000" stroke="#000000" points="1300.1326,-205.7604 1303.6325,-215.7604 1307.1326,-205.7604 1300.1326,-205.7604"/>
</g>
<!-- CreateQuestionsComponent  -->
<g id="node17" class="node">
<title>CreateQuestionsComponent </title>
<polygon fill="#fb8072" stroke="#000000" points="1270.856,-252 1093.144,-252 1093.144,-216 1270.856,-216 1270.856,-252"/>
<text text-anchor="middle" x="1182" y="-229.8" font-family="Times,serif" font-size="14.00" fill="#000000">CreateQuestionsComponent </text>
</g>
<!-- DomainModule&#45;&gt;CreateQuestionsComponent  -->
<g id="edge16" class="edge">
<title>DomainModule&#45;&gt;CreateQuestionsComponent </title>
<path fill="none" stroke="#000000" stroke-dasharray="5,2" d="M1041.3725,-184C1079.4909,-184 1124.4602,-184 1124.4602,-184 1124.4602,-184 1124.4602,-205.9489 1124.4602,-205.9489"/>
<polygon fill="#000000" stroke="#000000" points="1120.9603,-205.9488 1124.4602,-215.9489 1127.9603,-205.9489 1120.9603,-205.9488"/>
</g>
<!-- DeleteQuestionComponent  -->
<g id="node18" class="node">
<title>DeleteQuestionComponent </title>
<polygon fill="#fb8072" stroke="#000000" points="1074.911,-252 903.089,-252 903.089,-216 1074.911,-216 1074.911,-252"/>
<text text-anchor="middle" x="989" y="-229.8" font-family="Times,serif" font-size="14.00" fill="#000000">DeleteQuestionComponent </text>
</g>
<!-- DomainModule&#45;&gt;DeleteQuestionComponent  -->
<g id="edge17" class="edge">
<title>DomainModule&#45;&gt;DeleteQuestionComponent </title>
<path fill="none" stroke="#000000" stroke-dasharray="5,2" d="M989,-187.1061C989,-187.1061 989,-205.991 989,-205.991"/>
<polygon fill="#000000" stroke="#000000" points="985.5001,-205.9909 989,-215.991 992.5001,-205.991 985.5001,-205.9909"/>
</g>
<!-- EditQuestionComponent  -->
<g id="node19" class="node">
<title>EditQuestionComponent </title>
<polygon fill="#fb8072" stroke="#000000" points="885.2135,-252 726.7865,-252 726.7865,-216 885.2135,-216 885.2135,-252"/>
<text text-anchor="middle" x="806" y="-229.8" font-family="Times,serif" font-size="14.00" fill="#000000">EditQuestionComponent </text>
</g>
<!-- DomainModule&#45;&gt;EditQuestionComponent  -->
<g id="edge18" class="edge">
<title>DomainModule&#45;&gt;EditQuestionComponent </title>
<path fill="none" stroke="#000000" stroke-dasharray="5,2" d="M936.6654,-184C898.208,-184 852.6289,-184 852.6289,-184 852.6289,-184 852.6289,-205.9489 852.6289,-205.9489"/>
<polygon fill="#000000" stroke="#000000" points="849.1289,-205.9488 852.6289,-215.9489 856.1289,-205.9489 849.1289,-205.9488"/>
</g>
<!-- HeaderComponent  -->
<g id="node20" class="node">
<title>HeaderComponent </title>
<polygon fill="#fb8072" stroke="#000000" points="708.7436,-252 583.2564,-252 583.2564,-216 708.7436,-216 708.7436,-252"/>
<text text-anchor="middle" x="646" y="-229.8" font-family="Times,serif" font-size="14.00" fill="#000000">HeaderComponent </text>
</g>
<!-- DomainModule&#45;&gt;HeaderComponent  -->
<g id="edge19" class="edge">
<title>DomainModule&#45;&gt;HeaderComponent </title>
<path fill="none" stroke="#000000" stroke-dasharray="5,2" d="M936.616,-181C854.1647,-181 703.3968,-181 703.3968,-181 703.3968,-181 703.3968,-205.7604 703.3968,-205.7604"/>
<polygon fill="#000000" stroke="#000000" points="699.8968,-205.7604 703.3968,-215.7604 706.8968,-205.7604 699.8968,-205.7604"/>
</g>
<!-- SearchResultComponent  -->
<g id="node21" class="node">
<title>SearchResultComponent </title>
<polygon fill="#fb8072" stroke="#000000" points="565.1967,-252 406.8033,-252 406.8033,-216 565.1967,-216 565.1967,-252"/>
<text text-anchor="middle" x="486" y="-229.8" font-family="Times,serif" font-size="14.00" fill="#000000">SearchResultComponent </text>
</g>
<!-- DomainModule&#45;&gt;SearchResultComponent  -->
<g id="edge20" class="edge">
<title>DomainModule&#45;&gt;SearchResultComponent </title>
<path fill="none" stroke="#000000" stroke-dasharray="5,2" d="M936.3945,-178C807.9194,-178 488.6027,-178 488.6027,-178 488.6027,-178 488.6027,-205.973 488.6027,-205.973"/>
<polygon fill="#000000" stroke="#000000" points="485.1028,-205.973 488.6027,-215.973 492.1028,-205.973 485.1028,-205.973"/>
</g>
<!-- ViewQuestionComponent  -->
<g id="node22" class="node">
<title>ViewQuestionComponent </title>
<polygon fill="#fb8072" stroke="#000000" points="388.6981,-252 223.3019,-252 223.3019,-216 388.6981,-216 388.6981,-252"/>
<text text-anchor="middle" x="306" y="-229.8" font-family="Times,serif" font-size="14.00" fill="#000000">ViewQuestionComponent </text>
</g>
<!-- DomainModule&#45;&gt;ViewQuestionComponent  -->
<g id="edge21" class="edge">
<title>DomainModule&#45;&gt;ViewQuestionComponent </title>
<path fill="none" stroke="#000000" stroke-dasharray="5,2" d="M936.8323,-174C786.2113,-174 361.3189,-174 361.3189,-174 361.3189,-174 361.3189,-205.998 361.3189,-205.998"/>
<polygon fill="#000000" stroke="#000000" points="357.819,-205.998 361.3189,-215.998 364.819,-205.9981 357.819,-205.998"/>
</g>
<!-- GovukModule -->
<g id="node10" class="node">
<title>GovukModule</title>
<polygon fill="#8dd3c7" stroke="#000000" points="795.657,-122 792.657,-126 771.657,-126 768.657,-122 698.343,-122 698.343,-86 795.657,-86 795.657,-122"/>
<text text-anchor="middle" x="747" y="-99.8" font-family="Times,serif" font-size="14.00" fill="#000000">GovukModule</text>
</g>
<!-- GovukModule&#45;&gt;DomainModule -->
<g id="edge9" class="edge">
<title>GovukModule&#45;&gt;DomainModule</title>
<path fill="none" stroke="#000000" d="M761.2358,-122.1243C761.2358,-136.7832 761.2358,-155 761.2358,-155 761.2358,-155 926.7463,-155 926.7463,-155"/>
<polygon fill="#000000" stroke="#000000" points="926.7463,-158.5001 936.7463,-155 926.7463,-151.5001 926.7463,-158.5001"/>
</g>
<!-- HmctsModule -->
<g id="node11" class="node">
<title>HmctsModule</title>
<polygon fill="#8dd3c7" stroke="#000000" points="680.0968,-122 677.0968,-126 656.0968,-126 653.0968,-122 583.9032,-122 583.9032,-86 680.0968,-86 680.0968,-122"/>
<text text-anchor="middle" x="632" y="-99.8" font-family="Times,serif" font-size="14.00" fill="#000000">HmctsModule</text>
</g>
<!-- HmctsModule&#45;&gt;DomainModule -->
<g id="edge10" class="edge">
<title>HmctsModule&#45;&gt;DomainModule</title>
<path fill="none" stroke="#000000" d="M632,-122.2819C632,-137.9478 632,-158 632,-158 632,-158 926.7068,-158 926.7068,-158"/>
<polygon fill="#000000" stroke="#000000" points="926.7068,-161.5001 936.7068,-158 926.7068,-154.5001 926.7068,-161.5001"/>
</g>
<!-- JUIFormsModule -->
<g id="node12" class="node">
<title>JUIFormsModule</title>
<polygon fill="#8dd3c7" stroke="#000000" points="565.5409,-122 562.5409,-126 541.5409,-126 538.5409,-122 450.4591,-122 450.4591,-86 565.5409,-86 565.5409,-122"/>
<text text-anchor="middle" x="508" y="-99.8" font-family="Times,serif" font-size="14.00" fill="#000000">JUIFormsModule</text>
</g>
<!-- JUIFormsModule&#45;&gt;DomainModule -->
<g id="edge11" class="edge">
<title>JUIFormsModule&#45;&gt;DomainModule</title>
<path fill="none" stroke="#000000" d="M526.9755,-122.0352C526.9755,-138.7344 526.9755,-161 526.9755,-161 526.9755,-161 926.4497,-161 926.4497,-161"/>
<polygon fill="#000000" stroke="#000000" points="926.4498,-164.5001 936.4497,-161 926.4497,-157.5001 926.4498,-164.5001"/>
</g>
<!-- SharedModule -->
<g id="node13" class="node">
<title>SharedModule</title>
<polygon fill="#8dd3c7" stroke="#000000" points="432.4231,-122 429.4231,-126 408.4231,-126 405.4231,-122 333.5769,-122 333.5769,-86 432.4231,-86 432.4231,-122"/>
<text text-anchor="middle" x="383" y="-99.8" font-family="Times,serif" font-size="14.00" fill="#000000">SharedModule</text>
</g>
<!-- SharedModule&#45;&gt;DomainModule -->
<g id="edge12" class="edge">
<title>SharedModule&#45;&gt;DomainModule</title>
<path fill="none" stroke="#000000" d="M419.4315,-122.302C419.4315,-140.2699 419.4315,-165 419.4315,-165 419.4315,-165 926.6912,-165 926.6912,-165"/>
<polygon fill="#000000" stroke="#000000" points="926.6913,-168.5001 936.6912,-165 926.6912,-161.5001 926.6913,-168.5001"/>
</g>
<!-- CaseService -->
<g id="node23" class="node">
<title>CaseService</title>
<ellipse fill="#fdb462" stroke="#000000" cx="251" cy="-104" rx="58.5232" ry="18"/>
<text text-anchor="middle" x="251" y="-99.8" font-family="Times,serif" font-size="14.00" fill="#000000">CaseService</text>
</g>
<!-- CaseService&#45;&gt;DomainModule -->
<g id="edge22" class="edge">
<title>CaseService&#45;&gt;DomainModule</title>
<path fill="none" stroke="#000000" d="M266.4561,-121.4883C266.4561,-140.4375 266.4561,-168 266.4561,-168 266.4561,-168 926.7458,-168 926.7458,-168"/>
<polygon fill="#000000" stroke="#000000" points="926.7458,-171.5001 936.7458,-168 926.7457,-164.5001 926.7458,-171.5001"/>
</g>
<!-- QuestionService -->
<g id="node24" class="node">
<title>QuestionService</title>
<ellipse fill="#fdb462" stroke="#000000" cx="99" cy="-104" rx="74.7168" ry="18"/>
<text text-anchor="middle" x="99" y="-99.8" font-family="Times,serif" font-size="14.00" fill="#000000">QuestionService</text>
</g>
<!-- QuestionService&#45;&gt;DomainModule -->
<g id="edge23" class="edge">
<title>QuestionService&#45;&gt;DomainModule</title>
<path fill="none" stroke="#000000" d="M99,-122.308C99,-142.1455 99,-171 99,-171 99,-171 926.6491,-171 926.6491,-171"/>
<polygon fill="#000000" stroke="#000000" points="926.6492,-174.5001 936.6491,-171 926.6491,-167.5001 926.6492,-174.5001"/>
</g>
</g>
</svg>
