<?xml version="1.0" encoding="UTF-8" standalone="no"?>
<!DOCTYPE svg PUBLIC "-//W3C//DTD SVG 1.1//EN"
 "http://www.w3.org/Graphics/SVG/1.1/DTD/svg11.dtd">
<!-- Generated by graphviz version 2.40.1 (20161225.0304)
 -->
<!-- Title: dependencies Pages: 1 -->
<svg width="632pt" height="284pt"
 viewBox="0.00 0.00 632.00 284.00" xmlns="http://www.w3.org/2000/svg" xmlns:xlink="http://www.w3.org/1999/xlink">
<g id="graph0" class="graph" transform="scale(1 1) rotate(0) translate(4 280)">
<title>dependencies</title>
<polygon fill="#ffffff" stroke="transparent" points="-4,4 -4,-280 628,-280 628,4 -4,4"/>
<text text-anchor="start" x="291.0091" y="-42.4" font-family="sans-serif" font-weight="bold" font-size="14.00" fill="#000000">Legend</text>
<polygon fill="#ffffb3" stroke="transparent" points="78,-10 78,-30 98,-30 98,-10 78,-10"/>
<text text-anchor="start" x="101.629" y="-15.4" font-family="sans-serif" font-size="14.00" fill="#000000"> &#160;Declarations</text>
<polygon fill="#8dd3c7" stroke="transparent" points="191,-10 191,-30 211,-30 211,-10 191,-10"/>
<text text-anchor="start" x="214.7251" y="-15.4" font-family="sans-serif" font-size="14.00" fill="#000000"> &#160;Module</text>
<polygon fill="#80b1d3" stroke="transparent" points="277,-10 277,-30 297,-30 297,-10 277,-10"/>
<text text-anchor="start" x="300.7812" y="-15.4" font-family="sans-serif" font-size="14.00" fill="#000000"> &#160;Bootstrap</text>
<polygon fill="#fdb462" stroke="transparent" points="374,-10 374,-30 394,-30 394,-10 374,-10"/>
<text text-anchor="start" x="397.6732" y="-15.4" font-family="sans-serif" font-size="14.00" fill="#000000"> &#160;Providers</text>
<polygon fill="#fb8072" stroke="transparent" points="470,-10 470,-30 490,-30 490,-10 470,-10"/>
<text text-anchor="start" x="493.7258" y="-15.4" font-family="sans-serif" font-size="14.00" fill="#000000"> &#160;Exports</text>
<g id="clust1" class="cluster">
<title>cluster_JUIFormsModule</title>
<polygon fill="none" stroke="#000000" stroke-dasharray="1,5" points="8,-70 8,-268 616,-268 616,-70 8,-70"/>
</g>
<g id="clust2" class="cluster">
<title>cluster_JUIFormsModule_declarations</title>
<polygon fill="none" stroke="#000000" points="24,-78 24,-130 602,-130 602,-78 24,-78"/>
</g>
<g id="clust8" class="cluster">
<title>cluster_JUIFormsModule_exports</title>
<polygon fill="none" stroke="#000000" points="16,-208 16,-260 608,-260 608,-208 16,-208"/>
</g>
<!-- FormComponent -->
<g id="node1" class="node">
<title>FormComponent</title>
<polygon fill="#ffffb3" stroke="#000000" points="593.6667,-122 482.3333,-122 482.3333,-86 593.6667,-86 593.6667,-122"/>
<text text-anchor="middle" x="538" y="-99.8" font-family="Times,serif" font-size="14.00" fill="#000000">FormComponent</text>
</g>
<!-- JUIFormsModule -->
<g id="node5" class="node">
<title>JUIFormsModule</title>
<polygon fill="#8dd3c7" stroke="#000000" points="293.5409,-187 290.5409,-191 269.5409,-191 266.5409,-187 178.4591,-187 178.4591,-151 293.5409,-151 293.5409,-187"/>
<text text-anchor="middle" x="236" y="-164.8" font-family="Times,serif" font-size="14.00" fill="#000000">JUIFormsModule</text>
</g>
<!-- FormComponent&#45;&gt;JUIFormsModule -->
<g id="edge1" class="edge">
<title>FormComponent&#45;&gt;JUIFormsModule</title>
<path fill="none" stroke="#000000" d="M557.361,-122.1061C557.361,-141.3391 557.361,-169 557.361,-169 557.361,-169 303.8241,-169 303.8241,-169"/>
<polygon fill="#000000" stroke="#000000" points="303.8241,-165.5001 293.8241,-169 303.824,-172.5001 303.8241,-165.5001"/>
</g>
<!-- RadioButtonsComponent -->
<g id="node2" class="node">
<title>RadioButtonsComponent</title>
<polygon fill="#ffffb3" stroke="#000000" points="464.337,-122 305.663,-122 305.663,-86 464.337,-86 464.337,-122"/>
<text text-anchor="middle" x="385" y="-99.8" font-family="Times,serif" font-size="14.00" fill="#000000">RadioButtonsComponent</text>
</g>
<!-- RadioButtonsComponent&#45;&gt;JUIFormsModule -->
<g id="edge2" class="edge">
<title>RadioButtonsComponent&#45;&gt;JUIFormsModule</title>
<path fill="none" stroke="#000000" d="M385,-122.027C385,-138.3976 385,-160 385,-160 385,-160 303.6073,-160 303.6073,-160"/>
<polygon fill="#000000" stroke="#000000" points="303.6073,-156.5001 293.6073,-160 303.6073,-163.5001 303.6073,-156.5001"/>
</g>
<!-- TextComponent -->
<g id="node3" class="node">
<title>TextComponent</title>
<polygon fill="#ffffb3" stroke="#000000" points="287.4902,-122 180.5098,-122 180.5098,-86 287.4902,-86 287.4902,-122"/>
<text text-anchor="middle" x="234" y="-99.8" font-family="Times,serif" font-size="14.00" fill="#000000">TextComponent</text>
</g>
<!-- TextComponent&#45;&gt;JUIFormsModule -->
<g id="edge3" class="edge">
<title>TextComponent&#45;&gt;JUIFormsModule</title>
<path fill="none" stroke="#000000" d="M234,-122.1061C234,-122.1061 234,-140.991 234,-140.991"/>
<polygon fill="#000000" stroke="#000000" points="230.5001,-140.9909 234,-150.991 237.5001,-140.991 230.5001,-140.9909"/>
</g>
<!-- TextareaComponent -->
<g id="node4" class="node">
<title>TextareaComponent</title>
<polygon fill="#ffffb3" stroke="#000000" points="162.2949,-122 31.7051,-122 31.7051,-86 162.2949,-86 162.2949,-122"/>
<text text-anchor="middle" x="97" y="-99.8" font-family="Times,serif" font-size="14.00" fill="#000000">TextareaComponent</text>
</g>
<!-- TextareaComponent&#45;&gt;JUIFormsModule -->
<g id="edge4" class="edge">
<title>TextareaComponent&#45;&gt;JUIFormsModule</title>
<path fill="none" stroke="#000000" d="M115.8824,-122.0225C115.8824,-139.3734 115.8824,-163 115.8824,-163 115.8824,-163 168.404,-163 168.404,-163"/>
<polygon fill="#000000" stroke="#000000" points="168.404,-166.5001 178.404,-163 168.4039,-159.5001 168.404,-166.5001"/>
</g>
<!-- FormComponent  -->
<g id="node6" class="node">
<title>FormComponent </title>
<polygon fill="#fb8072" stroke="#000000" points="599.6663,-252 484.3337,-252 484.3337,-216 599.6663,-216 599.6663,-252"/>
<text text-anchor="middle" x="542" y="-229.8" font-family="Times,serif" font-size="14.00" fill="#000000">FormComponent </text>
</g>
<!-- JUIFormsModule&#45;&gt;FormComponent  -->
<g id="edge5" class="edge">
<title>JUIFormsModule&#45;&gt;FormComponent </title>
<path fill="none" stroke="#000000" stroke-dasharray="5,2" d="M293.6515,-178C376.8969,-178 520.889,-178 520.889,-178 520.889,-178 520.889,-205.973 520.889,-205.973"/>
<polygon fill="#000000" stroke="#000000" points="517.3891,-205.973 520.889,-215.973 524.3891,-205.973 517.3891,-205.973"/>
</g>
<!-- RadioButtonsComponent  -->
<g id="node7" class="node">
<title>RadioButtonsComponent </title>
<polygon fill="#fb8072" stroke="#000000" points="465.8367,-252 304.1633,-252 304.1633,-216 465.8367,-216 465.8367,-252"/>
<text text-anchor="middle" x="385" y="-229.8" font-family="Times,serif" font-size="14.00" fill="#000000">RadioButtonsComponent </text>
</g>
<!-- JUIFormsModule&#45;&gt;RadioButtonsComponent  -->
<g id="edge6" class="edge">
<title>JUIFormsModule&#45;&gt;RadioButtonsComponent </title>
<path fill="none" stroke="#000000" stroke-dasharray="5,2" d="M290.0076,-187.1061C290.0076,-206.3391 290.0076,-234 290.0076,-234 290.0076,-234 294.024,-234 294.024,-234"/>
<polygon fill="#000000" stroke="#000000" points="294.024,-237.5001 304.024,-234 294.024,-230.5001 294.024,-237.5001"/>
</g>
<!-- TextComponent  -->
<g id="node8" class="node">
<title>TextComponent </title>
<polygon fill="#fb8072" stroke="#000000" points="286.4913,-252 175.5087,-252 175.5087,-216 286.4913,-216 286.4913,-252"/>
<text text-anchor="middle" x="231" y="-229.8" font-family="Times,serif" font-size="14.00" fill="#000000">TextComponent </text>
</g>
<!-- JUIFormsModule&#45;&gt;TextComponent  -->
<g id="edge7" class="edge">
<title>JUIFormsModule&#45;&gt;TextComponent </title>
<path fill="none" stroke="#000000" stroke-dasharray="5,2" d="M232.2376,-187.1061C232.2376,-187.1061 232.2376,-205.991 232.2376,-205.991"/>
<polygon fill="#000000" stroke="#000000" points="228.7376,-205.9909 232.2376,-215.991 235.7376,-205.991 228.7376,-205.9909"/>
</g>
<!-- TextareaComponent  -->
<g id="node9" class="node">
<title>TextareaComponent </title>
<polygon fill="#fb8072" stroke="#000000" points="157.7948,-252 24.2052,-252 24.2052,-216 157.7948,-216 157.7948,-252"/>
<text text-anchor="middle" x="91" y="-229.8" font-family="Times,serif" font-size="14.00" fill="#000000">TextareaComponent </text>
</g>
<!-- JUIFormsModule&#45;&gt;TextareaComponent  -->
<g id="edge8" class="edge">
<title>JUIFormsModule&#45;&gt;TextareaComponent </title>
<path fill="none" stroke="#000000" stroke-dasharray="5,2" d="M178.3817,-175C131.7801,-175 73.8676,-175 73.8676,-175 73.8676,-175 73.8676,-205.9775 73.8676,-205.9775"/>
<polygon fill="#000000" stroke="#000000" points="70.3677,-205.9774 73.8676,-215.9775 77.3677,-205.9775 70.3677,-205.9774"/>
</g>
</g>
</svg>
