<svg xmlns="http://www.w3.org/2000/svg" xmlns:xlink="http://www.w3.org/1999/xlink" width="159" height="74" viewBox="0 0 159 74">
<path d="M10.2,36.9h2v6.4h7.8v-6.4h2v14.9h-2V45h-7.8v6.8h-2V36.9z M24.6,51.8h1.9V39.4h0l4.6,12.4h1.7l4.6-12.4h0v12.4
	h1.9V36.9h-2.7L32,49.4l-4.7-12.5h-2.7V51.8z M60.3,41.4c-0.5-3.2-3-4.8-6.1-4.8c-4.6,0-7,3.5-7,7.8c0,4.3,2.2,7.7,6.8,7.7
	c3.7,0,6-2.2,6.4-6h-2c-0.2,2.5-1.7,4.3-4.3,4.3c-3.5,0-5-2.8-5-6.2c0-3.1,1.5-6,5-6c2,0,3.7,1.1,4.1,3.2H60.3z M66.8,40.8
	c-3.4,0-5.2,2.5-5.2,5.6c0,3.1,1.8,5.6,5.2,5.6c3.4,0,5.2-2.5,5.2-5.6C72,43.3,70.2,40.8,66.8,40.8z M66.8,50.5
	c-1.8,0-3.3-1.5-3.3-4.1c0-2.6,1.5-4.1,3.3-4.1c1.8,0,3.3,1.5,3.3,4.1C70.1,49,68.6,50.5,66.8,50.5z M82.4,41h-1.8v6.1
	c0,1.9-1,3.4-3.2,3.4c-1.3,0-2.2-0.9-2.2-2.2V41h-1.8v7.1c0,2.3,0.9,3.9,3.7,3.9c1.5,0,2.7-0.6,3.5-2h0v1.7h1.7V41z M84.5,51.8h1.8
	V47c0-2.7,1-4.3,3.9-4.3v-1.9c-1.9-0.1-3.1,0.8-3.9,2.5h0V41h-1.7V51.8z M94.1,37.8h-1.8V41h-1.8v1.6h1.8v6.8c0,2,0.7,2.4,2.5,2.4
	h1.3v-1.6h-0.8c-1.1,0-1.3-0.1-1.3-1v-6.7h2.1V41h-2.1V37.8z M97,48.4c0.1,2.7,2.1,3.6,4.5,3.6c2.2,0,4.6-0.8,4.6-3.4
	c0-2.1-1.7-2.7-3.5-3.1c-1.6-0.4-3.5-0.6-3.5-1.9c0-1.1,1.2-1.4,2.3-1.4c1.2,0,2.4,0.4,2.5,1.8h1.8c-0.1-2.6-2-3.4-4.4-3.4
	c-1.9,0-4,0.9-4,3.1c0,2.1,1.8,2.6,3.5,3c1.8,0.4,3.5,0.6,3.5,2c0,1.4-1.5,1.6-2.6,1.6c-1.4,0-2.8-0.5-2.9-2.1H97z M123.1,51.8h2.3
	l-2.9-3.3c0.6-1.3,0.8-1.9,1-3.7h-1.7c0,0.8-0.2,1.6-0.5,2.3l-2.7-3.3c1.4-0.8,2.8-2.1,2.8-3.9c0-2-1.7-3-3.6-3
	c-2.1,0-3.3,1.4-3.3,3.1c0,1.5,0.8,2.3,1.6,3.5c-1.9,1-3.5,2.2-3.5,4.5c0,1.2,0.6,4.1,4.6,4.1c1.6,0,3.3-0.7,4.2-2.1L123.1,51.8z
	 M120.6,48.7c-0.7,1.1-1.8,1.8-3.1,1.8c-1.4,0-2.8-1-2.8-2.5c0-1.8,1.2-2.6,2.6-3.3L120.6,48.7z M119.7,40.1c0,1.2-1.1,2-2,2.6
	c-0.6-0.8-1.4-1.7-1.4-2.6c0-1.1,0.9-1.6,1.7-1.6C119.1,38.5,119.7,39.2,119.7,40.1z M13.6,73.6h2V60.5h4.9v-1.7H8.6v1.7h4.9V73.6z
	 M19.6,73.6h1.8v-4.8c0-2.7,1-4.3,3.9-4.3v-1.9c-1.9-0.1-3.1,0.8-3.9,2.5h0v-2.3h-1.7V73.6z M26.2,61H28v-2.2h-1.8V61z M26.2,73.6
	H28V62.9h-1.8V73.6z M30.1,73.6h1.8v-1.4h0c0.8,1.3,2.4,1.7,3.5,1.7c3.3,0,4.9-2.6,4.9-5.6c0-3-1.6-5.7-4.9-5.7
	c-1.5,0-2.8,0.5-3.4,1.7h0v-5.6h-1.8V73.6z M35.1,64.2c2.3,0,3.3,2,3.3,4c0,2.1-0.8,4.2-3.2,4.2c-2.4,0-3.4-2-3.4-4.1
	C31.8,66.2,32.8,64.2,35.1,64.2z M50.7,62.9H49V69c0,1.9-1,3.4-3.2,3.4c-1.3,0-2.2-0.9-2.2-2.2v-7.3h-1.8V70c0,2.3,0.9,3.9,3.7,3.9
	c1.5,0,2.7-0.6,3.5-2h0v1.7h1.7V62.9z M52.9,73.6h1.8v-6.1c0-1.9,1-3.4,3.2-3.4c1.3,0,2.2,0.9,2.2,2.2v7.3h1.8v-7.1
	c0-2.3-0.9-3.9-3.7-3.9c-1.5,0-2.7,0.6-3.5,2h0v-1.7h-1.7V73.6z M73.3,72.2c-0.2,0.1-0.4,0.1-0.5,0.1c-0.6,0-0.6-0.4-0.6-1.2v-5.5
	c0-2.5-2.1-3-4-3c-2.4,0-4.4,0.9-4.5,3.6h1.8c0.1-1.6,1.2-2,2.7-2c1.1,0,2.4,0.2,2.4,1.8c0,1.3-1.7,1.2-3.6,1.6
	c-1.8,0.4-3.6,0.9-3.6,3.3c0,2.1,1.6,3,3.5,3c1.5,0,2.8-0.5,3.8-1.7c0,1.2,0.6,1.7,1.5,1.7c0.6,0,1-0.1,1.3-0.3V72.2z M70.5,69.9
	c0,1-1,2.4-3.3,2.4c-1.1,0-2.1-0.4-2.1-1.6c0-1.3,1-1.7,2.2-1.9c1.2-0.2,2.5-0.2,3.2-0.7V69.9z M74.6,73.6h1.8V58.8h-1.8V73.6z
	 M77.9,70.3c0.1,2.7,2.1,3.6,4.5,3.6c2.2,0,4.6-0.8,4.6-3.4c0-2.1-1.7-2.7-3.5-3.1c-1.6-0.4-3.5-0.6-3.5-1.9c0-1.1,1.2-1.4,2.3-1.4
	c1.2,0,2.4,0.4,2.5,1.8h1.8c-0.1-2.6-2-3.4-4.4-3.4c-1.9,0-4,0.9-4,3.1c0,2.1,1.8,2.6,3.5,3c1.8,0.4,3.5,0.6,3.5,2
	c0,1.4-1.5,1.6-2.6,1.6c-1.4,0-2.8-0.5-2.9-2.1H77.9z M105,63.1c-0.1-3.3-2.4-4.7-5.4-4.7c-2.7,0-5.4,1.3-5.4,4.3
	c0,2.7,2.4,3.4,4.7,3.9c2.4,0.5,4.7,0.9,4.7,2.9c0,2.1-2,2.7-3.7,2.7c-2.2,0-4.3-1.1-4.3-3.6h-1.9c0,3.6,2.8,5.2,6.1,5.2
	c2.7,0,5.8-1.3,5.8-4.4c0-2.9-2.4-3.7-4.7-4.3c-2.4-0.5-4.7-0.8-4.7-2.6c0-1.9,1.7-2.5,3.3-2.5c2,0,3.4,0.9,3.7,3H105z M114.6,70.2
	c-0.3,1.4-1.3,2.1-2.8,2.1c-2.3,0-3.4-1.7-3.3-3.5h8c0.1-2.6-1.1-6.2-4.8-6.2c-2.9,0-5,2.4-5,5.6c0.1,3.3,1.7,5.7,5.1,5.7
	c2.4,0,4.1-1.3,4.6-3.7H114.6z M108.5,67.2c0.1-1.6,1.2-3,3.1-3c1.7,0,3,1.4,3.1,3H108.5z M118,73.6h1.8v-4.8c0-2.7,1-4.3,3.9-4.3
	v-1.9c-1.9-0.1-3.1,0.8-3.9,2.5h0v-2.3H118V73.6z M133.8,62.9H132l-2.9,9h0l-3-9h-2l4,10.8h1.9L133.8,62.9z M135,61h1.8v-2.2H135V61
	z M135,73.6h1.8V62.9H135V73.6z M148.1,66.3c-0.2-2.6-2.2-3.7-4.6-3.7c-3.4,0-5,2.5-5,5.8c0,3.2,1.7,5.5,5,5.5
	c2.7,0,4.3-1.6,4.7-4.2h-1.8c-0.2,1.6-1.2,2.6-2.9,2.6c-2.2,0-3.1-2-3.1-3.9c0-2.2,0.8-4.2,3.3-4.2c1.4,0,2.4,0.8,2.6,2.1H148.1z
	 M157.1,70.2c-0.3,1.4-1.3,2.1-2.8,2.1c-2.3,0-3.4-1.7-3.3-3.5h8c0.1-2.6-1.1-6.2-4.8-6.2c-2.9,0-5,2.4-5,5.6
	c0.1,3.3,1.7,5.7,5.1,5.7c2.4,0,4.1-1.3,4.6-3.7H157.1z M151,67.2c0.1-1.6,1.2-3,3.1-3c1.7,0,3,1.4,3.1,3H151z M24,4.9
	c-0.2,0.3-0.3,0.5-0.3,0.8c0,0.3,0.3,0.4,0.4,0.7c0.1-0.3,0.3-0.5,0.3-0.7C24.4,5.3,24.1,5,24,4.9z M28.4,4.9C28.3,5,28,5.3,28,5.6
	c0,0.2,0.2,0.5,0.3,0.7c0.1-0.3,0.4-0.4,0.4-0.7C28.7,5.4,28.5,5.2,28.4,4.9z M21.5,4.7c0.2,0,0.3-0.1,0.3-0.3
	c0-0.2-0.1-0.3-0.3-0.3c-0.2,0-0.3,0.1-0.3,0.3C21.2,4.5,21.4,4.7,21.5,4.7z M21.7,5.1c0-0.2-0.1-0.3-0.3-0.3
	c-0.2,0-0.3,0.1-0.3,0.3c0,0.2,0.1,0.3,0.3,0.3C21.6,5.4,21.7,5.2,21.7,5.1z M21.9,5.8c0-0.2-0.1-0.3-0.3-0.3
	c-0.2,0-0.3,0.1-0.3,0.3c0,0.2,0.1,0.3,0.3,0.3C21.7,6.1,21.9,6,21.9,5.8z M23.2,3.3c0.2,0,0.3-0.1,0.3-0.3c0-0.2-0.1-0.3-0.3-0.3
	c-0.2,0-0.3,0.1-0.3,0.3C22.9,3.1,23,3.3,23.2,3.3z M22.4,3.5c0.2,0,0.3-0.1,0.3-0.3c0-0.2-0.1-0.3-0.3-0.3c-0.2,0-0.3,0.1-0.3,0.3
	C22.1,3.4,22.3,3.5,22.4,3.5z M21.9,4c0.2,0,0.3-0.1,0.3-0.3c0-0.2-0.1-0.3-0.3-0.3c-0.2,0-0.3,0.1-0.3,0.3C21.6,3.9,21.7,4,21.9,4z
	 M23.9,3.3c0.2,0,0.3-0.1,0.3-0.3c0-0.2-0.1-0.3-0.3-0.3c-0.2,0-0.3,0.1-0.3,0.3C23.6,3.2,23.8,3.3,23.9,3.3z M24.6,3.5
	c0.2,0,0.3-0.1,0.3-0.3c0-0.2-0.1-0.3-0.3-0.3c-0.2,0-0.3,0.1-0.3,0.3C24.4,3.4,24.5,3.5,24.6,3.5z M25.3,3.9c0.2,0,0.3-0.1,0.3-0.3
	c0-0.2-0.1-0.3-0.3-0.3c-0.2,0-0.3,0.1-0.3,0.3C25,3.7,25.2,3.9,25.3,3.9z M30.6,4.4c0,0.2,0.1,0.3,0.3,0.3c0.2,0,0.3-0.1,0.3-0.3
	c0-0.2-0.1-0.3-0.3-0.3C30.7,4.1,30.6,4.2,30.6,4.4z M30.9,4.8c-0.2,0-0.3,0.1-0.3,0.3c0,0.2,0.1,0.3,0.3,0.3c0.2,0,0.3-0.1,0.3-0.3
	C31.2,4.9,31.1,4.8,30.9,4.8z M30.8,5.5c-0.2,0-0.3,0.1-0.3,0.3c0,0.2,0.1,0.3,0.3,0.3c0.2,0,0.3-0.1,0.3-0.3
	C31.1,5.6,31,5.5,30.8,5.5z M29.2,3.3c0.2,0,0.3-0.1,0.3-0.3c0-0.2-0.1-0.3-0.3-0.3S28.9,2.8,28.9,3C28.9,3.1,29.1,3.3,29.2,3.3z
	 M30,3.5c0.2,0,0.3-0.1,0.3-0.3c0-0.2-0.1-0.3-0.3-0.3c-0.2,0-0.3,0.1-0.3,0.3C29.7,3.4,29.8,3.5,30,3.5z M30.5,4
	c0.2,0,0.3-0.1,0.3-0.3c0-0.2-0.1-0.3-0.3-0.3c-0.2,0-0.3,0.1-0.3,0.3C30.2,3.9,30.4,4,30.5,4z M28.5,3.3c0.2,0,0.3-0.1,0.3-0.3
	c0-0.2-0.1-0.3-0.3-0.3c-0.2,0-0.3,0.1-0.3,0.3C28.2,3.2,28.3,3.3,28.5,3.3z M27.7,3.5c0.2,0,0.3-0.1,0.3-0.3C28,3.1,27.9,3,27.7,3
	c-0.2,0-0.3,0.1-0.3,0.3C27.4,3.4,27.6,3.5,27.7,3.5z M26.8,3.6c0,0.2,0.1,0.3,0.3,0.3c0.2,0,0.3-0.1,0.3-0.3c0-0.2-0.1-0.3-0.3-0.3
	C26.9,3.3,26.8,3.4,26.8,3.6z M25.7,5.2H26V3.9c-0.1,0-0.2-0.1-0.3-0.1V5.2z M26.7,3.8c-0.1,0-0.2,0.1-0.3,0.1v1.3h0.3V3.8z M26,2.4
	V1.7c-0.4,0.1-0.7,0.4-0.7,0.7H26z M26.4,2.4h0.7C27,2,26.7,1.7,26.4,1.7V2.4z M25.3,2.8c0.1,0.4,0.5,0.7,0.9,0.7
	c0.4,0,0.8-0.3,0.9-0.7H25.3z M26.7,1.5c-0.2-0.2-0.4-0.4-0.4-0.7c0.2,0,0.5,0.2,0.7,0.4v-1c-0.2,0.2-0.4,0.4-0.7,0.4
	c0-0.2,0.2-0.5,0.4-0.7h-1c0.2,0.3,0.4,0.5,0.4,0.7c-0.2,0-0.5-0.2-0.7-0.4v1c0.2-0.2,0.4-0.4,0.7-0.4c0,0.3-0.2,0.5-0.4,0.7H26.7z
	 M26.7,22.7c0.2,0,0.4-0.2,0.4-0.4c0-0.2-0.2-0.4-0.4-0.4c-0.2,0-0.4,0.2-0.4,0.4C26.4,22.5,26.5,22.7,26.7,22.7z M25,22.1
	c0.2,0,0.4-0.2,0.4-0.4c0-0.2-0.2-0.4-0.4-0.4c-0.2,0-0.4,0.2-0.4,0.4C24.6,22,24.8,22.1,25,22.1z M24.4,20.4c0.1,0,0.1,0.1,0.2,0.1
	c0-0.1-0.1-0.2-0.2-0.4c-0.1-0.1-0.3-0.2-0.5-0.2c-0.4,0-0.7,0.4-0.9,0.5l0,0l0,0c-0.1,0-0.2,0-0.3-0.1c0,0.1,0.1,0.2,0.1,0.3l0,0
	l0,0c-0.2,0.3-0.3,0.6-0.3,0.8c0,0.1,0.2,0.4,0.4,0.6c0.2,0.1,0.3,0.1,0.5,0c-0.1-0.1-0.2-0.1-0.3-0.2l0,0c-0.1,0-0.2-0.1-0.2-0.2
	c0,0,0,0,0-0.1c0-0.1,0-0.2,0.1-0.3c0,0,0-0.1,0-0.1c0,0,0,0,0-0.1l0-0.1l0.1,0c0.1,0.1,0.3,0.1,0.4,0.1c0,0,0.1,0,0.1-0.1
	c0.1-0.1,0-0.3-0.2-0.4l-0.1-0.1l0.1-0.1c0.1-0.1,0.1-0.2,0.2-0.2C24,20.2,24.1,20.2,24.4,20.4L24.4,20.4z M27.8,21.8
	c0.6,0.1,1.3,0.3,1.7,0.2c0,0,0,0-0.1,0.1c-0.2,0.2-0.4,0.3-0.6,0.5c-0.6,0.4-1.2,0.6-1.6,0.6c-0.5,0-1.2-0.1-1.9-0.3
	c-0.6-0.2-1.2-0.4-1.6-0.6c-0.2,0.2-0.5,0.2-0.8,0.1c-0.3-0.1-0.5-0.5-0.5-0.7c0,0,0-0.1,0-0.1c-0.2-0.2-0.4-0.4-0.6-0.6
	c-0.6-0.6-1-1.4-1.3-2.2c-0.1-0.4-0.3-0.8-0.3-1.2c0.5,0.2,0.7,0,0.9-0.2c0.1,0,0.1,0.2,0.1,0.2c0.6,0,0.9-0.4,1-0.7
	c0.1,0.4,0.1,0.7,0.3,1c0.2,0.6,0.5,1.1,0.9,1.6c0.1,0.2,0.3,0.3,0.4,0.4c0.1,0,0.2-0.1,0.3-0.1c0.2,0,0.4,0.1,0.6,0.3
	c0.2,0.2,0.2,0.4,0.2,0.6l0,0C25.8,21.1,26.9,21.5,27.8,21.8z M27.5,25.5c0.1-0.1,0.1-0.3,0.1-0.4c0-0.2-0.1-0.4-0.4-0.4
	c-0.5,0-0.4,0.7-0.6,0.7c-0.1,0-0.2-0.1-0.2-0.2c0-0.2,0.3-0.4,0.3-0.7c0-0.3-0.3-0.5-0.5-0.7c-0.3,0.2-0.5,0.5-0.5,0.7
	c0,0.3,0.3,0.5,0.3,0.7c0,0.1-0.1,0.2-0.2,0.2c-0.2,0-0.1-0.7-0.6-0.7c-0.3,0-0.4,0.3-0.4,0.4c0,0.1,0,0.2,0.1,0.4
	c0.1-0.1,0.2-0.2,0.2-0.2c0.4,0,0.2,1,0.7,1c0.2,0,0.3-0.1,0.3-0.3c0-0.1-0.1-0.2-0.1-0.3c0-0.1,0.1-0.2,0.2-0.2
	c0.1,0,0.2,0,0.2,0.2c0,0.1-0.1,0.2-0.1,0.3c0,0.1,0.1,0.3,0.3,0.3c0.4,0,0.3-1,0.7-1C27.4,25.3,27.4,25.4,27.5,25.5z M26.2,26.9
	c0.1,0,0.2-0.1,0.2-0.2c0-0.1-0.1-0.2-0.2-0.2c-0.1,0-0.2,0.1-0.2,0.2C26,26.8,26.1,26.9,26.2,26.9z M27.2,24.5
	c0.4,0,0.6,0.3,0.6,0.6c0,0.3-0.2,0.5-0.3,0.7c-0.1-0.2-0.1-0.3-0.2-0.3c-0.2,0-0.1,1-0.7,1c0,0,0,0.1,0,0.2c0,0.2-0.2,0.4-0.4,0.4
	c-0.2,0-0.4-0.2-0.4-0.4c0-0.1,0-0.1,0-0.2c-0.6,0-0.5-1-0.7-1c-0.1,0-0.2,0.1-0.2,0.3c-0.1-0.2-0.3-0.4-0.3-0.7
	c0-0.3,0.2-0.6,0.6-0.6c0.1,0,0.1,0,0.2,0v-1.4c0.6,0.1,1.1,0.2,1.6,0.2v1.1C27.1,24.5,27.1,24.5,27.2,24.5z M40.2,25.8
	c0-0.1-0.1-0.1-0.1-0.1c-1.3,0.4-2.9-0.7-4.4-1.7c-1.3-0.9-2.5-1.7-3.6-1.7c-0.4,0-0.7,0.1-1,0.2c-0.4,0.2-0.6,0.5-0.8,1
	c-0.2,0.4-0.4,0.7-0.5,1c-0.2,0.3-0.3,0.5-0.3,0.7c0,0.2,0.1,0.4,0.3,0.6c0.1,0.2,0.4,0.3,0.7,0.5c0.1,0,0.1,0.1,0.2,0.1
	c0.3,0.1,0.4,0.2,0.4,0.4c-0.5,0.2-1.2,0.4-1.9,0.5c-0.8,0.1-1.8,0.2-2.8,0.2c-1,0-1.9-0.1-2.8-0.2c-0.8-0.1-1.4-0.3-1.9-0.5
	c0-0.2,0.2-0.3,0.5-0.4c0.1,0,0.1-0.1,0.2-0.1c0.3-0.1,0.5-0.3,0.7-0.4c0.2-0.2,0.3-0.3,0.3-0.5c0-0.3-0.1-0.5-0.3-0.7
	c-0.1-0.2-0.3-0.5-0.5-1c-0.2-0.4-0.5-0.8-0.8-1c-0.3-0.2-0.6-0.2-1-0.2c-1.1,0-2.3,0.8-3.6,1.7c-1.6,1-3.2,2.1-4.4,1.7
	c-0.1,0-0.1,0-0.1,0.1c0,0.1,0,0.1,0.1,0.1c0.4,0.2,0.7,0.4,1.1,0.7c0.5,0.4,0.9,0.7,1.4,0.7c0.5,0,1-0.1,1.6-0.5
	c0.5-0.3,1.1-0.6,1.6-1c1-0.7,2.1-1.4,3.1-1.5c-0.1,0.1-0.2,0.2-0.3,0.3c-0.3,0.3-0.6,0.5-0.6,1c0,0.4,0.1,0.6,0.3,1
	c0.1,0.1,0.1,0.2,0.2,0.4c0.1,0.2,0.2,0.4,0.2,0.7c0,0.1,0.1,0.3,0.1,0.4c0.1,0.2,0.2,0.7,0.9,1.1c0.9,0.4,2.3,0.7,4.4,0.7
	c2,0,3.5-0.2,4.4-0.7c0.7-0.4,0.9-0.8,0.9-1.1c0-0.2,0.1-0.3,0.1-0.4c0.1-0.3,0.1-0.5,0.2-0.7c0.1-0.2,0.2-0.3,0.2-0.5
	c0.2-0.3,0.3-0.5,0.3-0.8c0-0.5-0.3-0.7-0.6-1c-0.1-0.1-0.2-0.2-0.3-0.3c1,0.1,2.1,0.8,3.1,1.5c0.5,0.4,1.1,0.7,1.6,1
	c0.6,0.3,1.1,0.5,1.6,0.5c0.5,0,0.9-0.3,1.4-0.7c0.3-0.3,0.7-0.5,1.1-0.7C40.1,26,40.2,25.9,40.2,25.8z M30.4,15.8
	c0-0.6-0.1-1.3-0.3-1.9c-0.2-0.6-0.5-1.1-0.9-1.6c-0.4-0.5-0.8-0.8-1.3-1.1c-0.5-0.2-1-0.4-1.5-0.4v4.9H30.4z M26.2,8.9
	c1.4,0,2.3,0.4,2.9,0.8c0.3-0.2,0.5-0.4,0.5-0.6c0-0.8-2.2-0.9-3.3-0.9h0c-1.1,0-3.3,0.1-3.3,0.9c0,0.2,0.1,0.4,0.5,0.6
	C23.9,9.3,24.8,8.9,26.2,8.9z M26.1,10.9c-0.5,0-1.1,0.1-1.6,0.4c-0.5,0.2-1,0.6-1.3,1.1c-0.4,0.5-0.7,1-0.9,1.6
	c-0.2,0.6-0.3,1.2-0.3,1.9h4.1V10.9z M32.4,15.4c0,0.2,0,0.2,0,0.4c0,0.9-0.2,1.9-0.5,2.7c-0.3,0.8-0.8,1.6-1.3,2.2
	c-0.3,0.3-0.6,0.6-0.9,0.8l0,0c-0.1,0.1-0.4,0.2-1.8-0.2c-0.2,0-0.3-0.1-0.5-0.1c0-0.2,0-0.3,0.1-0.4c0.1-0.2,0.1-0.3,0.2-0.4
	c0.1,0,0.1-0.1,0.2-0.1c0.5-0.2,0.9-0.6,1.3-1.1c0.4-0.5,0.7-1,0.9-1.6c0.2-0.6,0.3-1.2,0.3-1.8h-4v4.5c0.3,0,0.9,0.1,0.9,0.1
	c-0.1,0.2-0.2,0.4-0.2,0.7c-0.5-0.1-0.9-0.3-1.4-0.5c0.1-0.2,0.3-0.2,0.5-0.2V16H22c0-0.2-0.1-0.5-0.2-0.6c-0.2-0.3-0.3-0.4-0.3-0.8
	c0-0.2-0.1-0.5-0.3-0.7c-0.1-0.1-0.6-0.7-0.7-0.8c0.3-0.8,0.8-1.6,1.3-2.2c0.4-0.4,0.8-0.8,1.3-1.1c-0.2-0.2-0.5-0.4-0.5-0.8
	c0-0.2,0.1-0.4,0.2-0.5c-0.3-0.8-0.7-1.8-1.1-2.3l0.8-0.4c-0.2,0.3-0.2,0.7-0.2,0.9c0.2-0.2,0.4-0.4,0.5-0.6c0,0.3,0.2,0.7,0.3,0.9
	C22.9,7,22.7,6.9,22.4,7c0.1,0.2,0.5,0.5,1,0.3c0.3-0.1,0.6-0.2,0.6-0.5c0-0.1-0.1-0.3-0.3-0.3c-0.2,0-0.2,0.3-0.1,0.4
	c-0.2-0.1-0.5-0.8-0.1-0.9c0.3-0.1,0.6,0.3,0.7,0.6C24.2,6.4,24.4,6,24.7,6c0.4,0,0.3,0.7,0.1,0.9c0-0.2-0.2-0.4-0.3-0.4
	c-0.1,0-0.2,0.1-0.2,0.3c0,0.2,0.3,0.4,0.7,0.4c0.3,0,1-0.1,1-0.8c-0.2,0-0.6,0.2-0.7,0.4c0-0.4,0-0.7,0-1.1C25.5,6,25.8,6.2,26,6.2
	c-0.1-0.3-0.3-0.6-0.6-0.8h1.5c-0.3,0.2-0.5,0.5-0.6,0.8c0.2,0,0.5-0.2,0.7-0.4c0,0.4,0,0.7,0,1.1c-0.2-0.2-0.5-0.4-0.7-0.4
	c0.1,0.7,0.7,0.8,1,0.8c0.4,0,0.7-0.1,0.7-0.4c0-0.2-0.1-0.3-0.2-0.3c-0.1,0-0.2,0.1-0.3,0.4C27.5,6.8,27.3,6,27.7,6
	c0.3,0,0.4,0.3,0.5,0.7c0.1-0.3,0.4-0.7,0.7-0.6C29.2,6.2,29,6.9,28.8,7c0.1-0.1,0-0.4-0.1-0.4c-0.2,0-0.3,0.1-0.3,0.3
	c0,0.2,0.3,0.4,0.6,0.5c0.5,0.1,0.9-0.2,1-0.4c-0.2-0.1-0.4-0.1-0.7,0.1c0.1-0.2,0.3-0.7,0.3-0.9c0.1,0.3,0.2,0.5,0.5,0.6
	c0-0.2,0-0.6-0.2-0.9l0.8,0.4c-0.4,0.4-0.9,1.4-1.1,2.3c0.2,0.1,0.3,0.3,0.3,0.6c0,0.4-0.2,0.6-0.5,0.8c0.5,0.3,0.9,0.7,1.3,1.1
	c0.3,0.3,0.5,0.7,0.8,1.1c0,0-0.1,0.1-0.1,0.2c-0.1,0.1-0.2,0.2-0.2,0.3c-0.1,0.1-0.1,0.2-0.1,0.3c0,0.1,0,0.2,0.1,0.4
	c0.1,0.2,0.7,1.4,0.9,1.8C32,15.1,32.2,15.3,32.4,15.4z M28.6,12.9c-0.2-0.3-0.5-0.5-0.8-0.7c-0.2-0.2-0.5-0.3-0.8-0.4
	c0,0,0,0.1,0,0.2c-0.1,0-0.1,0-0.1-0.1V13c0.1,0,0.1,0,0.1,0.1c0,0,0,0.1,0,0.1c0.1,0,0.1,0,0.2,0.1c-0.1,0.1-0.1,0.1-0.2,0.1
	c0.1,0,0.1,0.1,0,0.1c0,0-0.1,0.1-0.1,0.1V15c0,0,0.1-0.1,0.2-0.1c0,0.1,0,0.1-0.1,0.2h0.9c0-0.1,0-0.1,0.1-0.1c0,0,0.1,0,0.1,0
	c0-0.1,0-0.1,0.1-0.2c0.1,0.1,0.1,0.1,0.1,0.2c0-0.1,0.1-0.1,0.1,0c0,0,0.1,0.1,0.1,0.1h1c0,0-0.1-0.1-0.1-0.2c0.1,0,0.1,0,0.1,0
	c-0.1-0.6-0.3-1.1-0.6-1.6c0,0-0.1,0-0.1,0c0,0-0.1-0.1,0-0.1c0,0-0.1,0.1-0.2,0c0-0.1,0-0.1,0.1-0.2c-0.1,0-0.1,0-0.1-0.1
	C28.6,12.9,28.6,12.9,28.6,12.9z M29.8,15c0.1,0,0.2,0.1,0.2,0.2c0,0-0.1,0.1-0.1,0.1c0,0,0.1,0.1,0.1,0.2c-0.1,0-0.1,0-0.2-0.1
	c0,0.1,0,0.1-0.1,0.1c-0.1,0-0.2,0-0.2-0.1c0,0.1,0.2,0,0.1,0h-1.3c0,0.1,0,0.2-0.1,0.3c-0.1-0.1-0.1-0.2-0.1-0.3h-1.2
	c0,0.1,0.1,0.1,0.1,0c0,0.1-0.1,0.2-0.2,0.2c0,0-0.1-0.1-0.1-0.1c0,0-0.1,0.1-0.2,0.1c0-0.1,0-0.1,0.1-0.2c-0.1,0-0.1,0-0.1-0.1
	c0-0.1,0-0.2,0.2-0.2c-0.1,0,0,0.2,0,0.1v-1.7c-0.1,0-0.2,0-0.3-0.1c0.1-0.1,0.2-0.1,0.3-0.1v-1.6c-0.1,0-0.1,0.1,0,0.1
	c-0.1,0-0.2-0.1-0.1-0.2c0,0,0.1-0.1,0.1-0.1c0,0-0.1-0.1-0.1-0.2c0.1,0,0.1,0,0.2,0.1c0-0.1,0-0.1,0.1-0.1c0.1,0,0.2,0,0.2,0.2
	c0-0.1-0.1-0.1-0.1,0c0.3,0.1,0.7,0.2,1,0.4c0.3,0.2,0.6,0.5,0.9,0.8c0,0,0.1,0.1,0.1,0.1c0-0.1,0.1-0.1,0.3-0.1
	C29.1,13,29,13,29,13c0,0,0,0,0,0c0.4,0.6,0.7,1.3,0.8,2.1C29.8,15.1,29.8,15,29.8,15z M29.1,14.5c0.1,0,0.1-0.1,0.1-0.1
	c-0.1,0-0.1,0-0.1,0c0,0,0.1,0,0-0.1c0-0.1-0.1-0.1-0.1,0c0,0.1-0.4,0-0.4-0.3c0,0,0.1,0.1,0.1,0.1c0,0,0,0,0,0c0,0,0,0,0,0
	c0,0,0.1,0,0.1,0c0,0,0,0,0,0v0c0.1,0,0.1-0.1,0.1-0.1c0-0.1-0.1-0.2-0.3-0.3c-0.1,0-0.1-0.1-0.1-0.1c0-0.1,0-0.2-0.1-0.4
	c0,0,0-0.1,0-0.2c-0.1,0.1-0.1,0.3,0.1,0.5c0.1,0.1,0.4,0.3,0.4,0.4c0,0,0,0.1-0.1,0.1c0,0,0,0,0,0c0,0,0,0,0,0c0,0,0,0-0.1,0
	c0,0-0.1,0-0.1-0.1c-0.1-0.1-0.2-0.3-0.3-0.4c-0.1-0.2-0.1-0.3-0.1-0.5c0.1-0.1-0.1-0.4-0.1-0.5c0,0,0-0.1,0-0.1c0,0-0.1,0-0.1,0
	c0,0,0-0.1-0.1-0.1c-0.1,0-0.1,0-0.1-0.1c0,0,0,0.1-0.1,0.1c0,0-0.1,0-0.1,0c0,0,0,0-0.1,0c-0.1,0-0.1,0,0,0.1c0,0,0,0.1,0,0.1
	c0,0,0,0,0,0l0,0.1l0-0.1c0,0,0.1,0,0.1,0c0,0,0,0,0,0.1c0,0-0.1,0-0.1,0c0,0,0,0,0,0.1c0,0,0,0,0.1,0c0.1,0,0.2,0,0.2,0
	c0,0.1-0.2,0.1-0.2,0.3c0,0-0.1-0.1-0.1-0.1c0,0-0.1-0.1-0.1-0.1c0,0-0.1-0.1-0.1-0.1c-0.1,0-0.1-0.1-0.1-0.1c0-0.1,0-0.1,0-0.1
	c0,0,0,0,0,0c0,0-0.1-0.1-0.1-0.1c0,0,0,0,0,0.1c0,0,0,0,0,0c0,0,0,0,0,0.1c0,0,0,0,0,0c0,0,0,0,0,0c0,0,0,0,0,0c0,0,0-0.1-0.1-0.1
	c0,0,0,0,0,0c0,0,0,0,0,0c0,0,0-0.1-0.1,0c0,0,0,0,0,0c0,0,0,0,0,0c0,0,0,0.1,0.1,0.1c0,0,0,0,0,0c0,0,0,0,0,0c0,0,0,0,0,0
	c-0.1,0-0.1,0-0.1,0c0,0,0,0,0,0c0,0,0,0.1,0,0.1c0,0,0,0,0,0c0,0,0,0,0,0c0,0,0,0,0,0c0,0,0,0,0,0c0,0,0,0,0,0c0,0,0,0,0,0
	c0,0,0,0,0,0c0,0,0,0.1,0,0.1c0,0-0.1,0-0.1,0c-0.1,0.1,0,0.2,0.1,0.1c0,0,0,0.1,0,0.1c0,0,0,0,0,0c0,0,0,0,0,0c0,0,0,0,0,0.1
	c0,0,0,0,0,0c0,0,0,0,0,0.1c0,0.1,0.1,0.2,0.3,0.3c-0.1,0.1-0.1,0.1-0.2,0.2c0,0-0.1,0.1-0.2,0.1c0,0,0,0-0.1-0.1c0,0,0,0-0.1,0
	c0,0,0,0,0,0c0,0-0.1,0-0.1,0c0,0,0,0,0.1,0c0,0,0,0,0,0c0,0,0,0,0.1,0c0,0,0,0,0,0c0,0,0,0,0,0c0,0-0.1,0-0.1,0c0,0,0,0,0,0
	c0,0,0,0,0,0c0,0-0.1,0.1,0,0.1c0,0,0,0,0-0.1c0,0,0,0,0,0c0,0,0.1,0.1,0.1,0c0,0,0,0,0,0c0,0,0,0.1,0,0.1c0,0,0,0,0,0c0,0,0,0,0,0
	c0,0,0.1,0.1,0.1,0c0,0,0,0-0.1-0.1c0,0,0,0,0,0c0,0,0-0.1,0-0.1c0,0,0,0,0,0c0,0,0,0.1,0.1,0c0,0,0,0,0-0.1c0.1,0,0.1,0,0.2,0
	c0,0,0-0.1,0.1-0.1c0.1,0,0.1,0,0.1,0c0,0,0-0.1,0.1-0.1c0,0.3,0.3,0.2,0.4,0.4c-0.1,0-0.2-0.1-0.3-0.1c-0.1,0-0.2,0.1-0.2,0.2
	c0,0.1,0.1,0.2,0.1,0.3c-0.1,0-0.1,0-0.2,0c0,0,0,0,0,0c-0.1,0-0.1-0.1-0.2-0.1c0,0,0,0,0,0h0c0,0-0.1,0-0.1,0.1c0,0,0,0,0.1,0
	c0,0,0,0,0,0c0,0,0,0,0,0c0,0,0,0,0,0c0,0,0,0,0,0c0,0-0.1,0-0.1,0.1c0,0,0,0,0,0c0,0,0,0.1,0.1,0c0,0,0,0,0,0c0,0,0,0,0,0
	c0,0,0,0,0,0c0,0,0,0,0,0c0,0,0,0,0,0c0,0,0,0,0,0c0,0,0,0,0,0c0,0,0,0.1,0.1,0c0,0,0,0,0,0c0,0,0,0,0,0c0,0,0,0,0,0c0,0,0,0,0,0
	c0,0,0,0,0,0c0,0,0,0,0,0c0,0,0,0,0.1,0c0,0,0,0,0,0c0,0,0,0,0,0c0,0,0-0.1,0.1,0l0.1,0c0,0,0.1,0,0.1,0c0,0,0,0,0-0.1
	c0-0.1-0.1-0.1-0.1-0.1c0-0.1,0.1-0.2,0.2-0.2c0,0.1,0.1,0.3,0.3,0.4c0.1,0,0.2-0.1,0.2-0.1c0,0,0,0,0,0c0,0.1,0,0.1,0,0.1
	c0,0-0.1,0-0.1,0c0,0,0,0,0,0c0,0-0.1,0-0.1,0.1c0,0,0,0,0.1,0c0,0,0,0,0,0c0,0,0.1,0.1,0.1,0c0,0,0,0,0,0c0,0-0.1,0.1,0,0.1
	c0,0,0,0,0,0c0,0,0,0.1,0,0.1c0,0,0,0,0-0.1h0c0,0,0-0.1,0.1-0.1c0,0,0,0,0,0c0,0,0,0.1,0,0.1c0,0,0,0,0,0c0,0,0,0,0.1,0
	c0,0,0,0,0,0c0,0,0,0,0,0c0-0.1,0-0.1,0-0.1c0,0,0.1,0,0.1-0.1C29.1,14.6,29.1,14.6,29.1,14.5C29.1,14.6,29.1,14.6,29.1,14.5
	C29.1,14.6,29.1,14.5,29.1,14.5L29.1,14.5z M25.3,16.8c0-0.2,0-0.3-0.1-0.3c-0.1,0-0.4,0.1-0.6,0.2l0.6,0.9c0-0.2,0.1-0.4,0.1-0.6
	c0,0,0,0,0-0.1l0,0c-0.1,0-0.1-0.1-0.1-0.1C25.1,16.8,25.2,16.8,25.3,16.8L25.3,16.8z M25.1,18.3c0-0.1,0-0.3,0.1-0.4l-0.7-1
	c-0.1,0-0.2,0.1-0.3,0.1L25.1,18.3z M25,19c0-0.1,0-0.3,0.1-0.4L23.9,17c-0.1,0-0.1,0-0.2,0c0,0-0.1,0-0.1,0L25,19z M23.4,17
	c-0.1,1.1,0.7,1.9,1.5,2.2L23.4,17z M25.7,16.8c0.1,0,0.1,0,0.1,0.1c0,0.1-0.1,0.1-0.2,0.1l0,0l-0.1,2.2l0.1,0l0,0.2
	c0,0.1-0.1,0.1-0.2,0.1c0,0.3-0.2,0.4-0.4,0.4c-0.1,0-0.3-0.1-0.3-0.3c0-0.1,0.1-0.2,0.2-0.2c0.1,0,0.1,0,0.1,0.1
	c0,0.1-0.2,0-0.2,0.1c0,0.1,0,0.1,0.1,0.1c0.1,0,0.2-0.1,0.2-0.2c0-0.2-0.2-0.2-0.4-0.2c-1.2-0.4-1.9-1.6-1.9-2.5c0,0-0.1,0-0.1,0
	l0.1-0.2c0,0-0.1,0.1-0.1,0.1c-0.1,0-0.2-0.1-0.2-0.2c0-0.1,0.1-0.2,0.2-0.2c0.1,0,0.2,0.1,0.2,0.2c0,0,0,0,0,0l0.1-0.2
	c0.2,0.1,0.5,0.2,0.8,0.2c0.6,0,1.1-0.3,1.3-0.3C25.5,16.3,25.6,16.5,25.7,16.8L25.7,16.8L25.7,16.8z M24.6,12.2
	C24.5,12.2,24.5,12.2,24.6,12.2C24.6,12.3,24.6,12.2,24.6,12.2C24.6,12.2,24.6,12.2,24.6,12.2C24.6,12.2,24.6,12.2,24.6,12.2
	c0.1-0.1,0.1-0.1,0.1,0c0,0,0,0,0,0c0,0,0,0,0,0c0,0,0,0,0,0c0,0,0,0,0,0l-0.1,0c0,0,0,0,0,0c0,0,0,0,0,0c0,0,0,0,0,0
	C24.6,12.1,24.6,12.1,24.6,12.2C24.6,12.1,24.6,12.1,24.6,12.2C24.6,12.2,24.6,12.2,24.6,12.2C24.6,12.2,24.6,12.2,24.6,12.2z
	 M24.7,12C24.6,12,24.6,12,24.7,12C24.6,12,24.6,12,24.7,12C24.6,12,24.6,12,24.7,12z M24.7,12C24.7,12.1,24.7,12.1,24.7,12
	C24.8,12.1,24.8,12.1,24.7,12C24.8,12.1,24.7,12,24.7,12z M24.5,12.1C24.5,12.1,24.5,12.1,24.5,12.1C24.5,12.1,24.5,12.1,24.5,12.1z
	 M25.4,12.4C25.4,12.4,25.4,12.4,25.4,12.4c0.1,0,0.2,0.1,0.3,0.1c0,0,0,0,0,0c0,0,0.1,0,0.1,0c0,0,0,0.1,0,0.1c0,0,0,0,0,0
	c0,0,0,0.1,0,0.1c0,0,0,0,0,0h0c0,0,0,0,0,0c0,0,0,0,0,0c0,0.1-0.1,0-0.1,0.1c0,0,0.1,0,0,0.1c0,0,0,0,0,0c0,0,0,0,0,0
	c0,0-0.1,0-0.1,0c0,0,0,0,0,0c0,0,0,0,0-0.1c0,0,0,0,0,0c0,0,0,0.1,0,0.1h0c0,0,0,0,0,0c0,0,0,0,0-0.1c0,0,0,0,0,0c0,0,0-0.1,0-0.1
	c0,0,0,0,0,0c0,0-0.1,0-0.1,0v0c0,0,0,0-0.1,0c0,0,0-0.1,0.1-0.1c0,0,0,0,0,0c0,0,0.1,0,0.1,0c0,0,0,0,0-0.1c0,0,0,0,0,0
	c0,0-0.1,0-0.1,0c0,0,0.1,0-0.1,0c-0.1,0-0.1,0-0.2,0c0,0,0,0.1,0,0.1c0,0,0,0.1,0,0.1c0,0-0.1,0-0.1,0c0,0,0,0,0,0c0,0,0,0.1,0,0.1
	c0,0-0.1,0-0.1,0c0,0,0,0,0,0c0,0,0,0,0,0c0,0,0,0,0,0c0,0,0,0,0,0c0,0,0,0,0,0c0,0,0,0,0,0c0,0-0.1,0-0.1,0c0,0,0,0,0,0
	c0,0,0,0,0,0c0,0,0,0,0,0c0,0,0,0,0,0c0,0,0,0,0,0c0,0,0,0,0,0c0,0,0,0,0,0c0,0-0.1,0-0.1,0c0,0,0,0,0,0c0-0.1,0.1,0,0.1-0.1
	c0,0,0,0,0,0c0,0,0,0,0,0c0,0,0,0,0,0c0,0,0,0,0,0c0,0,0,0-0.1,0c0,0,0-0.1,0.1-0.1c0,0,0,0,0,0c0.1,0,0.1,0.1,0.2,0.1
	c0,0,0,0,0.1,0c0,0,0,0,0,0c0,0-0.1,0-0.1,0c0,0,0-0.1,0-0.2c0,0-0.1,0-0.1,0c-0.3,0-0.1,0.1-0.2,0.1c0,0-0.1,0.1-0.2,0.1
	c0,0,0,0,0-0.1c0,0-0.1,0-0.1,0c0,0,0,0,0,0c0,0-0.1,0.1-0.1,0.1c0,0,0,0,0,0c0,0,0,0,0,0c-0.1,0-0.1,0-0.1,0.1c0,0,0-0.1,0-0.1
	c0,0,0,0,0,0c0,0,0,0,0,0c0,0,0,0,0,0c0,0-0.1,0-0.1,0c0,0,0,0,0,0c0,0,0,0,0,0c0,0-0.1,0.1-0.1,0.1c0,0,0-0.1,0-0.1c0,0,0,0,0,0
	c0,0,0,0,0,0c0,0,0,0,0,0c0,0,0,0.1-0.1,0.1c0,0-0.1,0-0.1-0.1c0,0,0,0,0,0c0,0,0,0.1,0,0.1c0,0,0,0,0,0c0,0,0,0.1,0,0.1
	c0,0-0.1,0-0.1-0.1c0,0,0,0,0,0c0,0,0,0,0,0c0,0,0-0.1,0-0.1c0,0,0,0,0,0c-0.1,0.1-0.1,0-0.1,0c0,0,0,0,0,0c0,0,0,0,0,0
	c0,0,0-0.1,0.1-0.1c0,0,0,0,0,0c0,0,0,0,0,0c0,0,0,0,0.1,0c0,0,0,0,0,0c0,0,0,0,0,0c-0.1,0-0.1,0-0.1-0.1c0,0,0,0,0,0c0,0,0,0,0,0
	c0,0,0.1,0,0.1,0c0,0,0,0,0,0c0,0,0,0,0,0c0,0,0,0,0,0.1c0,0,0.1,0,0.2,0c0,0,0.1,0,0.1,0c0,0,0.1,0,0.2-0.1c0,0-0.1-0.1-0.1-0.1
	c0,0,0,0,0,0c0,0,0,0,0,0c0,0,0,0,0,0c0,0,0,0,0,0c0,0,0,0,0,0c0,0,0,0,0,0c-0.1,0-0.2,0-0.1-0.1c0,0.1,0.1,0.1,0.1,0c0,0,0,0,0,0
	c-0.1,0-0.1,0,0-0.1c0,0,0,0,0,0c0,0,0,0,0,0c0,0,0,0,0,0c0,0,0,0,0,0c0,0,0,0,0,0c0,0,0,0,0,0c0,0,0,0,0,0c0,0,0-0.1,0-0.1
	c0,0,0,0,0,0c0,0,0,0,0.1,0c0,0,0,0,0,0c0,0,0,0,0,0c0,0,0,0,0,0c0,0-0.1,0-0.1,0c0,0,0,0,0,0c0,0,0,0,0,0c0,0,0.1,0,0.1,0
	c0,0,0,0,0,0c0,0,0,0,0,0c0,0,0,0,0,0.1c0,0,0,0,0,0c0,0,0,0,0,0c0,0,0,0,0,0c0,0,0,0,0,0c0,0,0,0,0,0c0,0,0,0,0,0c0,0,0.1,0,0.1,0
	c0,0,0,0,0,0c0,0,0,0.1,0,0.1c0,0,0,0.1,0,0.1c0,0,0,0,0.1,0.1h0c0,0,0-0.1,0-0.2c0,0,0,0,0,0c0,0,0-0.1,0.1-0.1c0,0,0,0,0,0
	c0,0,0.1-0.1,0.1-0.1c0,0,0-0.1,0-0.1c0,0,0,0,0.1,0c0,0,0,0,0,0c0,0,0,0,0,0c0,0,0,0,0.1,0c0,0,0.1,0,0.1,0c0,0,0,0,0,0
	c0,0,0,0,0,0c0,0,0,0,0.1,0c0,0,0,0.1-0.1,0.1c0,0-0.1,0.1-0.1,0.2C25.1,12.2,25.2,12.3,25.4,12.4c0.2-0.1,0.4-0.1,0.4-0.2
	c0-0.2-0.8,0-0.8-0.3c0,0,0-0.1,0.1-0.1c0,0,0,0,0-0.1c0.1-0.1,0.2-0.1,0.3-0.2c0,0,0,0.1-0.1,0.2c0.2,0,0.2-0.3,0.6-0.2
	c-0.3,0.1-0.3,0.3-0.7,0.4h0c0,0-0.1,0.1-0.1,0.1c0,0.2,0.8,0,0.8,0.3C25.8,12.3,25.7,12.4,25.4,12.4z M24.1,14
	C24.1,14,24.1,14,24.1,14C24.1,14,24.1,14,24.1,14z M23.8,13.5C23.8,13.5,23.8,13.5,23.8,13.5C23.9,13.6,23.9,13.5,23.8,13.5
	C23.9,13.5,23.9,13.5,23.8,13.5C23.9,13.4,23.9,13.4,23.8,13.5c0.1-0.1,0.1-0.1,0.1-0.1c0,0,0,0,0,0c0,0,0,0,0,0c0,0,0,0,0,0
	c0,0,0,0,0,0l-0.1,0c0,0,0,0,0,0c0,0,0,0,0,0c0,0,0,0,0,0c0,0,0,0,0,0C23.9,13.4,23.9,13.4,23.8,13.5C23.9,13.4,23.9,13.4,23.8,13.5
	C23.9,13.4,23.8,13.4,23.8,13.5z M23.9,13.2C23.9,13.2,23.9,13.2,23.9,13.2C23.9,13.2,23.8,13.2,23.9,13.2
	C23.9,13.3,23.9,13.3,23.9,13.2z M24,13.3C24,13.3,24,13.3,24,13.3c0.1,0.1,0.1,0.1,0.1,0C24.1,13.3,24,13.3,24,13.3z M23.6,13.7
	C23.6,13.7,23.6,13.7,23.6,13.7C23.5,13.7,23.5,13.7,23.6,13.7z M25.8,13.5c0,0.1-0.3,0.2-0.5,0.2c0.2,0,0.2,0,0.3,0
	c0.1,0,0.1,0,0.1,0c0,0,0.1,0,0.1,0c0,0,0,0.1,0,0.1c0,0,0,0,0,0c0,0,0,0.1,0,0.1c0,0,0,0-0.1,0l0,0c0,0,0,0,0,0c0,0,0,0,0,0
	c0,0.1-0.1,0-0.1,0.1c0,0,0.1,0,0,0.1c0,0,0,0,0,0c0,0,0,0,0,0c0,0-0.1,0-0.1,0c0,0,0,0,0,0c0,0,0-0.1,0-0.1c0,0,0,0,0,0
	c0,0,0,0.1,0,0.1c0,0,0,0,0,0c0,0,0,0,0,0.1c0,0,0,0,0-0.1c0,0,0,0,0,0c0,0,0-0.1,0-0.1c0,0,0,0,0,0c0,0-0.1,0-0.1,0c0,0,0,0,0,0
	c0,0,0,0-0.1,0c0,0,0-0.1,0.1-0.1c0,0,0,0,0,0c0,0,0.1,0,0.1,0c0,0,0,0,0-0.1c0,0,0,0,0,0c0,0-0.1,0-0.2,0c-0.1,0-0.1,0.1-0.2,0.1
	c-0.1,0-0.1,0-0.2,0c0,0,0,0.1,0,0.1c0.1,0,0.1,0.1,0,0.1c0,0-0.1,0-0.1,0c0,0,0,0,0,0c0,0,0,0.1-0.1,0.1c0,0-0.1,0-0.1,0
	c0,0,0,0,0,0c0,0,0,0,0,0c0,0,0,0,0,0c0,0,0,0,0,0c0,0,0,0,0,0c0,0,0,0,0.1,0c-0.1,0-0.1,0-0.1,0c0,0,0,0,0,0c0,0,0,0,0,0
	c0,0,0,0,0,0c0,0,0,0,0,0c0,0,0,0,0,0c0,0,0,0,0,0c0,0,0,0,0,0c0,0-0.1,0-0.1,0c0,0,0,0,0,0c0-0.1,0.1,0,0.1-0.1c0,0,0,0,0,0
	c0,0,0,0,0,0c0,0,0,0,0,0v0c0,0,0,0-0.1,0c0,0,0-0.1,0.1-0.1c0,0,0,0,0,0c0.1,0,0.1,0.2,0.2,0.1c0,0,0,0,0.1,0c0,0,0,0,0,0
	c0,0-0.1,0-0.1,0c-0.1,0-0.1-0.1,0-0.2c0,0-0.1,0-0.1,0c-0.4-0.1-0.2,0.2-0.5,0.2c0,0,0,0-0.1,0c0,0.1-0.2,0.2-0.2,0.2c0,0,0,0,0,0
	c0,0,0,0,0,0c-0.1,0.1-0.1,0-0.2,0.1c0,0,0-0.1,0-0.1c0,0,0,0,0,0c0,0,0,0,0-0.1c0,0,0,0,0,0c0,0-0.1,0-0.1,0c0,0,0,0,0,0
	c0,0,0,0,0,0c0,0.1-0.1,0.1-0.1,0.1c0,0,0-0.1,0-0.1c0,0,0,0,0,0c0,0,0,0,0-0.1c0,0,0,0,0,0c0,0,0,0.1-0.1,0.1c0,0-0.1,0-0.1-0.1
	c0,0,0,0,0,0c0,0,0,0.1,0,0.1c0,0,0,0,0,0c0,0,0,0.1,0,0.1c0,0-0.1,0-0.1-0.1c0,0,0,0,0,0c0,0,0,0,0,0c0,0,0-0.1,0-0.1c0,0,0,0,0,0
	C23,14.1,23,14,23,14c0,0,0,0,0,0c0,0,0,0,0,0c0,0,0-0.1,0.1-0.1c0,0,0,0,0,0c0,0,0,0,0,0c0,0,0,0,0.1,0c0,0,0,0,0,0c0,0,0,0,0,0
	c-0.1,0-0.1-0.1-0.1-0.1c0,0,0,0,0,0c0,0,0,0-0.1,0c0,0,0.1,0,0.1,0c0,0,0,0,0,0c0,0,0,0,0,0c0,0,0,0,0,0.1c0,0.1,0.2,0,0.2,0
	c0,0,0.2,0,0.2,0c0,0,0-0.1,0-0.1c0,0-0.1,0-0.1,0c-0.1,0-0.1-0.1-0.1-0.1c0,0,0,0,0,0c0,0,0,0,0-0.1c0,0,0,0,0,0c0,0,0,0,0,0
	c0,0,0,0,0,0c0,0,0,0,0,0c-0.1,0-0.2,0-0.1-0.1c0,0.1,0.1,0.1,0.1,0c0,0,0,0,0,0c-0.1,0-0.1-0.1,0-0.1c0,0,0,0,0,0c0,0,0,0,0,0
	c0,0,0,0,0,0c0,0,0,0,0,0c0,0,0,0,0,0c0,0,0,0,0,0c0,0,0,0,0,0c0,0,0-0.1,0-0.1c0,0,0,0,0,0c0,0,0-0.1,0.1,0c0,0,0,0,0,0
	c0,0,0,0,0,0c0,0,0,0,0,0c0,0-0.1,0-0.1-0.1c0,0,0,0,0,0c0,0,0,0,0,0c0,0,0.1,0,0.1,0c0,0,0,0,0,0c0,0,0,0,0,0c0,0,0,0.1,0.1,0.1
	c0,0,0,0,0,0c0,0,0,0,0,0c0,0,0,0,0,0c0,0,0,0,0-0.1c0,0,0,0,0,0c0,0,0,0,0-0.1c0,0,0.1,0,0.1,0.1c0,0,0,0,0,0c0,0,0,0.1,0,0.1
	c0,0.1,0,0.1,0.1,0.1c0.1,0,0.1,0.1,0.1,0.1l0,0c0,0,0,0,0,0c0,0,0,0,0,0c0,0,0,0,0,0l0.1,0c0,0,0-0.1,0-0.1c0,0,0,0,0,0
	c0,0,0-0.1,0.1-0.1c0,0,0,0,0,0c0,0,0.1-0.1,0.1-0.1c0,0,0-0.1,0-0.1c0,0,0,0,0.1,0c0,0,0,0,0,0c0,0,0,0,0.1,0c0,0,0,0,0.1,0
	c0,0,0.1,0,0.1,0.1c0,0,0,0,0,0c0,0,0,0,0,0.1c0,0,0,0,0.1,0c0,0,0,0.1-0.1,0.1c0,0,0,0.1-0.1,0.2c0.4-0.1,1,0,1.2,0
	C25.5,13.6,25.7,13.6,25.8,13.5c-0.1-0.1-0.1-0.1-0.4-0.1c-0.2,0-1,0.2-1-0.1c0-0.1,0.2-0.1,0.4-0.1c0,0,0,0,0,0
	c0.2-0.1,0.4,0,0.5-0.1c0,0-0.1,0.1-0.2,0.1c0.3,0.1,0.5-0.1,0.8,0.1c-0.2-0.1-0.7,0.1-1,0c0,0-0.1,0-0.1,0c-0.2,0-0.3,0-0.3,0.1
	c0,0.2,0.6,0.1,0.9,0.1C25.7,13.4,25.8,13.4,25.8,13.5z M23.5,14.7C23.5,14.8,23.5,14.8,23.5,14.7C23.5,14.8,23.6,14.8,23.5,14.7
	C23.6,14.8,23.6,14.7,23.5,14.7C23.6,14.7,23.6,14.7,23.5,14.7c0.1-0.1,0.1-0.1,0.1-0.1c0,0,0,0,0,0c0,0,0,0,0,0c0,0,0,0,0,0
	c0,0,0,0,0,0l-0.1,0c0,0,0,0,0,0c0,0,0,0,0,0c0,0,0,0,0,0C23.6,14.6,23.6,14.6,23.5,14.7C23.6,14.7,23.6,14.7,23.5,14.7
	C23.6,14.7,23.5,14.7,23.5,14.7C23.5,14.7,23.5,14.7,23.5,14.7z M23.6,14.5C23.6,14.5,23.5,14.5,23.6,14.5
	C23.5,14.5,23.5,14.5,23.6,14.5C23.6,14.6,23.6,14.5,23.6,14.5z M23.7,14.6C23.7,14.6,23.7,14.6,23.7,14.6c0.1,0.1,0.1,0.1,0.1,0
	C23.7,14.6,23.7,14.6,23.7,14.6z M25.7,14.8c0,0.1-0.3,0.1-0.4,0.1c0.2,0,0.2,0,0.3,0c0,0,0.1,0,0.1,0c0,0,0.1,0,0.1,0
	c0,0,0,0.1,0,0.1c0,0,0,0,0,0c0,0,0,0.1,0,0.1c0,0,0,0,0,0v0c0,0,0,0,0,0c0,0,0,0,0,0c0,0.1-0.1,0-0.1,0.1c0,0,0.1,0,0,0.1
	c0,0,0,0,0,0c0,0,0,0,0,0c0,0-0.1,0-0.1,0c0,0,0,0,0,0c0,0,0,0,0-0.1c0,0,0,0,0,0c0,0,0,0.1,0,0.1c0,0,0,0,0,0c0,0,0,0,0,0.1
	c0,0,0,0,0-0.1c0,0,0,0,0,0c0,0,0-0.1,0-0.1c0,0,0,0,0,0c0,0-0.1,0-0.1,0c0,0,0,0,0,0c0,0,0,0-0.1,0c0,0,0-0.1,0.1-0.1c0,0,0,0,0,0
	c0,0,0.1,0,0.1,0c0,0,0,0,0-0.1c0,0,0,0,0,0c0,0-0.1,0-0.2,0c-0.1,0-0.1,0.1-0.2,0.1c-0.1,0-0.1,0-0.2,0c0,0,0,0.1,0,0.1
	c0,0,0.1,0.1,0,0.1c0,0-0.1,0-0.1,0c0,0,0,0,0,0c0,0,0,0.1-0.1,0.1c0,0-0.1,0-0.1,0c0,0,0,0,0,0c0,0,0,0,0,0c0,0,0,0,0,0
	c0,0,0,0,0,0c0,0,0,0,0,0c0,0,0,0,0,0c0,0-0.1,0-0.1,0c0,0,0,0,0,0c0,0,0,0,0,0c0,0,0,0,0,0c0,0,0,0,0,0c0,0,0,0,0,0h0c0,0,0,0,0,0
	c0,0-0.1,0-0.1,0c0,0,0,0,0,0c0-0.1,0.1,0,0.1-0.1c0,0,0,0,0,0c0,0,0,0,0,0c0,0,0,0,0,0v0c0,0,0,0-0.1,0c0,0,0-0.1,0.1-0.1
	c0,0,0,0,0,0c0.1,0,0.1,0.1,0.2,0.1c0,0,0,0,0.1,0c0,0,0,0,0,0c0,0-0.1,0-0.1,0c-0.1,0-0.1-0.1,0-0.1c0,0,0,0-0.1,0
	c-0.5-0.1-0.3,0.2-0.7,0.1c0,0,0,0.1-0.1,0.1c0,0,0,0,0,0c0,0,0,0,0,0c0,0,0,0,0,0l-0.1,0.1c0,0,0,0,0,0c0,0-0.1,0-0.1,0
	c0,0,0,0,0,0c0,0,0,0,0,0c-0.1,0-0.2,0-0.2,0.1c0,0,0-0.1,0-0.1c0,0,0,0,0,0c0,0,0,0,0-0.1c0,0,0,0,0,0c0,0-0.1,0-0.1,0c0,0,0,0,0,0
	c0,0,0,0,0,0c0,0.1-0.1,0.1-0.1,0.1c0,0,0-0.1,0-0.1c0,0,0,0,0,0c0,0,0,0,0-0.1c0,0,0,0,0,0c0,0,0,0.1-0.1,0.1c0,0-0.1,0-0.1-0.1
	c0,0,0,0,0,0c0,0,0,0.1,0,0.1c0,0,0,0,0,0c0,0,0,0.1,0,0.1c0,0-0.1,0-0.1-0.1c0,0,0,0,0,0c0,0,0,0,0,0c0,0,0-0.1,0-0.1c0,0,0,0,0,0
	c-0.1,0.1-0.1,0-0.1,0c0,0,0,0,0,0c0,0,0,0,0,0c0,0,0-0.1,0.1-0.1c0,0,0,0,0,0c0,0,0,0,0,0c0,0,0,0,0.1,0c0,0,0,0,0,0c0,0,0,0,0,0
	c-0.1,0-0.1-0.1-0.1-0.1c0,0,0,0,0,0c0,0,0,0,0,0c0,0,0.1,0,0.1,0c0,0,0,0,0,0c0,0,0,0,0,0c0,0,0,0,0,0.1c0,0.1,0.2,0,0.2,0
	c0,0,0.2,0,0.2,0c0,0,0-0.1,0-0.1c0,0,0,0,0,0c0,0,0,0-0.1,0c-0.1-0.1-0.2-0.2-0.2-0.2c0,0,0,0,0,0c0,0,0,0,0-0.1c0,0,0,0,0,0
	c0,0,0,0,0,0c0,0,0,0,0,0c0,0,0,0,0,0c-0.1,0-0.2,0-0.1-0.1c0,0.1,0.1,0.1,0.1,0c0,0,0,0,0,0c-0.1,0-0.1-0.1,0-0.1c0,0,0,0,0,0
	c0,0,0,0,0,0c0,0,0,0,0,0c0,0,0,0,0,0c0,0,0,0,0,0c0,0,0,0,0,0c0,0,0,0,0,0c0,0,0-0.1,0-0.1c0,0,0,0,0,0c0,0,0-0.1,0.1,0
	c0,0,0,0,0,0c0,0,0,0,0,0c0,0,0,0,0,0c0,0-0.1,0-0.1-0.1c0,0,0,0,0,0c0,0,0,0,0,0c0,0,0.1,0,0.1,0c0,0,0,0,0,0c0,0,0,0,0,0
	c0,0,0,0.1,0.1,0.1c0,0,0,0,0,0c0,0,0,0,0,0c0,0,0,0,0,0c0,0,0,0,0,0c0,0,0,0,0,0c0,0,0,0,0,0c0,0,0.1,0,0.1,0c0,0,0,0,0,0
	c0,0,0,0.1,0,0.1c0,0.1,0,0.1,0.1,0.1c0.1,0,0.1,0.1,0.1,0.1c0,0,0,0,0,0c0,0,0,0,0,0l0,0c0,0,0-0.1,0-0.1c0,0,0,0,0,0
	c0,0,0-0.1,0.1-0.1c0,0,0,0,0,0c0,0,0.1-0.1,0.1-0.1c0,0,0-0.1,0-0.1c0,0,0,0,0.1,0c0,0,0,0,0,0c0,0,0,0,0.1,0c0,0,0,0,0.1,0
	c0,0,0.1,0,0.1,0.1c0,0,0,0,0,0c0,0,0,0,0,0c0,0,0,0,0.1,0c0,0,0,0.1-0.1,0.1c0,0.1,0,0.1-0.1,0.2c0.4-0.1,1.3,0,1.5,0
	C25.4,14.9,25.6,14.8,25.7,14.8c-0.1-0.1-0.1-0.1-0.4-0.1c-0.2,0-1.2,0.2-1.2-0.1c0-0.2,0.3-0.1,0.6-0.1c0,0,0,0,0,0
	c0.1-0.1,0.5,0,0.6,0c0,0-0.2,0.1-0.3,0.1c0.3,0.1,0.5-0.1,0.7,0c-0.3-0.1-0.6,0.2-1,0.1c0,0-0.1,0-0.1,0c-0.2,0-0.5,0-0.5,0.1
	c0,0.2,0.8,0.1,1.1,0.1C25.6,14.6,25.7,14.7,25.7,14.8z M27.8,17C27.8,17,27.8,17,27.8,17z M27.4,16.4
	C27.4,16.4,27.4,16.4,27.4,16.4C27.4,16.4,27.4,16.4,27.4,16.4z M27.4,16.5L27.4,16.5L27.4,16.5z M27.4,16.6
	C27.4,16.6,27.4,16.6,27.4,16.6C27.5,16.7,27.5,16.6,27.4,16.6C27.5,16.6,27.5,16.6,27.4,16.6C27.5,16.6,27.5,16.5,27.4,16.6
	c0.1-0.1,0.1-0.1,0.1-0.1c0,0,0,0,0,0c0,0,0,0,0,0c0,0,0,0,0,0c0,0,0,0,0,0l-0.1,0c0,0,0,0,0,0c0,0,0,0,0,0c0,0,0,0,0,0c0,0,0,0,0,0
	C27.5,16.5,27.5,16.5,27.4,16.6C27.5,16.5,27.5,16.5,27.4,16.6C27.5,16.5,27.4,16.6,27.4,16.6z M27.5,16.4
	C27.5,16.4,27.5,16.3,27.5,16.4C27.5,16.4,27.4,16.4,27.5,16.4C27.5,16.4,27.5,16.4,27.5,16.4z M27.6,16.4
	C27.6,16.4,27.6,16.5,27.6,16.4c0.1,0.1,0.1,0.1,0.1,0C27.7,16.4,27.6,16.4,27.6,16.4z M29.6,16.9C29.6,16.9,29.6,17,29.6,16.9
	C29.6,17,29.6,17,29.6,16.9L29.6,16.9C29.6,17,29.6,17,29.6,16.9c0,0.1,0,0.1,0,0.1c0,0.1-0.1,0-0.1,0.1c0,0,0.1,0,0,0.1
	c0,0,0,0,0,0c0,0,0,0,0,0c0,0-0.1,0-0.1,0c0,0,0,0,0,0c0,0,0,0,0-0.1c0,0,0,0,0,0c0,0,0,0.1-0.1,0.1h0c0,0,0,0,0,0.1c0,0,0,0,0-0.1
	c0,0,0,0,0,0c0,0,0-0.1,0-0.1c0,0,0,0,0,0c0,0-0.1,0-0.1,0v0c0,0,0,0-0.1,0c0,0,0-0.1,0.1-0.1c0,0,0,0,0,0c0,0,0.1,0,0.1,0
	c0,0,0,0,0-0.1c0,0,0,0,0,0c0,0-0.1,0-0.2,0c-0.1,0-0.1,0.1-0.2,0.1c-0.1,0-0.1,0-0.2,0c0,0,0,0.1,0,0.1c0,0,0.1,0.1,0,0.1
	c0,0-0.1,0-0.1,0c0,0,0,0,0,0c0,0,0,0.1-0.1,0.1c0,0-0.1,0-0.1,0c0,0,0,0,0,0c0,0,0,0,0,0c0,0,0,0,0,0c0,0,0,0,0,0c0,0,0,0,0,0
	c0,0,0,0,0,0c0,0-0.1,0-0.1,0c0,0,0,0,0,0c0,0,0,0,0,0c0,0,0,0,0,0c0,0,0,0,0,0c0,0,0,0,0,0c0,0,0,0,0,0c0,0,0,0,0,0
	c0,0-0.1,0-0.1,0c0,0,0,0,0,0c0-0.1,0.1,0,0.1-0.1c0,0,0,0,0,0c0,0,0,0,0,0c0,0,0,0,0,0v0c0,0,0,0-0.1,0c0,0,0-0.1,0.1-0.1
	c0,0,0,0,0,0c0.1,0,0.1,0.1,0.2,0.1c0,0,0,0,0.1,0c0,0,0,0,0,0c0,0-0.1,0-0.1,0c-0.1,0-0.1-0.1,0-0.2c0,0,0,0.1-0.1,0.1
	c-0.5-0.1-0.3,0.2-0.7,0.1c0,0,0,0.1-0.1,0.1c0,0-0.1,0-0.1,0c0,0-0.1,0.1-0.1,0.1c0,0,0,0,0,0c0,0,0,0,0,0c-0.1,0-0.1,0-0.2,0.1
	c0,0,0-0.1,0-0.1c0,0,0,0,0,0c0,0,0,0,0,0c0,0,0,0,0,0c0,0-0.1,0-0.1,0c0,0,0,0,0,0c0,0,0,0,0,0c0,0.1-0.1,0.1-0.1,0.1
	c0,0,0-0.1,0-0.1c0,0,0,0,0,0c0,0,0,0,0-0.1c0,0,0,0,0,0c0,0,0,0.1-0.1,0.1c0,0-0.1,0-0.1-0.1c0,0,0,0,0,0c0,0,0,0.1,0,0.1
	c0,0,0,0,0,0c0,0,0,0.1,0,0.1c0,0-0.1,0-0.1-0.1c0,0,0,0,0,0c0,0,0,0,0,0c0,0,0-0.1,0-0.1c0,0,0,0,0,0c-0.1,0.1-0.1,0-0.1,0
	c0,0,0,0,0,0c0,0,0,0,0,0c0,0,0-0.1,0.1-0.1c0,0,0,0,0,0c0,0,0,0,0,0c0,0,0,0,0.1,0c0,0,0,0,0,0c0,0,0,0,0,0c-0.1,0-0.1-0.1-0.1-0.1
	c0,0,0,0,0,0c0,0,0,0,0,0c0,0,0.1,0,0.1,0c0,0,0,0,0,0c0,0,0,0,0,0c0,0,0,0,0,0.1c0,0.1,0.2,0,0.2,0c0,0,0.1,0,0.2,0
	c0,0-0.1-0.1,0-0.1l0,0c0,0,0,0,0-0.1c0,0-0.1,0-0.1,0c-0.1-0.1-0.2-0.2-0.2-0.2c0,0,0,0,0,0c0,0,0,0,0-0.1c0,0,0,0,0,0c0,0,0,0,0,0
	c0,0,0,0,0,0c0,0,0,0,0,0c-0.1,0-0.2,0-0.1-0.1c0,0.1,0.1,0.1,0.1,0c0,0,0,0,0,0c-0.1,0-0.1-0.1,0-0.1c0,0,0,0,0,0c0,0,0,0,0,0
	c0,0,0,0,0,0c0,0,0,0,0,0c0,0,0,0,0,0c0,0,0,0,0,0c0,0,0,0,0,0c0,0,0-0.1,0-0.1c0,0,0,0,0,0c0,0,0-0.1,0.1,0c0,0,0,0,0,0
	c0,0,0,0,0,0c0,0,0,0,0,0c0,0-0.1,0-0.1-0.1c0,0,0,0,0,0c0,0,0,0,0,0c0,0,0.1,0,0.1,0c0,0,0,0,0,0c0,0,0,0,0,0c0,0,0,0.1,0.1,0.1
	c0,0,0,0,0,0c0,0,0,0,0,0c0,0,0,0,0,0c0,0,0,0,0,0c0,0,0,0,0,0c0,0,0,0,0,0c0,0,0.1,0,0.1,0c0,0,0,0,0,0c0,0,0,0.1,0,0.1
	c0,0.1,0,0.1,0.1,0.1c0.1,0,0.1,0.1,0.2,0.1c0,0,0,0,0,0c0,0,0,0,0,0l0,0c0,0,0-0.1,0-0.1c0,0,0,0,0,0c0,0,0-0.1,0.1-0.1
	c0,0,0,0,0,0c0,0,0.1-0.1,0.1-0.1c0,0,0-0.1,0-0.1c0,0,0,0,0.1,0c0,0,0,0,0,0c0,0,0,0,0.1,0c0,0,0,0,0.1,0c0,0,0.1,0,0.1,0.1
	c0,0,0,0,0,0c0,0,0,0,0,0c0,0,0,0,0.1,0c0,0,0,0.1-0.1,0.1c0,0,0,0.1-0.1,0.2c0.4-0.1,1.3,0,1.5,0c0.1,0,0.4,0,0.4-0.1
	c0,0,0-0.1-0.3-0.1c-0.2,0-1.2,0.2-1.2-0.1c0-0.2,0.3-0.1,0.6-0.1c0,0,0,0,0,0c0.1-0.1,0.5,0,0.6,0c0,0-0.2,0.1-0.3,0.1
	c0.3,0.1,0.4-0.1,0.7,0c-0.2-0.1-0.6,0.2-1,0.1c0,0-0.1,0-0.1,0c-0.2,0-0.5,0-0.5,0.1c0,0.2,0.8,0.1,1.1,0.1c0.3,0,0.4,0.1,0.4,0.1
	c0,0.1-0.3,0.1-0.4,0.1c0,0,0,0,0,0c0.2,0,0.2,0,0.3,0C29.5,16.8,29.5,16.8,29.6,16.9C29.5,16.9,29.6,16.8,29.6,16.9
	C29.6,16.9,29.6,16.9,29.6,16.9C29.6,16.9,29.6,16.9,29.6,16.9z M27.6,17.7C27.6,17.7,27.6,17.7,27.6,17.7
	C27.6,17.6,27.6,17.6,27.6,17.7C27.6,17.6,27.6,17.7,27.6,17.7z M27.6,17.7C27.6,17.7,27.6,17.7,27.6,17.7
	C27.6,17.7,27.5,17.7,27.6,17.7L27.6,17.7c-0.1-0.1-0.1-0.1-0.1-0.1c0,0,0,0,0,0c0,0,0,0,0,0c0,0,0,0,0,0
	C27.4,17.7,27.5,17.7,27.6,17.7c-0.1,0-0.1,0-0.1,0c0,0,0,0,0,0c0,0,0,0.1,0,0.1C27.4,17.9,27.5,17.8,27.6,17.7
	C27.5,17.8,27.5,17.8,27.6,17.7C27.5,17.8,27.5,17.8,27.6,17.7C27.5,17.7,27.5,17.7,27.6,17.7C27.5,17.7,27.5,17.7,27.6,17.7
	C27.5,17.7,27.5,17.7,27.6,17.7z M27.5,17.6C27.5,17.6,27.4,17.5,27.5,17.6C27.4,17.6,27.4,17.6,27.5,17.6
	C27.5,17.6,27.5,17.6,27.5,17.6z M28.3,17.6c-0.1,0-0.3,0-0.3,0.1c0,0.1,0.6,0.1,0.8,0.1c0.3,0,0.3,0.1,0.3,0.1
	c0,0.1-0.3,0.1-0.5,0.1c0,0,0,0,0,0c0.1,0,0.3,0,0.3,0c0.1,0,0,0,0,0c0,0,0.1,0,0.1,0c0,0,0,0.1,0,0.1c0,0,0,0,0,0c0,0,0,0.1,0,0.1
	c0,0,0,0-0.1,0h0c0,0,0,0,0,0c0,0,0,0,0,0c0,0.1-0.1,0-0.1,0.1c0,0,0,0,0,0.1c0,0,0,0,0,0c0,0,0,0,0,0c0,0-0.1,0-0.1,0c0,0,0,0,0,0
	c0,0,0,0,0-0.1c0,0,0,0,0,0c0,0,0,0.1-0.1,0.1c0,0,0,0,0,0c0,0,0,0,0,0.1c0,0,0,0,0-0.1c0,0,0,0,0,0c0,0,0-0.1,0.1-0.1c0,0,0,0,0,0
	c0,0-0.1,0-0.1,0c0,0,0,0,0,0c0,0-0.1,0-0.1,0c0,0,0-0.1,0.1-0.1c0,0,0,0,0,0c0,0,0.1,0,0.1,0c0,0,0,0,0-0.1c0,0,0,0,0,0
	c0,0-0.1,0-0.1,0c-0.1,0-0.1,0-0.2,0c-0.1,0-0.1,0-0.2,0c0,0,0,0.1,0,0.1c0,0,0.1,0.1,0,0.1c0,0-0.1,0-0.1,0c0,0,0,0,0,0
	c0,0,0,0.1-0.1,0.1c0,0-0.1,0-0.1,0c0,0,0,0,0,0c0,0,0,0,0,0c0,0,0,0,0,0c0,0,0,0,0,0c0,0,0,0,0,0c0,0,0,0,0,0c0,0-0.1,0-0.1,0
	c0,0,0,0,0,0c0,0,0,0,0,0c0,0,0,0,0,0c0,0,0,0,0,0c0,0,0,0,0,0c0,0,0,0,0,0c0,0,0,0,0,0c0,0-0.1,0-0.1,0c0,0,0,0,0,0
	c0-0.1,0.1,0,0.1-0.1c0,0,0,0,0,0c0,0,0,0,0,0c0,0,0,0,0,0c0,0,0,0,0,0c0,0,0,0-0.1,0c0,0,0-0.1,0.1-0.1c0,0,0,0,0,0
	c0.1,0,0.1,0.1,0.2,0.1c0,0,0,0,0.1,0c0,0,0,0,0,0c0,0-0.1,0-0.1,0c-0.1,0,0-0.1,0-0.2c0,0-0.1,0-0.1,0c-0.4-0.1-0.2,0.1-0.4,0.1
	c0,0,0,0.1-0.1,0.1c0,0,0,0,0,0c0,0,0,0,0,0c0,0.1-0.1,0.2-0.2,0.1c0,0,0,0,0,0c0,0,0,0,0,0c-0.1,0-0.2,0-0.2,0.1c0,0,0-0.1,0-0.1
	c0,0,0,0,0,0c0,0,0,0,0,0c0,0,0,0,0,0c0,0-0.1,0-0.1,0c0,0,0,0,0,0c0,0,0,0,0,0c0,0.1-0.1,0.1-0.1,0.1c0,0,0-0.1,0-0.1c0,0,0,0,0,0
	c0,0,0,0,0-0.1c0,0,0,0,0,0c0,0,0,0.1-0.1,0.1c0,0-0.1,0-0.1-0.1c0,0,0,0,0,0c0,0,0,0.1,0,0.1c0,0,0,0,0,0c0,0,0,0.1,0,0.1
	c0,0-0.1,0-0.1-0.1c0,0,0,0,0,0c0,0,0,0,0,0c0,0,0-0.1,0-0.1c0,0,0,0,0,0c-0.1,0.1-0.1,0-0.1,0c0,0,0,0,0,0c0,0,0,0,0,0
	c0,0,0-0.1,0.1-0.1c0,0,0,0,0,0c0,0,0,0,0,0c0,0,0,0,0.1,0c0,0,0,0,0,0c0,0,0,0,0,0c-0.1,0-0.1-0.1-0.1-0.1c0,0,0,0,0,0c0,0,0,0,0,0
	c0,0,0.1,0,0.1,0h0c0,0,0,0,0,0c0,0,0,0,0,0.1c0,0.1,0.2,0,0.2,0c0,0,0.1,0,0.2,0c0,0,0-0.1,0-0.1l-0.1,0c0,0,0,0,0,0
	c-0.1-0.1-0.1,0-0.1,0c0,0,0,0,0,0c0,0,0,0,0,0c0,0,0,0,0,0c0,0,0,0,0,0c0,0,0,0,0,0c0,0,0,0,0,0c-0.1,0-0.2,0-0.1-0.1
	c0,0.1,0.1,0.1,0.1,0c0,0,0,0,0,0c-0.1,0-0.1,0,0-0.1c0,0,0,0,0,0c0,0,0,0,0,0c0,0,0,0,0,0c0,0,0,0,0,0c0,0,0,0,0,0c0,0,0,0,0,0
	c0,0,0,0,0,0c0,0,0-0.1,0-0.1c0,0,0,0,0,0c0,0,0-0.1,0.1,0c0,0,0,0,0,0c0,0,0,0,0,0c0,0,0,0,0,0c0,0-0.1,0-0.1,0c0,0,0,0,0,0
	c0,0,0,0,0,0c0,0,0.1,0,0.1,0c0,0,0,0,0,0c0,0,0,0,0,0c0,0,0,0,0.1,0.1c0,0,0,0,0,0c0,0,0,0,0,0c0,0,0,0,0,0c0,0,0,0,0,0
	c0,0,0,0,0,0c0,0,0,0,0,0c0,0,0.1,0,0.1,0c0,0,0,0,0,0c0,0,0,0.1,0,0.1c0,0.1,0,0.1,0.1,0.1c0.1,0,0.1,0,0.1,0c0,0,0,0,0,0l0,0
	c0,0,0-0.1,0-0.1c0,0,0,0,0,0c0,0,0-0.1,0.1-0.1c0,0,0,0,0,0c0,0,0.1-0.1,0.1-0.1c0,0,0-0.1,0-0.1c0,0,0,0,0.1,0c0,0,0,0,0,0
	c0,0,0,0,0,0c0,0,0,0,0.1,0c0,0,0.1,0,0.1,0.1c0,0,0,0,0,0c0,0,0,0,0,0c0,0,0,0,0.1,0c0,0,0,0.1-0.1,0.1c0,0,0,0.1-0.1,0.2
	c0.3-0.1,0.9,0,1.1,0c0.1,0,0.4,0,0.4-0.1c0,0,0-0.1-0.2-0.1c-0.2,0-0.9,0.2-0.9-0.1C28,17.5,28.2,17.5,28.3,17.6
	C28.4,17.5,28.4,17.5,28.3,17.6c0.2-0.2,0.5,0,0.6-0.1c0,0-0.2,0.1-0.3,0.1c0.3,0.1,0.4-0.1,0.7,0C29.1,17.5,28.7,17.7,28.3,17.6
	C28.4,17.6,28.4,17.6,28.3,17.6z M27.3,19C27.3,19,27.3,19.1,27.3,19C27.3,19.1,27.4,19.1,27.3,19C27.4,19,27.4,19,27.3,19
	C27.4,19,27.4,19,27.3,19c0.1-0.1,0.1-0.1,0.1,0c0,0,0,0,0,0c0,0,0,0,0,0c0,0,0,0,0,0c0,0,0,0,0,0l-0.1,0c0,0,0,0,0,0c0,0,0,0,0,0
	c0,0,0,0,0,0C27.3,18.9,27.3,18.9,27.3,19C27.3,18.9,27.4,18.9,27.3,19C27.3,19,27.3,19,27.3,19C27.3,19,27.3,19,27.3,19z
	 M27.4,18.8C27.4,18.8,27.3,18.8,27.4,18.8C27.3,18.8,27.3,18.8,27.4,18.8C27.3,18.9,27.4,18.8,27.4,18.8z M27.4,18.8
	C27.4,18.9,27.4,18.9,27.4,18.8C27.5,18.9,27.5,18.9,27.4,18.8C27.5,18.9,27.5,18.9,27.4,18.8z M28.1,18.8c-0.1,0-0.1,0.1-0.1,0.1
	c0,0.1,0.9-0.1,0.9,0.1c0,0.1-0.2,0.2-0.5,0.2c0,0,0,0-0.1,0c0,0.1,0.1,0.1,0.1,0.1c0,0,0,0.1,0,0.1c0,0,0,0.1,0,0c0,0,0,0-0.1,0
	c0,0,0,0,0,0c0,0-0.1,0,0,0.1c0,0,0,0,0,0v0c0,0,0,0,0,0c0,0,0,0,0,0c0,0-0.1,0-0.1,0c0,0,0,0.1,0,0.1c0,0,0,0,0,0c0,0,0,0,0,0
	c0,0,0,0,0-0.1c0,0,0,0,0,0c0,0,0,0,0-0.1c0,0,0,0,0,0c0,0-0.1,0-0.1,0c0,0,0,0,0,0c0,0,0,0,0,0c0,0,0,0,0-0.1c0,0,0,0,0,0
	c0,0,0,0,0.1,0c0,0,0,0,0,0c0,0,0,0,0,0h0h0c0,0,0,0,0,0c0,0,0,0,0,0c0,0,0,0-0.1,0c0,0,0.1,0,0.1,0c0,0,0,0,0,0c0,0,0,0,0.1,0.1
	l0,0c0,0,0,0,0.1-0.1c0,0,0,0,0,0c0,0-0.1-0.1-0.1-0.1c0,0-0.2,0-0.3,0c0.1,0.1,0.1,0.2,0.1,0.3c0,0,0,0.1,0,0.1c0,0,0,0-0.1,0
	c0,0,0,0,0,0c0,0,0,0.1-0.1,0.1c0,0-0.1,0-0.1,0c0,0,0,0,0,0h0c0,0,0,0,0,0c0,0,0,0,0,0c0,0,0,0,0,0c0,0,0,0,0,0c0,0-0.1,0-0.1,0
	c0,0,0,0,0,0c0,0,0,0,0,0c0,0,0,0,0,0c0,0,0,0,0,0c0,0,0,0,0,0c0,0,0,0,0,0c0,0,0,0,0,0c0,0-0.1,0-0.1,0c0,0,0,0,0,0
	c0-0.1,0.1,0,0.1-0.1c0,0,0,0,0,0c0,0,0,0,0,0c0,0,0,0,0,0v0c0,0,0,0,0,0c0,0,0-0.1,0.1-0.1c0,0,0,0,0,0c0.1,0,0.1,0.1,0.2,0.1
	c0,0,0,0,0.1,0c0,0,0,0,0,0c0,0-0.1-0.1-0.1-0.1c0,0,0-0.1,0-0.1c-0.1,0-0.1,0.1-0.2,0.1c0,0,0,0,0,0c0,0.1-0.1,0.2-0.1,0.2
	c0,0-0.1,0.1-0.1,0.1c0,0,0,0,0,0c0,0,0,0,0,0c-0.1,0-0.1,0-0.1,0.1c0,0,0-0.1,0-0.1c0,0,0,0,0,0c0,0,0,0,0,0c0,0,0,0,0,0
	c0,0-0.1,0-0.1,0c0,0,0,0,0,0c0,0,0,0,0,0c0,0-0.1,0.1-0.1,0.1c0,0,0-0.1,0-0.1c0,0,0,0,0,0c0,0,0,0,0,0c0,0,0,0,0,0
	c0,0,0,0.1-0.1,0.1c0,0-0.1,0-0.1-0.1c0,0,0,0,0,0c0,0,0,0.1,0,0.1c0,0,0,0,0,0c0,0,0,0.1,0,0.1c0,0-0.1,0-0.1-0.1c0,0,0,0,0,0
	c0,0,0,0,0,0c0,0,0-0.1,0-0.1c0,0,0,0,0,0c-0.1,0.1-0.1,0-0.1,0c0,0,0,0,0,0c0,0,0,0,0,0c0,0,0-0.1,0.1-0.1c0,0,0,0,0,0c0,0,0,0,0,0
	c0,0,0,0,0.1,0c0,0,0,0,0,0c0,0,0,0,0,0c-0.1,0-0.1,0-0.1-0.1c0,0,0,0,0,0c0,0,0,0,0,0c0,0,0.1,0,0.1,0c0,0,0,0,0,0c0,0,0,0,0,0
	c0,0,0,0,0,0.1c0,0,0,0,0.1,0c0,0,0,0,0,0l0,0c0,0,0.1,0,0.1,0c0,0,0.2,0,0.2,0c0,0,0,0,0-0.1c-0.1,0-0.1,0-0.1-0.1
	C27,19.3,27,19.2,27,19.2c0,0,0,0,0,0c0,0,0,0,0,0c0,0,0,0,0,0c0,0,0,0,0,0c0,0,0,0,0,0c0,0,0,0,0,0c-0.1,0-0.2,0-0.1-0.1
	c0,0.1,0.1,0.1,0.1,0c0,0,0,0,0,0c0,0-0.1,0,0-0.1c0,0,0,0,0,0c0,0,0,0,0,0c0,0,0,0,0,0c0,0,0,0,0,0c0,0,0,0,0,0c0,0,0,0,0,0
	c0,0,0,0,0,0c0,0,0-0.1,0-0.1c0,0,0,0,0,0c0,0,0,0,0.1,0c0,0,0,0,0,0c0,0,0,0,0,0c0,0,0,0,0,0c0,0-0.1,0-0.1,0c0,0,0,0,0,0
	c0,0,0,0,0,0c0,0,0.1,0,0.1,0c0,0,0,0,0,0c0,0,0,0,0,0c0,0,0,0,0.1,0.1c0,0,0,0,0,0c0,0,0,0,0,0c0,0,0,0,0,0c0,0,0,0,0,0
	c0,0,0,0,0,0c0,0,0,0,0,0c0,0,0.1,0,0.1,0c0,0,0,0,0,0c0,0,0,0.1,0,0.1c0,0.1,0,0.1,0.1,0.1c0.1,0,0.1,0.2,0.2,0.2
	c0-0.1,0-0.1,0-0.2c0,0,0,0,0,0c0,0,0-0.1,0.1-0.1c0,0,0,0,0,0c0,0,0.1-0.1,0.1-0.1c0,0,0-0.1,0-0.1c0,0,0,0,0.1,0c0,0,0,0,0,0
	c0,0,0,0,0,0c0,0,0,0,0.1,0c0,0,0.1,0,0.1,0.1c0,0,0,0,0,0c0,0,0,0,0,0c0,0,0,0,0.1,0c0,0,0,0.1-0.1,0.1c0,0,0,0.1-0.1,0.2v0
	c0.4-0.1,0.7,0,0.8,0c0.2,0,0.4-0.1,0.4-0.1c0-0.1-0.9,0.1-0.9-0.1C27.9,18.8,28,18.8,28.1,18.8C28.1,18.8,28.1,18.7,28.1,18.8
	c0.2-0.2,0.5,0,0.6-0.1c0,0-0.2,0.1-0.3,0.1c0.3,0.1,0.4-0.1,0.7,0C28.9,18.7,28.5,19,28.1,18.8C28.1,18.9,28.1,18.8,28.1,18.8z
	 M14,3.6c0-0.1-0.1-0.2-0.2-0.2c-0.1,0-0.2,0.1-0.2,0.2c0,0.1,0.1,0.2,0.2,0.2C13.9,3.8,14,3.7,14,3.6z M13.9,3
	c0-0.1-0.1-0.2-0.2-0.2c-0.1,0-0.2,0.1-0.2,0.2c0,0.1,0.1,0.2,0.2,0.2C13.8,3.2,13.9,3.1,13.9,3z M14,2.8c0.1,0,0.2-0.1,0.2-0.2
	S14.2,2.4,14,2.4c-0.1,0-0.2,0.1-0.2,0.2S13.9,2.8,14,2.8z M14.6,2.7c0.1,0,0.2-0.1,0.2-0.2c0-0.1-0.1-0.2-0.2-0.2
	c-0.1,0-0.2,0.1-0.2,0.2C14.4,2.6,14.5,2.7,14.6,2.7z M17,2.3c0.1,0.1,0.2,0.1,0.3,0c0.1-0.1,0.1-0.2,0-0.3C17.2,2,17.1,2,17,2
	C16.9,2.1,16.9,2.3,17,2.3z M16.9,1.9c0.1-0.1,0.1-0.2,0-0.3c-0.1-0.1-0.2-0.1-0.3,0c-0.1,0.1-0.1,0.2,0,0.3C16.7,2,16.9,2,16.9,1.9
	z M16.4,1.8c0.1-0.1,0.1-0.2,0-0.3c-0.1-0.1-0.2-0.1-0.3,0c-0.1,0.1-0.1,0.2,0,0.3C16.2,1.9,16.3,1.9,16.4,1.8z M15.9,2.2
	c0.1-0.1,0.1-0.2,0-0.3c-0.1-0.1-0.2-0.1-0.3,0c-0.1,0.1-0.1,0.2,0,0.3C15.7,2.2,15.8,2.2,15.9,2.2z M14.6,1.9l0.2,0.4L14.9,2
	c0,0,0,0,0,0c0,0.1,0,0.3,0,0.5c0,0.1,0.1,0.3,0.3,0.3c0.1,0,0.3-0.1,0.3-0.3c0-0.1-0.1-0.2-0.1-0.2c-0.1-0.1-0.2-0.2-0.3-0.3
	c0,0,0,0,0,0l0.4,0l-0.1-0.4l-0.3,0.2c0,0,0,0,0,0l0-0.4l-0.4,0.1l0.2,0.3c0,0,0,0,0,0L14.6,1.9z M17,2.5c0.1,0.1,0.1,0.2,0.1,0.3
	c-0.1,0-0.1-0.1-0.2-0.2l0,0.5C17,3,17.1,3,17.1,2.9c0,0.3-0.1,0.5-0.3,0.5c-0.1,0-0.2-0.1-0.3-0.2c0-0.1,0.1-0.2,0.2-0.1
	c0-0.3-0.2-0.3-0.3-0.2c0.1-0.3,0.1-0.5-0.2-0.6c-0.2,0.3-0.1,0.4,0.1,0.6c-0.2-0.1-0.4,0.1-0.2,0.3c0-0.2,0.2-0.1,0.2,0
	c0,0.1-0.1,0.3-0.3,0.4c-0.3,0.1-0.4-0.1-0.5-0.3c0.1,0,0.2,0,0.4,0.1L16,3c-0.1,0.2-0.2,0.2-0.3,0.3c0-0.1,0.1-0.4,0.1-0.4
	l-0.6,0.2c0,0,0.3,0.1,0.4,0.2c-0.1,0-0.2,0.1-0.4,0l0.2,0.4c0-0.2,0.1-0.3,0.2-0.3c0.1,0.2,0.1,0.4-0.2,0.5C15.2,4.1,15,4,15,3.9
	c-0.1-0.1,0-0.3,0.2-0.2c0-0.3-0.3-0.3-0.3-0.1c0-0.3-0.1-0.5-0.4-0.5c-0.1,0.3,0,0.5,0.3,0.6c-0.2,0-0.3,0.1-0.1,0.3
	c0-0.2,0.1-0.2,0.2-0.1c0.1,0.1,0,0.2-0.1,0.3c-0.1,0.1-0.3,0.1-0.5-0.2c0.1,0,0.1,0,0.2,0l-0.3-0.4c0,0.1,0,0.2,0,0.3
	c-0.1-0.1-0.1-0.1-0.1-0.3l-0.2,0.2c0.2,0.1,0.5,0.4,0.8,0.8c0.3-0.2,0.9-0.5,1.3-0.6c0.4-0.2,1-0.4,1.4-0.4c-0.1-0.5,0-0.9,0-1.1
	L17,2.5z M17.7,5.3c0.2-0.2,0-0.4,0.3-0.8c-0.3,0.2-0.8,0.4-1.2,0.6C17,5.4,17.4,5.6,17.7,5.3z M17.6,8.4C18,8.2,18,7.8,17.9,7.6
	c-0.1-0.2-0.2-0.4-0.3-0.4c-0.2,0-0.4-0.1-0.4-0.3c-0.1-0.2,0.2-0.3,0.4-0.5c-0.2-0.1-0.4-0.2-0.2-0.3c0.2-0.1,0.4,0.1,0.4,0
	c0.1-0.1-0.1-0.2-0.2-0.3c-0.1-0.1-0.2-0.1-0.3,0l-1.1,0.4c-0.1,0.1-0.2,0.1-0.2,0.2c0,0.1-0.1,0.3,0,0.3c0.1,0,0.1-0.3,0.3-0.3
	c0.2,0,0.2,0.1,0,0.4c0.3-0.1,0.5-0.2,0.6,0.1c0.1,0.2,0,0.3-0.1,0.5c-0.1,0.1,0,0.3,0,0.5C16.9,8.2,17.2,8.6,17.6,8.4z M15.5,6.2
	c0.4,0,0.5-0.5,0.4-0.8c-0.4,0.2-0.9,0.3-1.2,0.4C15.2,5.9,15.2,6.2,15.5,6.2z M21.6,16c-0.1,0.3,0.1,0.3,0.1,0.6
	c0,0.3-0.2,0.4-0.5,0.5c0.2-0.4,0-0.6-0.3-0.7c0.1,0.7-0.5,0.8-0.7,0.7c0.2,0,0.3-0.4,0.2-0.7c-0.1,0.2-0.4,0.4-0.6,0.4
	c-0.2,0-0.4-0.2-0.5-0.4c0.3,0.2,0.5,0,0.5-0.2c0-0.1-0.3-0.2-0.3-0.4c0-0.5,0.5-0.3,0.5-0.7c0-0.2-0.1-0.3-0.2-0.3
	c-0.1,0-0.3,0.1-0.3,0.3c-0.3-0.2,0-0.8-0.1-1.1c0,0.6-0.4,0.5-0.5,0.8c-0.2-0.2,0-0.6-0.2-1.1c-0.1,0.5-0.3,0.4-0.3,0.8
	c-0.5-0.3-1.5-0.2-1.8,0.2c0.9,0.7,2,1.1,2,2.2c0,0.8-1.3,1.2-1.3,1.7c0,0.5,1.3,1.8,2,1.8c0.2,0,0.3-0.3,0.5-0.3c0.2,0,0.3,0,0.5,0
	c0.2,0,0.3,0.2,0.3,0.3c0.3,0,0.7,0.5,0.3,0.9c-0.1-0.2-0.3-0.5-0.7-0.3c0.2,0.4,0,0.7-0.4,0.9c0.1-0.2,0.2-0.5-0.1-0.5
	c-0.3,0,0,0.2-0.6,0.2c-0.5,0-0.5,0-0.7-0.3c-0.2-0.3-0.4-0.4-0.5-0.4c-0.1,0-0.2,0.3,0,0.5c-1.1,0-0.6-1.1-1.2-1.4
	c0,0.4,0,0.6,0,0.8c-0.4-0.3-0.7-0.7-0.7-1c-0.1-0.3,0-0.5-0.3-0.7c-0.1,0-0.2-0.1-0.2-0.3c0-0.1,0.1-0.1,0.3-0.2
	c0.2-0.1,0.5-0.3,0.5-0.9c0-0.4-0.1-1-0.8-1.5c0.1,0.9,0,1.7-0.4,2.4c-0.5,0.9-1.5,1.5-2,1.7c-0.5,0.2-1.2,0.4-1.2,1.1
	c0,1.3,0.6,2,1.1,2c0.4,0,0.3-0.4,0.8-0.4c0.2,0,0.5,0.1,0.5,0.3c0.3-0.1,0.6,0.1,0.6,0.4c0,0.3-0.1,0.4-0.3,0.5
	c0.2-0.4-0.3-0.4-0.4-0.4c-0.1,0.1,0,0.2,0,0.4c0,0.2-0.1,0.4-0.4,0.5c0.1-0.1,0.1-0.3-0.2-0.3c-0.2,0-0.3,0.4-0.6,0.4
	c-0.5,0-0.6-0.2-1.1-0.1c-0.3,0.1-0.3,0.3-0.2,0.3c-0.6,0-0.5-0.7-0.4-0.8c0.1-0.1,0.2-0.2,0-0.4c-0.2-0.1-0.5,0-0.6,0.3
	c-0.5-1,0.2-0.9,0-2c-0.1,0.5-0.4,0.8-0.6,0.9c0.1-0.2-0.1-0.7-0.1-1.1c0-0.8,0.5-1.1,0.5-1.3c0-0.2-0.2-0.4,0-0.5
	c0.1-0.1,0.3,0.1,0.5,0.1c0.6,0,1.1-0.8,1.2-1.8c0.1-1.1,0.6-1.9,1-2.7c0-0.1,0-0.3,0.1-0.4c-0.5,0.6-0.9,1.4-1.5,1.9
	c0.1,0.7-1.3,1.5-2.1,0.9c0.3,0,0.7-0.1,0.9-0.5c-0.1,0-0.2,0-0.3-0.1c-0.5,0.3-1.2-0.1-1.2-0.6c0.2,0.2,0.4,0.3,0.7,0.2
	C10,17,9.9,16.7,9.9,16.4c0-2.1,3.2-3.5,3.2-5.2c0-0.5-0.3-0.8-0.7-0.8c-0.2,0-0.4,0.1-0.6,0.2c0.2,0.1,0.3,0.3,0.3,0.5
	c0,1.9-3.1,1.7-3.3,3c-0.1-1.6,1.8-1.3,1.9-2.6c-0.4,0.6-1.1,1-1.5,0.8c1,0,0.7-2,1.8-2c0.1,0,0.2,0,0.4,0.1c0.3-0.3,0.7-0.4,1-0.4
	c0.5,0,1.2,0.3,1.2,1.2c0,2-3.2,3.3-3.2,5.2c0,0.6,0.4,0.9,0.9,0.9c1.1,0,1.9-2,3.1-3.7c0.8-1.1,1.3-3.3,1.8-4.4
	c-0.6,0.4-0.7,1.6-1.4,1.7c0.4-0.3,0.1-1.3,0.4-2.1c0.1-0.3,0.1-0.5,0.1-0.8c-0.4,0.5-0.3,2-1,2.2c0.3-0.3,0-0.8,0-1.3
	c0-0.9,0.5-1,0.5-1.9c-0.4,0.2-0.3,1.3-1.1,1.3c0.6-0.6,0-1.2,0.7-1.9c-0.4-0.2-0.7-0.5-0.7-0.8c0.3-0.2,0.6-0.3,0.9-0.3
	c-0.1-0.2,0-0.4,0.2-0.6c0.1,0.1,0.2,0.2,0.3,0.2c0.2-0.1,0.7-0.5,1.3-0.7c0.5-0.2,1.2-0.4,1.4-0.4c0.1,0,0.1-0.2,0.1-0.3
	c0.2,0,0.5,0,0.6,0.3c0.2-0.2,0.5-0.3,0.8-0.3c0.2,0.4,0.2,0.7,0,1.1c0.4,0,0.6,0.4,1,0.3c-0.3,0.4-0.7,0.3-1.1,0.2
	c1.1,0.3,1.3,1.4,1.9,1.5C20,7.2,19.6,6.3,19,6.3C20.5,7.1,20.5,8,20.9,8c-0.5,0.4-0.8-0.1-1.4-0.3c1.2,0.8,1.2,1.4,1.1,1.9
	c0.3,0.2,0.2,0.5,0.2,0.9c0.2-0.1,0.5-0.2,0.7-0.2c-0.1,0.1-0.2,0.2-0.2,0.3c-0.6,0.7-1,1.3-1.3,2.2c-0.3-0.2-0.5-0.5-0.7-0.6
	c-0.2-0.2-0.5-0.2-0.6-0.2c0.4,0.4,1.6,1.8,2,2.2c0.4,0.4,0.3,0.7,0.4,1.1C21.3,15.5,21.7,15.8,21.6,16z M42.5,21.2
	c0,0.4,0.3,0.7,0.7,0.7c0.4,0,0.7-0.3,0.7-0.7c0-0.4-0.3-0.7-0.7-0.7C42.8,20.6,42.5,20.9,42.5,21.2z M42.2,21.2
	c0-0.5,0.4-0.9,0.9-0.9c0.5,0,0.9,0.4,0.9,0.9c0,0.5-0.4,0.9-0.9,0.9C42.7,22.1,42.2,21.7,42.2,21.2z M39.3,22.9
	c0.3,0,0.5-0.1,0.5-0.3c0,0,0,0,0,0c0-0.2-0.2-0.3-0.4-0.4c-0.2,0-0.3,0-0.4,0.1c0,0-0.1,0.1-0.1,0.2C38.8,22.6,39,22.8,39.3,22.9z
	 M38.9,22.1c0.2-0.1,0.4-0.2,0.6-0.1c0.4,0.1,0.7,0.4,0.6,0.7c0,0.2-0.1,0.3-0.3,0.4c-0.1,0.1-0.3,0.1-0.5,0.1
	c-0.2,0-0.3-0.1-0.5-0.2c-0.1-0.1-0.2-0.3-0.1-0.5C38.6,22.3,38.7,22.2,38.9,22.1z M33.8,9.8c0,0.1,0,0.1,0,0.2
	c0.1,0.1,0.3,0.1,0.5,0c0.1-0.1,0.2-0.2,0.2-0.3c0-0.1,0-0.1,0-0.2c0-0.1-0.1-0.1-0.2-0.1c-0.1,0-0.2,0-0.3,0.1
	C33.9,9.5,33.8,9.7,33.8,9.8z M33.8,9.2c0.2-0.1,0.3-0.2,0.5-0.2c0.1,0,0.2,0.1,0.3,0.2c0.1,0.1,0.1,0.2,0.1,0.4
	c0,0.2-0.1,0.3-0.3,0.5c-0.3,0.2-0.7,0.2-0.8,0C33.5,9.8,33.6,9.5,33.8,9.2z M38.1,21.6c0.1,0,0.2,0,0.2-0.1
	c0.1-0.1,0.1-0.2,0.2-0.4c0-0.3-0.1-0.5-0.3-0.5c-0.1,0-0.2,0-0.2,0.1c-0.1,0.1-0.1,0.2-0.2,0.4c0,0.2,0,0.3,0.1,0.4
	C38,21.5,38,21.6,38.1,21.6L38.1,21.6z M37.8,20.6c0.1-0.1,0.2-0.2,0.4-0.2c0.2,0,0.3,0.1,0.4,0.2c0.1,0.1,0.2,0.3,0.2,0.5
	c0,0.2-0.1,0.4-0.2,0.5c-0.1,0.1-0.2,0.2-0.4,0.2c-0.1,0-0.3-0.1-0.4-0.2c-0.1-0.1-0.2-0.3-0.2-0.5v0C37.6,20.9,37.6,20.7,37.8,20.6
	z M33.5,14.1c0.1,0.1,0.3,0.1,0.4,0c0.1,0,0.1-0.1,0.2-0.1c0-0.1,0-0.2,0-0.2c0-0.1-0.1-0.2-0.3-0.3c-0.1-0.1-0.3-0.1-0.4,0
	c-0.1,0-0.1,0.1-0.2,0.1C33.2,13.7,33.3,13.9,33.5,14.1z M33.3,13.2c0.2-0.1,0.4,0,0.6,0c0.2,0.1,0.3,0.3,0.4,0.4c0,0.1,0,0.3,0,0.4
	c-0.1,0.1-0.2,0.2-0.3,0.3c-0.2,0.1-0.4,0-0.6,0c-0.4-0.2-0.5-0.5-0.4-0.8C33.1,13.3,33.2,13.2,33.3,13.2z M39.9,17.3
	c0.1-0.2,0.1-0.5,0-0.6c-0.2-0.1-0.4,0-0.6,0.2c-0.1,0.2-0.1,0.5,0,0.6C39.5,17.6,39.8,17.5,39.9,17.3z M38.9,19
	c0.1-0.2,0.1-0.5,0-0.6c-0.2-0.1-0.4,0-0.6,0.2c-0.1,0.2-0.1,0.5,0,0.6C38.4,19.3,38.7,19.2,38.9,19z M38.9,11.9
	c0.3-0.3,0.8-0.9,0.8-0.9l-0.3-0.3c0,0.1,0,0.3,0,0.5c-0.1-0.1-0.2-0.2-0.2-0.3L39,11.2c0.1,0,0.3,0,0.3,0.1c-0.2,0.2-0.5,0.1-0.6,0
	c-0.2-0.2-0.3-0.3-0.3-0.4c0.1-0.1,0.3-0.1,0.4,0.1C39,11,39,10.8,39,10.7c-0.1-0.1-0.2-0.1-0.3-0.1c0.3-0.2,0.5-0.4,0.4-0.8
	c-0.4,0.1-0.5,0.3-0.6,0.6c0-0.1-0.1-0.3-0.2-0.3c-0.1,0-0.3,0.1-0.3,0.3c0.2-0.1,0.4,0.1,0.3,0.3c-0.1,0.1-0.3,0.1-0.5,0
	c-0.3-0.2-0.3-0.4-0.2-0.6c0.1,0.1,0.1,0.2,0.1,0.4L38,10c-0.1,0-0.2,0.1-0.3,0c0.1-0.1,0.2-0.2,0.4-0.3l-0.6-0.3
	c0.1,0.2,0,0.4,0,0.5c-0.1-0.1-0.2-0.2-0.2-0.3L37,10.1c0.1-0.1,0.3-0.1,0.4-0.1c-0.1,0.2-0.4,0.3-0.6,0.2c-0.2-0.1-0.3-0.3-0.3-0.4
	c0.1-0.1,0.3-0.1,0.4,0.1c0.2-0.1,0.2-0.3,0.1-0.4c-0.1-0.1-0.2-0.1-0.4,0C36.9,9.2,37,9,36.9,8.6c-0.3,0.1-0.5,0.4-0.5,0.7
	c0-0.1-0.1-0.2-0.2-0.2c-0.1,0-0.3,0.1-0.2,0.3c0.2-0.1,0.4,0.1,0.3,0.3c-0.1,0.1-0.2,0.1-0.5,0c-0.2-0.1-0.4-0.2-0.3-0.5
	c0.1,0,0.2,0.2,0.3,0.2L35.9,9C35.8,9,35.7,9,35.6,9c0.1-0.1,0.3-0.2,0.4-0.3l-0.4-0.2c0,0-0.2,0.8-0.4,1.2L38.9,11.9z M39.6,14.8
	c0,0.1,0.1,0.3,0.2,0.4c0.1,0.1,0.2,0.2,0.4,0.2c0.1,0,0.1,0,0.2-0.1v0c0.1-0.1,0.1-0.1,0.1-0.2c0-0.1-0.1-0.3-0.2-0.4
	c-0.1-0.1-0.2-0.2-0.4-0.2c-0.1,0-0.1,0-0.2,0.1C39.6,14.7,39.6,14.7,39.6,14.8z M41.3,22.3c0,0.1,0,0.1,0,0.2
	c0.1,0.2,0.4,0.2,0.6,0c0.1-0.1,0.2-0.2,0.2-0.3c0-0.1,0-0.1,0-0.2v0c-0.1-0.1-0.1-0.1-0.2-0.1c-0.1,0-0.3,0-0.4,0.1
	C41.4,22.1,41.3,22.2,41.3,22.3z M33.5,11c0-0.1,0-0.3-0.1-0.3c0,0-0.1-0.1-0.2-0.1c-0.1,0-0.1,0-0.2,0.1c-0.1,0.1-0.1,0.2-0.1,0.3
	v0c0,0.2,0.1,0.4,0.3,0.4c0.1,0,0.1,0,0.2-0.1C33.4,11.2,33.5,11.1,33.5,11z M35.9,6c0.3-0.2,0.7-0.3,1.1-0.3
	c-0.3-0.1-0.5-0.3-0.7-0.3C35.9,5.4,36,5.8,35.9,6z M42.9,12.2c0.1,1.6,2,1.2,1.7,2.4c0-0.8-2.7-0.7-2.7-2.3c0-0.3,0.1-0.6,0.3-0.8
	c-0.1-0.1-0.2-0.1-0.4-0.1c-0.5,0-1.1,0.5-1.1,1.2c0,2,2.7,2.3,2.7,4.6c0,0.5-0.2,0.9-0.5,1.1c0.2,0,0.6-0.1,0.7-0.3
	c-0.2,0.9-1.1,0.9-1.4,0.5c0,0-0.1,0-0.1,0c-0.1,0-0.1,0-0.2,0c0.2,0.4,0.4,0.7,0.8,0.6c-0.8,0.6-1.8-0.2-1.6-1.1
	c-0.2-0.3-0.4-0.6-0.5-0.8c-0.1-0.2-0.2-0.1-0.2,0.1c0,0.7-0.5,1.4-0.5,1.9c0,0.5,0.5,1,0.7,1c0.2,0,0.3-0.2,0.4-0.2
	c0.1,0.1,0.1,0.2,0.1,0.6c0,0.2,0,0.9,0.1,1.5c0-0.2,0.2-0.3,0.3-0.4c0.2-0.1,0.4-0.2,0.6-0.1c0.1,0,0.3,0.1,0.3,0.2
	c0.1,0.1,0.1,0.2,0.1,0.3c0,0,0,0.1,0,0.1c0,0.2-0.2,0.4-0.3,0.5c-0.2,0.1-0.3,0.2-0.5,0.1c-0.2,0-0.3-0.1-0.4-0.2c0,0,0,0,0-0.1
	c0,0.2,0,0.4,0,0.6c0,0.5-0.1,0.7-0.3,0.8c0-0.1-0.2-0.2-0.3-0.2c-0.1,0-0.3,0.1-0.3,0.2c0,0.2,0.3,0.2,0.3,0.5
	c0,0.3-0.7,0.7-1.2,0.7c0.1-0.2,0.2-0.7,0.3-1c-0.1,0.1-0.3,0.3-0.4,0.6c-0.1,0.4-0.3,0.4-0.5,0.3c0.2-0.2,0.5-1,0.9-1.2
	c0.4-0.3,0.5-0.4,0.6-1c0.1-0.6,0-1,0-1.5c0-0.7-0.3-0.6-0.5-0.6c-0.5,0-2.3-1.2-2.3-2.4c0-0.1,0-0.2,0-0.4c-0.8,0-1.3,0.2-1.3,1
	c0,0.3,0,0.5,0.2,0.7c0.2,0.1,0.3,0.3,0,0.4c-0.3,0.1-2.8,1.2-2.8,1.2c-0.3,0.1-0.4,0-0.5-0.2c-0.1-0.2-0.3-0.2-0.4-0.1
	c-0.2,0.1,0.1,0.2,0.1,0.4c0,0.2-0.1,0.6-1.2,0.5l0.3-0.5c0.1-0.2,0.1-0.3,0.1-0.3c-0.1,0-0.1,0.1-0.2,0.3l-0.3,0.4
	c-0.2,0-0.4,0-0.4,0c0.4-0.4,0.7-0.7,0.9-0.9c0.2-0.2,0.5-0.4,1-0.4c0.6-0.1,2.6-0.4,2.6-1c0-0.7-0.8-0.7-0.8-1.7
	c0-0.9,0.4-1.8,2.7-1.7c-0.2-0.6-0.8-1-1.4-1.1c-1.2-0.3-1.5-1.1-1.6-1.9c-0.3,0-0.6,0-0.9,0c-0.7,0-1.1-0.3-1.3-0.1
	c-0.1,0.1-0.1,0.2,0,0.3c0.1,0.2,0.3,0.6,0.5,0.9c0.1,0,0.4,0,0.4,0.2c0,0.2-0.1,0.2-0.1,0.3c0,0.1,0,0.2,0.1,0.2
	c0.1,0,0.1-0.1,0.1-0.2c0.1-0.1,0.3-0.1,0.6,0c0.2,0.2,0.5,0.5,0.6,0.9c-0.3-0.1-0.7-0.3-0.8-0.3c-0.1,0-0.1,0.1,0,0.1
	c0.1,0,0.4,0.2,0.5,0.3l0,0.3c-0.1-0.1-0.6-0.4-1-0.5c-0.3-0.1-0.5-0.2-0.7-0.6c-0.2-0.4-0.7-1.4-0.9-1.7c-0.1-0.2-0.1-0.3,0-0.4
	c0.1-0.1,0.1-0.2,0.2-0.3c0.1-0.2,0.2-0.2,0.4-0.2c0.2,0,0.7,0,0.9-0.1c0,0,0.1,0,0.2-0.1c-0.5-0.5-1.1-1.3-1.1-1.4
	c-0.1-0.1-0.2-0.2-0.3-0.2c-0.1,0-0.2,0-0.3,0.1c0,0-0.1,0.1-0.1,0.1c0-0.1-0.1-0.1-0.1-0.2c-0.1-0.1-0.2-0.2-0.3-0.3
	c0.2-0.1,0.3-0.3,0.4-0.3c0.1-0.1,0.2-0.2,0.3-0.2c0.1,0,0.3,0,0.3,0c0.2,0,0.2,0,0.3,0.1c0.2,0.2,0.5,0.4,0.7,0.6
	c0,0,0.1,0,0.1,0.1c0,0,0,0,0.1-0.1c0.1-0.1,0.2-0.1,0.3-0.1c0.1,0,0.2,0.1,0.3,0.2c0.1,0.1,0.2,0.3,0.2,0.5c0,0.1,0,0.1,0,0.2
	c0.2,0.2,0.3,0.3,0.5,0.5c0.1-0.6,0.4-1.3,0.8-1.8l-0.1,0c0,0,0-0.1,0-0.1c0.1-0.3,0.2-0.8,0.3-1c0-0.1,0-0.1,0-0.1l0-0.2l0.7,0.3
	c0,0,0,0,0.1-0.1c0.6-0.6,2.1-1,2.1-1.9c0-0.2-0.1-0.5-0.3-0.7c0.1,0.1,0.1,0.3,0.1,0.5c0,0.2-0.4,0.7-1,0.7c-0.3,0-0.6-0.3-0.7-0.3
	c-0.1,0-0.2,0.1-0.3,0.1c0,0.4-0.2,0.7-0.3,0.7c0.1-0.2,0-0.5,0-0.5c-0.1,0-0.1,0.1-0.1,0.4c0,0.3-0.2,0.6-0.6,0.6
	c0.1-0.1,0.2-0.5,0.1-0.6c-0.1-0.1-0.2,0.1-0.3,0.1c-0.1,0-0.2-0.1-0.2-0.2c0-0.1-0.2,0-0.2-0.1c0-0.1,0.2-0.3,0.4-0.3
	c0.2-0.1,0.5-0.2,0.5-0.4c-0.1-0.2-0.8,0.1-1,0.3c-0.4,0.3-0.2-0.1-0.3-0.2c-0.2-0.4,0-0.4,0.2-0.6c0.2-0.2,0.7-0.6,1.3-0.9
	c0-0.2,0.1-0.3,0.3-0.4c0.2-0.1,0.5-0.2,0.7-0.3L33.5,1c-0.1-0.1-0.1-0.1,0-0.2c0,0,0.1,0,0.2,0.1l3.6,3.5c0.1-0.2,0.2-0.5,0.1-0.8
	c0.4,0.2,0.8,0.6,0.9,1.1c1.1,0,1.4,0.7,1.7,0.4c0,0.2-0.1,0.3-0.5,0.4c1.3,0.3,0.9,1.2,1.6,1.3C41,6.9,40.8,7,40.6,6.9
	c0.8,1.2,0,1.9,0.6,2.5c-0.2,0.1-0.6-0.1-0.8-0.5c0.2,1-0.1,1.5,0.1,1.9c-0.3,0.1-0.5-0.2-0.6-0.5c-0.1,0.2-0.1,0.4-0.2,0.6L40,11
	l-0.1,0.1l0,0l0,0c-0.5,0.5-0.7,0.8-0.8,0.9L39,12.1c0,0-0.1-0.1-0.1-0.1c-0.3,0.4-0.6,0.7-0.6,1.1c0,0.4,0.5,1.2,1.1,1.9
	c0-0.1,0-0.2,0-0.2v0c0-0.1,0.1-0.3,0.2-0.4c0.1-0.1,0.2-0.1,0.4-0.1c0.2,0,0.4,0.1,0.5,0.3c0.1,0.2,0.2,0.3,0.2,0.5v0
	c0,0.1-0.1,0.3-0.2,0.4c-0.1,0.1-0.2,0.1-0.4,0.1c-0.1,0-0.3-0.1-0.4-0.1c0.4,0.5,0.8,1.1,1,1.5c0.4,0.8,0.8,1.3,1.2,1.3
	c0.5,0,1-0.4,1-1c0-2.1-2.7-2.3-2.7-4.7c0-1.1,0.9-1.6,1.5-1.6c0.4,0,0.6,0.1,0.8,0.3c0.1,0,0.1,0,0.2,0c1.3,0,0.5,1.7,1.5,1.8
	C43.8,13.3,43.2,13,42.9,12.2z M0,74h1.7V0H0V74z"/>
</svg>
